<?xml version="1.0" encoding="UTF-8" standalone="no"?>
<svg id="svg2" xmlns:rdf="http://www.w3.org/1999/02/22-rdf-syntax-ns#" xmlns="http://www.w3.org/2000/svg" xml:space="preserve" height="30" width="112" version="1.1" xmlns:cc="http://creativecommons.org/ns#" viewBox="0 0 799.71997 208.26666" xmlns:dc="http://purl.org/dc/elements/1.1/"><metadata id="metadata8"><rdf:RDF><cc:Work rdf:about=""><dc:format>image/svg+xml</dc:format><dc:type rdf:resource="http://purl.org/dc/dcmitype/StillImage"/></cc:Work></rdf:RDF></metadata><defs id="defs6"><clipPath id="clipPath20" clipPathUnits="userSpaceOnUse"><path id="path18" d="m0 1562v-1562h5997.9v1562z"/></clipPath></defs><g id="g10" transform="matrix(1.3333 0 0 -1.3333 0 208.27)"><g id="g12" transform="scale(.1)"><g id="g14"><g id="g16" fill="#a3a5a7" clip-path="url(#clipPath20)"><path id="path22" d="m103.27 39.82c237.59 77.93 591.63 55.559 833.12-39.82-174.35 95.48-524.34 238.14-833.12 39.82"/><path id="path24" d="m1448 74.43c-250.7-62.258-457.21 76.07-781.7 177.75-213.5 66.9-391.08-25.8-487.59-97.03-50.16-37.04-78.43-68.279-78.43-68.279 0-1.3516 29.168 16.34 78.434 37.117 102.32 43.16 291.42 99.653 486.8 26.821 289.45-107.91 517.09-155.51 764.09-113.05 197 33.849 265 163.68 284.5 214.88-17.2-40.8-75.8-130.99-266.1-178.21"/><path id="path26" d="m374.47 489.18c-0.477 1.679-0.922 3.351-1.356 5.031 1.051-3.52 1.738-5.449 1.738-5.449s-16.707 145.87 87.211 218.74c103.95 72.859 257.66 28.426 257.66 28.426s-161.77 95.437-283.06 8.851c-2.941-2.097-5.742-4.269-8.5-6.469 51.281 61.418 128.91 100.56 215.8 100.56 88.359 0 167.14-40.496 218.37-103.7h116.07c-57.01 125.56-184.71 213.03-333.07 213.03-201.52 0-364.87-161.32-364.87-360.32 0-22.266 2.059-44.035 5.981-65.195 32.894-3.16 63.113-15.141 88.035-33.5"/><path id="path28" d="m1720.9 273.64s-1.87-8.012-6.81-21c5.48 12.98 6.81 21 6.81 21"/><path id="path30" d="m178.71 186.54c17.949 12.133 36.281 23.57 53.059 32.281-8.196 5.219-15.868 11.168-22.786 17.981-12.882 12.66-22.754 26.769-30.273 41.347-32.531 62.993-21.313 134.47-21.313 134.47s-55.078-126.26 21.313-201.46l1.973-1.949c3.222-3.031 6.613-5.883 10.086-8.52-4.122 1.957-8.137 4.071-12.059 6.309-50.859 29.25-85.043 83.66-85.043 145.96 0 62.309 34.184 116.73 85.043 145.97 23.23 13.34 49.922 21.441 78.43 22.64-3.75 21.551-5.711 43.703-5.711 66.305 0 13.461 0.683 26.762 2.031 39.855-26.074-1.164-51.156-6.039-74.75-14.101-104.02-35.57-178.71-133.13-178.71-247.94 0-92.48 48.477-173.77 121.69-220.47 16.539 12.691 36.535 27.461 57.023 41.32"/><path id="path32" d="m1291.6 98.461c140.12 5.5271 193.58 104.17 193.58 104.17s-44.25-51.609-189.89-64.527c-145.65-12.911-300.53 66.378-300.53 66.378 0-3.699 156.71-111.55 296.84-106.02"/><path id="path34" d="m876.05 575.22h130.18v130.17h-130.15z"/><path id="path36" d="m1393 244.04h100.69v100.68h-100.7z"/><path id="path38" d="m1032.9 651.1h173.6v173.57h-173.6z"/><path id="path40" d="m1536.9 350.72h173.61v173.57h-173.6z"/><path id="path42" d="m1223.2 540.99h96.777v96.766h-96.8z"/><path id="path44" d="m1287.9 350.38h96.781v96.762h-96.8z"/><path id="path46" d="m1084.2 340.72h96.789v96.781h-96.8z"/><path id="path48" d="m1423.4 537.65h96.781v96.773h-96.8z"/><path id="path50" d="m2380.3 358.93c-8.18-24.121-19.79-44.539-34.84-61.258-15.06-16.723-33.38-29.543-54.94-38.481-21.57-8.929-45.89-13.402-72.94-13.402h-107.58v389.75h107.58c27.05 0 51.37-4.469 72.94-13.402 21.56-8.938 39.88-21.762 54.94-38.477 15.05-16.719 26.66-37.133 34.84-61.266 8.16-24.109 12.25-51.359 12.25-81.726 0-30.383-4.09-57.621-12.25-81.742zm40.2 281.01c-24.5 24.375-53.99 43.395-88.44 57.051-34.46 13.649-72.62 20.485-114.48 20.485h-211.4v-553.62h211.34c41.86 0 80.02 6.762 114.48 20.289 34.45 13.532 63.94 32.543 88.44 57.043 24.5 24.52 43.51 53.731 57.04 87.68 13.53 33.938 20.3 71.219 20.3 111.8 0 40.578-6.77 77.84-20.3 111.79-13.53 33.941-32.54 63.105-57.04 87.48"/><path id="path52" d="m2631.6 714.03c-5.5 5.36-11.94 9.629-19.34 12.824-7.41 3.192-15.31 4.79-23.74 4.79-8.17 0-15.88-1.598-23.16-4.79-7.27-3.195-13.59-7.464-18.95-12.824-5.36-5.363-9.64-11.746-12.83-19.144-3.19-7.407-4.78-15.317-4.78-23.739 0-8.171 1.59-15.828 4.78-22.972 3.19-7.149 7.47-13.399 12.83-18.762 5.36-5.359 11.68-9.637 18.95-12.824 7.28-3.195 14.99-4.785 23.16-4.785 8.43 0 16.33 1.59 23.74 4.785 7.4 3.187 13.84 7.465 19.34 12.824 5.48 5.363 9.88 11.613 13.2 18.762 3.32 7.144 4.98 14.801 4.98 22.972 0 8.422-1.66 16.332-4.98 23.739-3.32 7.398-7.72 13.781-13.2 19.144"/><path id="path54" d="m2541.1 163.86h94.559v392.81h-94.6z"/><path id="path56" d="m2905.4 408.13c-2.94-7.91-7.27-14.68-13.02-20.301-5.74-5.609-12.96-10.019-21.63-13.207-8.68-3.191-18.89-4.781-30.63-4.781-11.48 0-21.63 1.59-30.44 4.781-8.8 3.188-16.08 7.668-21.82 13.41-5.74 5.739-10.09 12.571-13.02 20.481-2.94 7.91-4.4 16.457-4.4 25.648 0 19.399 5.81 34.781 17.42 46.129 11.61 11.359 29.04 17.039 52.26 17.039 23.23 0 40.65-5.68 52.26-17.039 11.61-11.348 17.43-26.73 17.43-46.129 0-9.441-1.48-18.121-4.41-26.031zm-122-217.85c11.74-2.82 23.93-4.211 36.56-4.211h36.76c11.87 0 23.09-0.66 33.69-1.961 10.59-1.308 19.84-3.32 27.76-6.058 7.9-2.75 14.16-6.582 18.76-11.531 4.59-4.961 6.89-11.329 6.89-19.149s-1.92-15.051-5.74-21.699c-3.83-6.641-9.9-12.383-18.19-17.203-8.3-4.828-18.83-8.5901-31.59-11.34-12.76-2.7305-27.94-4.0977-45.56-4.0977-17.36 0-32.03 1.2071-44.03 3.629-12 2.4296-21.76 5.8088-29.29 10.149-7.53 4.339-13.01 9.511-16.46 15.511-3.44 6-5.17 12.442-5.17 19.328 0 10.473 3.25 19.723 9.76 27.762s15.13 15 25.85 20.871zm104.14 368.12c-14.81 3.442-30.63 5.168-47.48 5.168-22.46 0-43.2-2.937-62.21-8.804-19.02-5.883-35.48-14.364-49.39-25.461-13.92-11.102-24.76-24.5-32.55-40.199-7.79-15.704-11.67-33.25-11.67-52.641 0-24 5.68-44.922 17.03-62.801 11.36-17.859 27-32.148 46.9-42.879-8.67-4.332-16.21-9.242-22.58-14.73-6.39-5.492-11.68-11.289-15.89-17.422-4.21-6.129-7.34-12.32-9.38-18.57-2.05-6.258-3.07-12.321-3.07-18.18 0-14.309 2.93-25.918 8.81-34.848 5.87-8.929 13.65-16.082 23.35-21.441-19.9-7.399-35.48-17.36-46.71-29.871-11.23-12.5-16.84-27.938-16.84-46.309 0-13.539 3.57-26.551 10.72-39.058 7.14-12.512 17.93-23.551 32.35-33.121 14.42-9.5703 32.6-17.23 54.56-22.969 21.95-5.7422 47.86-8.6133 77.72-8.6133 30.12 0 56.91 3.9024 80.4 11.711 23.48 7.8203 43.33 18.121 59.54 30.922 16.2 12.809 28.58 27.41 37.13 43.789 8.56 16.391 12.83 33.289 12.83 50.711 0 18.688-3.63 33.989-10.92 45.891-7.26 11.906-16.84 21.316-28.71 28.238-11.86 6.91-25.33 11.969-40.39 15.168-15.06 3.203-30.5 5.442-46.33 6.723-15.82 1.277-31.26 1.918-46.32 1.918s-28.52 0.781-40.39 2.32-21.44 4.18-28.71 7.902c-7.28 3.731-10.92 9.579-10.92 17.559 0 9.25 6.12 17.602 18.38 25.059 14.03-2.821 28.46-4.207 43.26-4.207 21.95 0 42.31 3 61.07 8.988 18.76 6 34.96 14.48 48.62 25.461 13.65 10.98 24.38 24.32 32.16 40.008 7.79 15.703 11.68 33.25 11.68 52.652 0 8.16-0.71 15.937-2.11 23.359-1.4 7.399-3.38 14.41-5.93 21.051l35.23 6.508c7.4 1.269 12.64 3.562 15.68 6.883 3.07 3.316 4.61 7.91 4.61 13.789v35.219h-112.95c-12.25 6.64-25.78 11.679-40.58 15.128"/><path id="path58" d="m3068.3 163.86h94.57v392.81h-94.6z"/><path id="path60" d="m3158.8 714.03c-5.49 5.36-11.94 9.629-19.33 12.824-7.41 3.192-15.32 4.79-23.74 4.79-8.17 0-15.89-1.598-23.16-4.79-7.28-3.195-13.6-7.464-18.96-12.824-5.36-5.363-9.64-11.746-12.82-19.144-3.19-7.407-4.78-15.317-4.78-23.739 0-8.171 1.59-15.828 4.78-22.972 3.18-7.149 7.46-13.399 12.82-18.762 5.36-5.359 11.68-9.637 18.96-12.824 7.27-3.195 14.99-4.785 23.16-4.785 8.42 0 16.33 1.59 23.74 4.785 7.39 3.187 13.84 7.465 19.33 12.824 5.49 5.363 9.89 11.613 13.21 18.762 3.31 7.144 4.98 14.801 4.98 22.972 0 8.422-1.67 16.332-4.98 23.739-3.32 7.398-7.72 13.781-13.21 19.144"/><path id="path62" d="m3429.3 244.84c-1.79 1.39-4.09 2.109-6.89 2.109-2.3 0-4.6-0.719-6.89-2.109-2.3-1.41-4.92-2.879-7.85-4.41-2.94-1.532-6.39-3-10.34-4.399-3.96-1.41-8.87-2.101-14.74-2.101-10.22 0-18.38 3.441-24.5 10.332-6.13 6.886-9.19 16.457-9.19 28.707v212.87h103.37v67.379h-103.37v123.67h-49.01c-5.61 0-10.28-1.407-13.97-4.207-3.7-2.813-6.07-6.77-7.08-11.872l-19.91-107.2-63.18-10.339v-37.52c0-6.641 1.85-11.621 5.55-14.93 3.7-3.32 8.1-4.98 13.21-4.98h39.82v-219.37c0-33.949 9.19-60.559 27.56-79.828 18.38-19.27 44.55-28.903 78.49-28.903 19.15 0 37.65 2.934 55.52 8.801 17.86 5.859 33.69 14.551 47.47 26.031l-28.33 45.95c-2.04 2.8-3.96 4.91-5.74 6.32"/><path id="path64" d="m3705 264.65c-6.89-7.027-13.73-13.117-20.49-18.277-6.77-5.152-13.78-9.48-21.05-13-7.28-3.512-15-6.152-23.17-7.91-8.17-1.762-17.1-2.641-26.79-2.641-15.83 0-28.67 3.602-38.49 10.801-9.82 7.188-14.74 19.149-14.74 35.859 0 8.481 2.36 16.321 7.08 23.52 4.73 7.199 12.7 13.5 23.94 18.898 11.23 5.403 26.09 9.832 44.6 13.301 18.51 3.473 41.54 5.199 69.11 5.199zm53.99 256.61c-12.51 13.398-27.77 23.859-45.76 31.386-17.99 7.532-38.48 11.297-61.45 11.297-63.81 0-118.3-20.675-163.49-62.023l17.24-30.242c2.8-4.852 6.5-8.93 11.1-12.25 4.59-3.321 10.08-4.969 16.46-4.969 7.66 0 14.67 1.769 21.06 5.359 6.38 3.559 13.33 7.578 20.86 12.051 7.53 4.457 16.41 8.481 26.61 12.059 10.21 3.57 22.98 5.359 38.29 5.359 21.18 0 37.33-6.367 48.43-19.09 11.1-12.73 16.66-32.347 16.66-58.84v-23.148c-44.67 0-82.07-3.84-112.18-11.52-30.12-7.679-54.25-17.351-72.36-29-18.13-11.652-31.08-24.722-38.87-39.179-7.78-14.473-11.67-29.133-11.67-43.992 0-17.668 2.81-33.161 8.42-46.481 5.62-13.309 13.46-24.461 23.55-33.418 10.07-8.961 22.13-15.691 36.18-20.16 14.03-4.492 29.34-6.723 45.94-6.723 14.04 0 26.8 1.141 38.29 3.442 11.48 2.3 22.33 5.75 32.54 10.34 10.21 4.601 20.1 10.269 29.67 17.039 9.57 6.75 19.34 14.613 29.29 23.543l8.43-27.954c2.55-8.168 6.37-13.589 11.48-16.269s12.12-4.02 21.06-4.02h42.5v248.1c0 22.199-3.26 42.617-9.77 61.25-6.5 18.629-16.01 34.648-28.51 48.051"/><path id="path66" d="m3858.1 163.86h94.57v568.93h-94.6z"/><path id="path68" d="m4439.9 358.93c-8.03-24.121-19.59-44.539-34.65-61.258-15.06-16.723-33.37-29.543-54.94-38.481-21.57-8.929-45.88-13.402-72.94-13.402-27.05 0-51.43 4.473-73.12 13.402-21.7 8.938-40.14 21.758-55.32 38.481-15.19 16.719-26.87 37.137-35.03 61.258-8.18 24.121-12.26 51.359-12.26 81.742 0 30.367 4.08 57.617 12.26 81.726 8.16 24.133 19.84 44.61 35.03 61.457 15.18 16.844 33.62 29.731 55.32 38.672 21.69 8.93 46.07 13.399 73.12 13.399 27.06 0 51.37-4.469 72.94-13.399 21.57-8.941 39.88-21.828 54.94-38.672 15.06-16.847 26.62-37.324 34.65-61.457 8.04-24.109 12.06-51.359 12.06-81.726 0-30.383-4.02-57.621-12.06-81.742zm40.39 284.08c-24.5 25.136-53.98 44.851-88.43 59.148-34.47 14.293-72.62 21.442-114.49 21.442-41.85 0-80.07-7.082-114.66-21.25-34.59-14.164-64.19-33.883-88.82-59.153-24.64-25.265-43.71-55.199-57.24-89.777-13.53-34.594-20.29-72.172-20.29-112.75 0-40.582 6.76-78.172 20.29-112.76 13.53-34.582 32.6-64.512 57.24-89.769 24.63-25.282 54.23-44.993 88.82-59.153 34.59-14.168 72.81-21.25 114.66-21.25 41.87 0 80.02 7.082 114.49 21.25 34.45 14.16 63.93 33.871 88.43 59.153 24.51 25.257 43.52 55.187 57.05 89.769 13.53 34.59 20.3 72.18 20.3 112.76 0 40.578-6.77 78.156-20.3 112.75-13.53 34.578-32.54 64.441-57.05 89.59"/><path id="path70" d="m4855.5 265.71c-5.88 0-11.17-1.859-15.89-5.563-4.73-3.699-10.28-7.777-16.66-12.25-6.38-4.468-14.23-8.546-23.55-12.25-9.31-3.699-21.5-5.546-36.56-5.546s-28.59 2.867-40.58 8.609c-12.01 5.75-22.21 14.16-30.63 25.269-8.43 11.098-14.87 24.821-19.33 41.161-4.48 16.328-6.7 34.961-6.7 55.898 0 20.152 2.04 38.211 6.12 54.172 4.08 15.937 10.27 29.539 18.57 40.777 8.29 11.231 18.69 19.832 31.2 25.832 12.5 6 27.06 9 43.65 9 13.01 0 23.93-1.468 32.73-4.398 8.81-2.942 16.4-6.262 22.78-9.961s11.87-7.012 16.47-9.941c4.59-2.942 9.32-4.411 14.16-4.411 5.11 0 9 1.02 11.68 3.063 2.69 2.047 5.42 4.84 8.23 8.418l24.88 34.461c-17.6 17.609-37.46 31.14-59.53 40.578-22.08 9.441-47.8 14.172-77.14 14.172-30.89 0-58.2-5.11-81.94-15.321-23.74-10.21-43.64-24.308-59.73-42.3-16.07-18-28.27-39.309-36.56-63.942-8.3-24.629-12.44-51.359-12.44-80.199 0-32.168 4.66-60.82 13.98-85.961 9.31-25.148 21.94-46.387 37.9-63.75 15.94-17.348 34.64-30.566 56.09-39.617 21.44-9.063 44.28-13.59 68.53-13.59 13.78 0 27.69 1.02 41.73 3.059s27.63 5.55 40.77 10.531c13.15 4.969 25.85 11.609 38.1 19.898 12.26 8.289 23.6 18.582 34.07 30.821l-27.17 34.468c-3.83 5.872-9.58 8.813-17.23 8.813"/><path id="path72" d="m4991.8 405.45c4.34 28.582 14.29 50.66 29.86 66.231 15.57 15.558 37.14 23.351 64.71 23.351 14.03 0 26.29-2.359 36.76-7.082 10.45-4.73 19.14-11.168 26.03-19.32 6.9-8.18 11.99-17.688 15.31-28.527 3.31-10.864 4.98-22.403 4.98-34.653zm214.79 110.83c-15.07 15.18-33 26.731-53.8 34.649-20.8 7.91-43.58 11.871-68.34 11.871-29.35 0-55.7-5.11-79.06-15.321-23.35-10.21-43.13-24.058-59.34-41.539-16.22-17.48-28.66-38.031-37.33-61.632-8.68-23.61-13.02-48.821-13.02-75.618 0-34.461 4.98-64.769 14.94-90.921 9.95-26.18 23.6-48.122 40.96-65.86 17.36-17.75 37.78-31.148 61.26-40.199 23.48-9.063 48.88-13.59 76.19-13.59 13.78 0 28.01 1.02 42.69 3.059s29.1 5.55 43.26 10.531c14.17 4.969 27.76 11.609 40.78 19.898s24.75 18.582 35.22 30.821l-27.56 34.468c-2.05 2.801-4.47 4.981-7.28 6.5-2.81 1.532-6.13 2.313-9.96 2.313-5.87 0-11.93-1.801-18.18-5.371-6.26-3.578-13.54-7.539-21.83-11.871-8.29-4.34-17.99-8.289-29.09-11.867-11.1-3.571-24.32-5.364-39.63-5.364-31.14 0-56.15 9.453-75.04 28.332-18.89 18.891-29.73 48.5-32.55 88.828h242.75c4.33 0 7.9 0.582 10.71 1.723 2.81 1.149 5.04 3.07 6.7 5.738 1.66 2.692 2.81 6.379 3.45 11.102 0.63 4.73 0.95 10.66 0.95 17.809 0 28.339-4.2 53.531-12.63 75.609-8.42 22.082-20.17 40.711-35.22 55.902"/><path id="path74" d="m5508.6 264.65c-6.89-7.027-13.73-13.117-20.49-18.277-6.76-5.152-13.77-9.48-21.05-13-7.28-3.512-15-6.152-23.16-7.91-8.18-1.762-17.1-2.641-26.8-2.641-15.83 0-28.66 3.602-38.49 10.801-9.82 7.188-14.73 19.149-14.73 35.859 0 8.481 2.35 16.321 7.08 23.52 4.72 7.199 12.69 13.5 23.93 18.898 11.23 5.403 26.1 9.832 44.6 13.301 18.51 3.473 41.54 5.199 69.11 5.199zm53.99 256.61c-12.51 13.398-27.77 23.859-45.75 31.386-18 7.532-38.49 11.297-61.46 11.297-63.81 0-118.3-20.675-163.49-62.023l17.24-30.242c2.8-4.852 6.5-8.93 11.1-12.25 4.59-3.321 10.08-4.969 16.46-4.969 7.67 0 14.68 1.769 21.06 5.359 6.38 3.559 13.33 7.578 20.86 12.051 7.53 4.457 16.41 8.481 26.61 12.059 10.21 3.57 22.98 5.359 38.3 5.359 21.18 0 37.32-6.367 48.42-19.09 11.11-12.73 16.66-32.347 16.66-58.84v-23.148c-44.66 0-82.07-3.84-112.17-11.52-30.13-7.679-54.25-17.351-72.37-29-18.12-11.652-31.08-24.722-38.87-39.179-7.78-14.473-11.67-29.133-11.67-43.992 0-17.668 2.81-33.161 8.42-46.481 5.62-13.309 13.46-24.461 23.55-33.418 10.08-8.961 22.14-15.691 36.18-20.16 14.03-4.492 29.35-6.723 45.95-6.723 14.03 0 26.79 1.141 38.28 3.442 11.48 2.3 22.33 5.75 32.55 10.34 10.2 4.601 20.09 10.269 29.66 17.039 9.58 6.75 19.34 14.613 29.29 23.543l8.43-27.954c2.55-8.168 6.38-13.589 11.48-16.269 5.11-2.68 12.12-4.02 21.06-4.02h42.5v248.1c0 22.199-3.25 42.617-9.77 61.25-6.5 18.629-16.01 34.648-28.51 48.051"/><path id="path76" d="m5989.3 474.17c-5.75 18.238-14.16 33.937-25.27 47.09-11.1 13.136-24.95 23.347-41.54 30.629-16.59 7.269-35.61 10.91-57.04 10.91-13.28 0-25.53-1.281-36.76-3.832-11.24-2.547-21.77-6.258-31.59-11.098-9.82-4.859-19.14-10.601-27.95-17.23-8.8-6.641-17.17-14.039-25.07-22.211l-6.51 31.019c-3.83 11.481-11.87 17.223-24.12 17.223h-57.82v-392.81h94.58v284.08c12.75 12.77 26.27 22.84 40.58 30.25 14.29 7.399 29.6 11.098 45.94 11.098 22.21 0 38.87-6.578 49.96-19.711 11.1-13.148 16.66-31.726 16.66-55.707v-250.01h94.57v250.01c0 21.949-2.87 42.051-8.62 60.301"/><path id="path78" d="m737.75 1100.7c6.992-5.14 16.551-9.92 28.691-14.36 12.129-4.42 25.204-6.64 39.2-6.64 38.261 0 70.937 11.66 98.007 35 27.059 23.32 49.454 49.23 67.196 77.7 8.398 13.53 15.859 26.71 22.402 39.55 6.524 12.83 12.134 24.38 16.794 34.65 12.6 27.05 23.69 51.68 33.26 73.85 9.56 22.16 18.78 42.57 27.64 61.25 9.81 20.53 20.06 39.66 30.8 57.4 10.74 17.73 23.57 35 38.51 51.8 10.72-3.27 19.25-9.69 25.55-19.25 6.29-9.57 10.6-19.72 12.95-30.45 0.45-3.74 0.92-7.36 1.39-10.85 0.46-3.5 0.7-6.9 0.7-10.15 0-24.27-11.2-46.67-33.6-67.2-22.39-20.54-47.14-34.55-74.2-42-1.39-0.48-2.92-0.82-4.55-1.05-1.64-0.25-3.14-0.59-4.55-1.05l25.21-36.4c38.73 7.46 70.22 20.88 94.5 40.25 24.26 19.36 41.76 39.78 52.5 61.25 3.73 7.93 6.52 15.86 8.4 23.8 1.85 7.93 2.8 15.63 2.8 23.1 0 4.66-0.25 9.21-0.7 13.65-0.47 4.43-1.18 8.98-2.1 13.65-4.67 23.33-16.8 44.8-36.41 64.39-19.6 19.61-49.93 29.41-91 29.41-19.14 0-38.62-1.29-58.44-3.85-19.85-2.57-39.8-7.59-59.856-15.05-25.196-8.4-50.051-21.12-74.551-38.15-24.504-17.04-47.949-39.79-70.352-68.25l42-38.5c42.93 51.33 80.618 84.23 113.06 98.7 32.42 14.46 59.61 21.46 81.54 21-6.54-7.47-12.02-13.3-16.44-17.5-4.45-4.2-8.29-8.17-11.56-11.9-0.93-0.94-1.74-1.75-2.45-2.45l-2.45-2.45c-4.67-5.6-10.14-13.3-16.44-23.1s-15.52-25.9-27.66-48.3c-13.54-24.74-24.97-47.84-34.298-69.3-9.336-21.47-18.203-42-26.601-61.6-8.399-19.14-17.149-37.57-26.25-55.3-9.102-17.74-20.184-35-33.25-51.8-13.536-17.27-26.016-28.59-37.442-33.95-11.445-5.37-21.594-8.05-30.449-8.05h-1.406-1.399c-7 0.46-13.894 2.1-20.652 4.9-6.77 2.8-12.492 6.06-17.148 9.8-3.274 1.86-5.95 3.85-8.047 5.95-2.102 2.1-3.625 3.85-4.551 5.25 0 0.46-0.246 0.92-0.703 1.4-0.469 1.4-1.172 2.56-2.102 3.5-0.937 0.93-2.344 1.4-4.199 1.4-1.863 0-3.387-0.47-4.551-1.4-1.172-0.94-2.215-2.1-3.144-3.5l-0.703-0.7c0-0.47-0.243-0.94-0.704-1.4l-25.195-31.5c-0.945-1.4-1.641-2.92-2.098-4.56-0.468-1.64-0.703-3.61-0.703-5.94 0-1.87 0.926-4.09 2.801-6.65 1.856-2.57 4.199-5.25 7.004-8.05"/><path id="path80" d="m1207.4 1077.6 13.3 21.71c6.06 9.8 13.88 21.11 23.45 33.95 9.56 12.83 19.96 26 31.15 39.55 7 7.93 14.11 15.85 21.35 23.8 7.23 7.93 14.35 15.63 21.35 23.1 16.33 15.86 31.96 29.16 46.9 39.9 14.93 10.73 27.76 16.1 38.5 16.1 7 0 12.95-1.64 17.85-4.9 4.9-3.27 9.21-7.47 12.95-12.6l38.5 66.5c-5.6 5.6-11.44 9.55-17.5 11.9-6.07 2.33-13.07 3.49-21 3.49-14.47 0-27.99-2.56-40.6-7.69-12.6-5.14-24.97-12.37-37.1-21.7-12.6-9.8-25.44-21.59-38.5-35.35-13.07-13.77-27.07-29.29-42-46.55l-4.9 2.1 52.5 109.9-47.6 21-122.5-268.8 53.9-15.41"/><path id="path82" d="m1409 1158.1c0-19.14 5.24-36.52 15.74-52.15 10.51-15.64 30.68-23.45 60.56-23.45 3.73 0 7.46 0.23 11.2 0.7 3.72 0.45 7.45 0.93 11.19 1.4 39.21 7.46 75.01 30.45 107.45 68.95 32.43 38.5 48.65 82.25 48.65 131.25v8.05c0 2.56-0.24 5.25-0.7 8.05 0 2.8-0.23 5.48-0.69 8.05-0.47 2.56-0.95 5.25-1.41 8.05l-63-17.5c0.46-4.2 0.81-8.29 1.06-12.25 0.22-3.97 0.35-7.82 0.35-11.55 0-33.6-7-62.65-21.01-87.15-13.99-24.5-29.64-41.65-46.89-51.45-4.68-3.27-9.35-5.6-14.01-7.01-4.66-1.39-9.34-2.09-14-2.09-1.4 0-2.79 0.11-4.2 0.35-1.4 0.23-2.57 0.35-3.5 0.35-6.07 1.39-11.44 4.9-16.1 10.5-4.67 5.6-7 14.23-7 25.89 0 9.81 2.69 21.36 8.06 34.66 5.36 13.3 12.95 26.95 22.74 40.95 13.07 18.2 30.11 35.58 51.1 52.15 21 16.56 45.27 29.28 72.81 38.15l-11.2 40.6c-57.88-20.54-106.88-50.17-147.01-88.9-40.13-38.74-60.19-80.27-60.19-124.6"/><path id="path84" d="m1894.8 1169.3 74.9 142.1-46.89 23.8c-14.01-23.8-28.35-43.99-43.06-60.55-14.7-16.57-29.99-32.32-45.85-47.25-3.27-3.27-6.65-6.42-10.15-9.45-3.49-3.05-6.89-6.2-10.14-9.45-22.4-21-37.7-34.42-45.85-40.25-8.18-5.85-14.83-8.75-19.95-8.75h-1.41c-0.47 0-1.17 0.23-2.1 0.7-0.94 0.46-1.86 1.28-2.79 2.45-0.95 1.16-1.41 2.91-1.41 5.25v1.05 1.05 1.4c0.46 2.33 1.28 4.66 2.45 7 1.17 2.33 2.45 4.9 3.85 7.7l81.91 154.7-47.6 24.5c-49.48-92.4-81.33-153.42-95.56-183.05-14.24-29.64-21.35-50.99-21.35-64.05 0-9.34 1.75-16.57 5.26-21.7 3.49-5.14 7.34-8.64 11.54-10.5 2.8-1.4 5.48-2.35 8.06-2.8 2.56-0.47 4.55-0.7 5.94-0.7 5.13 0 17.39 3.84 36.75 11.55 19.37 7.7 50.98 33.48 94.86 77.35l8.75 8.75c2.55 2.56 5.01 5.01 7.34 7.35 0.94 0.93 1.63 1.63 2.1 2.1 1.41 1.4 3.15 3.03 5.25 4.9 2.1 1.86 4.31 3.73 6.65 5.59l2.81-3.49c-11.67-16.8-20.78-31.04-27.31-42.7-6.54-11.67-10.26-22.17-11.2-31.5v-1.4-1.4c-0.47-0.47-0.69-0.95-0.69-1.4v-1.4-3.85c0-1.18 0.22-2.22 0.69-3.15 0.94-7.94 3.61-13.89 8.06-17.85 4.42-3.97 8.97-6.65 13.64-8.05 1.41-0.47 2.91-0.82 4.55-1.05 1.63-0.24 3.15-0.35 4.55-0.35 5.14 0 12.36 1.63 21.7 4.9 9.34 3.26 18.91 7.23 28.7 11.9 3.26 1.4 6.3 2.8 9.1 4.2 2.81 1.4 5.61 3.02 8.4 4.9 6.53 3.26 12.72 6.53 18.56 9.8 5.83 3.26 10.6 6.05 14.34 8.4l15.4 47.6c-6.54-2.8-11.79-5.25-15.75-7.35s-7.59-3.85-10.85-5.25c-0.47-0.47-0.94-0.82-1.4-1.05-0.46-0.24-0.93-0.35-1.39-0.35-0.95-0.95-1.88-1.64-2.81-2.1-0.93-0.47-1.87-0.94-2.8-1.4-6.54-3.27-12.37-6.2-17.5-8.75-5.13-2.57-9.79-3.85-13.99-3.85-2.8 0-4.9 0.58-6.31 1.75-1.4 1.16-2.33 2.68-2.79 4.55-0.47 0.93-0.82 1.86-1.06 2.8-0.23 0.93-0.35 1.63-0.35 2.1 0 1.4 0.23 3.26 0.7 5.6 0.46 2.33 1.63 5.13 3.5 8.4"/><path id="path86" d="m2059 1189.9c4.43 10.5 10.38 21.11 17.85 31.85 7.93 12.13 17.5 24.15 28.7 36.05s22.63 22.28 34.3 31.15c10.26 7.93 20.53 14.35 30.8 19.25 10.26 4.9 19.37 7.35 27.3 7.35 1.86 0 3.74-0.12 5.6-0.35 1.87-0.24 3.51-0.59 4.9-1.05 3.73-0.94 7.46-2.45 11.2-4.55 3.73-2.1 7.01-5.02 9.8-8.75-3.27-8.87-7.47-18.32-12.6-28.35-5.14-10.04-10.97-20.42-17.5-31.15-11.2-17.27-23.8-33.95-37.8-50.06-14-16.09-28.24-29.04-42.7-38.84-7-4.67-14.12-8.29-21.34-10.85-7.25-2.57-14.13-3.85-20.66-3.85-8.4 0-14.59 2.1-18.54 6.3-3.98 4.2-5.96 10.03-5.96 17.5 0 8.4 2.21 17.85 6.65 28.35zm-27.3-107.1c2.1-0.24 4.08-0.35 5.95-0.35 13.53 0 31.85 4.9 54.95 14.7s50.76 33.36 82.95 70.7l4.2-2.81c-2.34-4.19-4.55-8.28-6.65-12.24-2.1-3.97-3.85-8.05-5.25-12.25s-2.44-8.29-3.15-12.25c-0.7-3.97-1.05-8.05-1.05-12.25 0-8.87 3.38-16.69 10.15-23.45 6.76-6.77 15.28-10.15 25.55-10.15 6.07 0 14.23 1.86 24.5 5.6 10.26 3.73 21 8.16 32.2 13.3 3.73 1.4 7.23 2.91 10.5 4.55 3.26 1.63 6.3 3.38 9.1 5.25 5.61 2.33 10.73 4.78 15.4 7.35 4.66 2.56 8.86 5.01 12.6 7.35l14 47.6c-28.46-13.54-47.72-22.52-57.75-26.95-10.04-4.44-16.92-6.65-20.65-6.65-2.8 0-5.02 0.7-6.65 2.1-1.64 1.4-2.69 2.8-3.15 4.2-0.47 0.93-0.69 1.75-0.69 2.45v1.75c0 11.2 13.17 44.8 39.55 100.8 26.35 56 64.27 136.03 113.75 240.1l-60.91 18.9c-12.14-30.8-24.74-61.37-37.79-91.7-13.08-30.34-26.38-60.67-39.91-91-2.8 3.26-5.6 6.06-8.4 8.4-2.8 2.33-5.6 4.43-8.39 6.3-7.01 4.2-13.78 7.11-20.31 8.75-6.54 1.63-11.9 2.45-16.1 2.45-10.74 0-22.17-1.99-34.3-5.95-12.14-3.97-24.5-9.45-37.1-16.45-22.87-12.6-45.04-29.29-66.5-50.05-21.47-20.77-38.5-42.35-51.09-64.75-6.08-10.74-10.85-21.47-14.36-32.2-3.5-10.74-5.24-21-5.24-30.8 0-21.94 4.54-38.27 13.64-49 9.1-10.75 19.26-17.5 30.45-20.3 1.86-0.47 3.86-0.82 5.95-1.05"/><path id="path88" d="m2354 1226c-10.27-21.47-18.32-40.25-24.15-56.35-5.84-16.1-8.75-31.63-8.75-46.55 0-12.6 2.56-21.82 7.7-27.65 5.13-5.84 10.73-9.45 16.8-10.85 2.32-0.95 4.66-1.52 7-1.75 2.33-0.24 4.43-0.35 6.3-0.35 3.26 0 12.01 2.1 26.25 6.3 14.23 4.2 39.55 16.8 75.95 37.8l14 47.6c-7.47-3.74-13.07-6.43-16.8-8.05-3.74-1.64-6.77-3.15-9.11-4.55h-0.69c-0.95-0.47-1.87-1.05-2.8-1.75-0.94-0.7-2.1-1.29-3.5-1.75-14.47-7.47-25.1-12.25-31.85-14.35-6.77-2.1-11.32-3.15-13.66-3.15-2.33 0-4.54 0.58-6.64 1.75-2.11 1.16-3.15 3.85-3.15 8.05 0 5.6 4.31 19.6 12.95 42 8.63 22.4 30.68 70.46 66.15 144.2 6.52 13.53 12.48 26.01 17.85 37.45 5.35 11.43 10.85 22.75 16.45 33.95 0 0.45 0.11 0.81 0.35 1.05 0.22 0.22 0.35 0.58 0.35 1.04 6.06 12.61 12.13 25.43 18.19 38.51 6.07 13.06 12.84 27.3 20.31 42.7l-60.2 19.6c-7.94-19.6-16.92-41.2-26.95-64.75-10.04-23.57-20.42-47.5-31.15-71.75-1.87-4.2-3.62-8.4-5.25-12.6-1.64-4.21-3.4-8.4-5.25-12.6-10.28-22.4-20.19-44.22-29.75-65.45-9.57-21.24-18.55-40.49-26.95-57.75"/><path id="path90" d="m2686.5 1144c16.8 33.18 33.12 64.36 49 93.53 15.86 29.16 29.4 53.55 40.6 73.15l-48.3 24.5c-0.94-1.87-1.99-3.62-3.15-5.25-1.17-1.64-2.22-3.39-3.15-5.25-33.6-54.61-65.45-96.6-95.55-126-30.11-29.4-51.69-45.05-64.75-46.9h-1.4-1.4-1.4-1.4-1.41c-1.39 0-2.79 0.7-4.2 2.1-1.39 1.4-2.09 3.96-2.09 7.7 0 0.93 1.27 4.9 3.85 11.9 2.56 7 11.08 24.03 25.55 51.1l64.39 119-48.99 25.2c-56.01-94.97-89.02-158.71-99.05-191.22-10.04-32.52-15.05-50.42-15.05-53.68 0-10.29 1.85-18.37 5.59-24.21 3.73-5.85 7.71-10.18 11.91-12.98 2.8-1.41 5.48-2.46 8.05-3.16 2.55-0.7 4.78-1.05 6.65-1.05 11.2 0 23.45 3.76 36.75 11.31 13.29 7.55 26.95 16.97 40.95 28.29 6.52 6.13 13.3 12.25 20.3 18.38 7 6.12 13.75 12.47 20.3 19.02 2.8 2.8 5.47 5.48 8.05 8.05l8.05 8.05 4.9-2.1c-1.87-2.8-3.5-5.37-4.9-7.7-1.4-2.35-2.8-4.67-4.2-7-1.87-3.74-4.09-7.61-6.65-11.6-2.57-4.01-5.72-9.32-9.45-15.91-0.94-1.89-1.87-3.66-2.81-5.3-0.93-1.66-2.1-3.19-3.49-4.6-5.14-9.91-10.5-19.56-16.11-28.97-5.59-9.42-10.96-19.02-16.09-28.82-12.6-23.33-23.8-46.08-33.6-68.251-9.8-22.161-17.27-42.11-22.4-59.852l58.79-11.898c7.93 23.339 17.74 48.648 29.41 75.949 11.66 27.302 24.26 54.952 37.8 82.952 5.13 10.37 10.15 20.61 15.05 30.75 4.9 10.13 9.91 20.39 15.05 30.77"/><path id="path92" d="m3271.7 1174.2c-22.87-9.34-38.97-15.87-48.3-19.6-9.34-3.74-16.34-5.6-21-5.6-1.86 0-3.39 0.46-4.55 1.4-1.17 0.93-2.22 2.1-3.14 3.5 0 0.93-0.13 1.75-0.35 2.44-0.25 0.71-0.36 1.29-0.36 1.76 0 1.4 0.71 4.3 2.1 8.75 1.4 4.43 6.3 14.35 14.7 29.75 15.86 28.92 27.31 49.58 34.31 61.95 6.99 12.36 10.5 22.51 10.5 30.45 0 14.45-4.1 25.66-12.26 33.59s-17.62 11.91-28.35 11.91c-8.87 0-17.97-2.34-27.29-7-9.35-4.67-18.68-10.75-28-18.2-9.35-7-18.67-15.29-28.01-24.85-9.34-9.57-18.19-19.25-26.59-29.05-5.61-6.54-10.98-12.84-16.11-18.9-5.14-6.07-10.04-11.9-14.69-17.5l-5.61 4.2 126.7 267.4-56.7 19.6c-17.26-40.14-29.64-69.89-37.1-89.25-7.47-19.37-13.77-36.29-18.89-50.75-7.48-21.47-18.33-48.77-32.55-81.9-14.25-33.14-44.45-97.78-90.65-193.9l46.2-15.4v0.7c7.92 9.32 14 16.68 18.2 22.05 4.2 5.36 7.93 10.38 11.2 15.05 1.85 2.33 3.6 4.54 5.24 6.65 1.63 2.1 3.61 4.55 5.95 7.35 48.53 63.45 80.85 101.26 96.95 113.4 16.11 12.13 25.31 18.2 27.65 18.2 2.33 0 4.21-0.47 5.6-1.4 1.4-0.94 2.33-2.1 2.81-3.5 0.46-0.47 0.69-0.94 0.69-1.4v-1.4c0-2.34-0.94-5.6-2.79-9.8-1.88-4.2-5.15-10.97-9.81-20.3-11.2-22.4-21.24-41.65-30.1-57.75-8.87-16.1-13.3-31.62-13.3-46.55 0-10.74 2.46-18.9 7.36-24.5 4.89-5.6 10.37-9.34 16.44-11.2 2.34-0.95 4.55-1.52 6.65-1.75 2.1-0.24 4.09-0.35 5.95-0.35 4.2 0 12.72 2.33 25.56 7 12.82 4.66 36.28 17.02 70.34 37.1l15.4 47.6"/><path id="path94" d="m3359.9 1082.5c3.73 0 7.46 0.23 11.2 0.7 3.72 0.45 7.45 0.93 11.19 1.4 39.21 7.46 75.01 30.45 107.46 68.95 32.43 38.5 48.65 82.25 48.65 131.25v8.05c0 2.56-0.25 5.25-0.7 8.05 0 2.8-0.24 5.48-0.7 8.05-0.47 2.56-0.95 5.25-1.4 8.05l-63-17.5c0.46-4.2 0.81-8.29 1.05-12.25 0.23-3.97 0.35-7.82 0.35-11.55 0-33.6-7-62.65-21-87.15s-29.64-41.65-46.9-51.45c-4.67-3.27-9.34-5.6-14-7.01-4.67-1.39-9.35-2.09-14-2.09-1.4 0-2.8 0.11-4.2 0.35-1.4 0.23-2.57 0.35-3.5 0.35-6.07 1.39-11.44 4.9-16.1 10.5-4.67 5.6-7.01 14.23-7.01 25.89 0 9.81 2.69 21.36 8.06 34.66 5.36 13.3 12.95 26.95 22.75 40.95 13.06 18.2 30.1 35.58 51.1 52.15 21 16.56 45.26 29.28 72.8 38.15l-11.2 40.6c-57.87-20.54-106.87-50.17-147-88.9-40.14-38.74-60.2-80.27-60.2-124.6 0-19.14 5.25-36.52 15.75-52.15 10.5-15.64 30.68-23.45 60.55-23.45"/><path id="path96" d="m3911.5 1174.2c-17.27-8.87-32.67-16.69-46.2-23.45-13.54-6.77-24.26-10.15-32.19-10.15-2.81 0-5.26 0.7-7.36 2.1s-3.15 4.43-3.15 9.1c0 9.33 6.18 27.06 18.55 53.2 12.36 26.13 32.78 66.73 61.25 121.8 3.73 0.46 8.16 0.81 13.3 1.05 5.13 0.23 10.26 0.35 15.4 0.35h10.5 9.8c5.6 0 10.85-0.35 15.75-1.05s9.21-1.52 12.95-2.45c1.86-0.47 3.61-0.94 5.25-1.4 1.63-0.47 3.15-0.94 4.55-1.4l25.2 45.5c-2.34 0.46-4.44 0.93-6.3 1.4-1.87 0.45-3.97 0.93-6.3 1.4-4.67 0.46-9.57 0.81-14.7 1.05-5.14 0.23-11.2 0.35-18.2 0.35h-12.95-11.55c-3.27 0-6.65-0.12-10.15-0.35-3.49-0.24-7.12-0.35-10.85-0.35 4.2 7.93 8.05 14.93 11.55 21 3.5 6.06 6.88 11.9 10.15 17.5 0.93 1.86 1.98 3.6 3.16 5.25 1.15 1.63 2.2 3.37 3.14 5.25 1.87 2.8 3.85 5.71 5.95 8.75 2.1 3.03 4.31 6.18 6.65 9.45l-50.4 18.2c-2.8-4.2-5.37-8.3-7.7-12.25-2.34-3.97-4.67-7.82-7-11.55-0.47-0.94-0.94-1.87-1.4-2.8-0.47-0.94-1.17-1.87-2.1-2.8-4.2-7.94-8.87-16.57-14-25.9-5.14-9.34-11.44-21-18.9-35-12.59-0.48-22.75-1.3-30.45-2.45-7.7-1.17-14.82-2.45-21.35-3.85-0.47 0-0.82-0.12-1.05-0.35-0.24-0.24-0.59-0.35-1.05-0.35-1.4 0-2.69-0.12-3.85-0.35-1.17-0.24-2.22-0.59-3.14-1.06h-1.41c-1.87-0.46-3.85-0.93-5.95-1.39-2.1-0.47-5.25-0.94-9.45-1.4l-9.21-33.07c-4.21 7.86-9.83 14.62-17.03 20.12-13.77 10.5-30.22 15.74-49.35 15.74-31.27 0-56.24-8.28-74.9-24.84-18.67-16.57-28-35.82-28-57.75 0-7.94 1.75-15.87 5.25-23.8 3.5-7.94 7.35-15.64 11.55-23.1 0.46-0.47 0.81-0.94 1.05-1.4 0.23-0.47 0.58-0.94 1.05-1.4 0.46-0.94 1.05-1.87 1.75-2.8 0.7-0.94 1.28-1.87 1.74-2.8 7.01-11.68 13.54-22.52 19.6-32.55 6.07-10.04 9.11-19.49 9.11-28.35 0-1.87-0.12-3.62-0.36-5.25-0.23-1.64-0.58-3.39-1.04-5.25-2.34-7.47-6.9-14.35-13.65-20.65-6.77-6.31-15.75-9.45-26.95-9.45-7.95 0-14 2.21-18.2 6.65-4.2 4.42-6.3 9.68-6.3 15.75 0 3.26 0.46 6.41 1.4 9.45 0.93 3.03 2.33 5.95 4.2 8.75l-58.8-7.7c-1.87-4.2-3.39-8.4-4.55-12.6-1.17-4.2-1.75-8.17-1.75-11.9 0-13.54 5.95-25.32 17.85-35.35s31.38-15.05 58.45-15.05c28.92 0 51.91 6.41 68.95 19.25 17.03 12.83 29.05 27.18 36.05 43.05 2.33 5.6 4.08 11.2 5.25 16.8 1.15 5.6 1.75 10.96 1.75 16.1 0 8.86-1.41 17.61-4.2 26.25-2.8 8.63-6.3 16.68-10.5 24.15-1.87 2.8-3.74 5.71-5.6 8.75-1.87 3.03-3.74 5.95-5.6 8.75-5.14 7.93-9.92 15.63-14.35 23.1-4.44 7.46-6.65 14-6.65 19.6 0 1.4 0.23 2.8 0.7 4.2 0.46 1.39 0.93 2.8 1.4 4.2 2.33 4.2 6.06 8.05 11.2 11.55 5.12 3.5 11.43 5.25 18.9 5.25 1.86 0 4.43-0.35 7.7-1.05 3.26-0.7 6.76-2.22 10.5-4.55 3.26-2.35 6.41-5.37 9.45-9.1 3.03-3.74 5.48-8.87 7.35-15.4l43.4 20.3c-0.86 5.9-2.43 11.25-4.34 16.33 6.5 1.73 13.5 3.42 21.48 5.02 10.5 2.1 23.68 3.38 39.55 3.84-4.67-8.39-10.04-18.32-16.1-29.74-6.07-11.44-12.37-23.69-18.9-36.75-2.34-4.67-4.67-9.58-7-14.7-2.33-5.14-4.67-10.04-7-14.7-9.34-20.55-17.39-40.14-24.15-58.8-6.77-18.67-10.15-33.37-10.15-44.1 0-14.47 3.73-24.97 11.2-31.5 7.46-6.54 16.33-9.8 26.6-9.8 6.06 0 16.33 2.68 30.8 8.05 14.46 5.36 38.03 17.38 70.7 36.05l14.7 47.6"/><path id="path98" d="m4025.6 1224.9c4.2 6.76 9.1 13.41 14.69 19.95 6.54 8.4 13.76 16.56 21.7 24.5 7.93 7.93 15.86 14.7 23.8 20.3 7.46 5.6 14.82 10.03 22.05 13.3 7.24 3.26 13.89 4.9 19.95 4.9 4.2 0 7.24-1.05 9.11-3.15 1.85-2.1 2.8-5.25 2.8-9.45 0-1.4-0.13-2.8-0.35-4.2-0.25-1.4-0.6-2.57-1.06-3.51-0.47-0.93-0.94-1.86-1.39-2.79-0.47-0.94-0.94-1.87-1.4-2.8-1.88-3.27-6.19-9.1-12.95-17.5-6.78-8.4-17.63-17.27-32.56-26.6-8.87-5.6-19.48-11.2-31.84-16.8-12.38-5.6-26.72-10.5-43.05-14.7 2.79 5.6 6.3 11.78 10.5 18.55zm19.6-138.61c14.46 2.57 29.16 6.42 44.1 11.56 10.25 3.73 20.52 7.93 30.8 12.6 10.25 4.66 19.82 10.02 28.7 16.1l15.4 45.5c-6.54-3.74-13.19-7.47-19.95-11.2-6.78-3.74-13.65-7-20.66-9.8-15.4-7-30.34-12.49-44.79-16.45-14.47-3.97-26.6-5.95-36.41-5.95-13.53 0-23.8 2.68-30.8 8.05-6.99 5.36-10.74 12.01-11.2 19.95 0 1.86 0.12 3.5 0.35 4.9 0.24 1.4 0.59 2.8 1.06 4.2 33.59 8.4 61.94 17.38 85.05 26.95 23.09 9.56 42.35 19 57.75 28.35 26.12 16.8 42.8 33.01 50.05 48.65 7.23 15.63 10.85 28.35 10.85 38.15v1.75 1.75c-0.95 10.26-5.84 19.71-14.71 28.35-8.87 8.63-22.64 12.95-41.3 12.95-11.2 0-22.99-1.75-35.35-5.25s-24.84-8.29-37.44-14.35c-29.4-14.94-57.3-36.05-83.65-63.35-26.38-27.3-44.7-56.82-54.95-88.55l-15.4-9.8-15.4-46.2 27.99 17.5c0-18.2 7.36-32.8 22.05-43.75 14.7-10.97 31.38-16.45 50.05-16.45 10.74 0 23.33 1.28 37.81 3.84"/><path id="path100" d="m4255.5 1189.9c4.43 10.5 10.38 21.11 17.85 31.85 7.93 12.13 17.5 24.15 28.7 36.05s22.63 22.28 34.3 31.15c10.26 7.93 20.52 14.35 30.8 19.25 10.26 4.9 19.36 7.35 27.3 7.35 1.86 0 3.73-0.12 5.6-0.35 1.86-0.24 3.5-0.59 4.9-1.05 3.73-0.94 7.46-2.45 11.2-4.55 3.73-2.1 7-5.02 9.8-8.75-3.27-8.87-7.47-18.32-12.6-28.35-5.14-10.04-10.97-20.42-17.5-31.15-11.2-17.27-23.8-33.95-37.8-50.06-14-16.09-28.25-29.04-42.7-38.84-7-4.67-14.12-8.29-21.35-10.85-7.24-2.57-14.12-3.85-20.65-3.85-8.4 0-14.59 2.1-18.55 6.3-3.97 4.2-5.95 10.03-5.95 17.5 0 8.4 2.2 17.85 6.65 28.35zm-72.1-5.95c-3.5-10.74-5.25-21-5.25-30.8 0-21.94 4.55-38.27 13.65-49 9.1-10.75 19.25-17.5 30.45-20.3 1.86-0.47 3.85-0.82 5.95-1.05 2.1-0.24 4.08-0.35 5.95-0.35 13.53 0 31.85 4.9 54.95 14.7s50.75 33.36 82.95 70.7l4.2-2.81c-2.34-4.19-4.55-8.28-6.65-12.24-2.1-3.97-3.85-8.05-5.25-12.25s-2.45-8.29-3.15-12.25c-0.7-3.97-1.05-8.05-1.05-12.25 0-8.87 3.38-16.69 10.15-23.45 6.76-6.77 15.28-10.15 25.55-10.15 6.06 0 14.23 1.86 24.5 5.6 10.26 3.73 21 8.16 32.2 13.3 3.73 1.4 7.23 2.91 10.5 4.55 3.26 1.63 6.3 3.38 9.1 5.25 5.6 2.33 10.73 4.78 15.4 7.35 4.66 2.56 8.86 5.01 12.6 7.35l14 47.6c-28.47-13.54-47.72-22.52-57.75-26.95-10.04-4.44-16.92-6.65-20.65-6.65-2.8 0-5.02 0.7-6.65 2.1-1.64 1.4-2.69 2.8-3.15 4.2-0.47 0.93-0.7 1.75-0.7 2.45v1.75c0 11.2 13.18 44.8 39.55 100.8 26.36 56 64.28 136.03 113.75 240.1l-60.9 18.9c-12.14-30.8-24.74-61.37-37.8-91.7-13.07-30.34-26.37-60.67-39.9-91-2.8 3.26-5.6 6.06-8.4 8.4-2.8 2.33-5.6 4.43-8.4 6.3-7 4.2-13.78 7.11-20.3 8.75-6.54 1.63-11.9 2.45-16.1 2.45-10.74 0-22.17-1.99-34.3-5.95-12.14-3.97-24.5-9.45-37.1-16.45-22.87-12.6-45.04-29.29-66.5-50.05-21.47-20.77-38.5-42.35-51.1-64.75-6.07-10.74-10.85-21.47-14.35-32.2"/><path id="path102" d="m4863.5 1198c11.66 17.26 23.56 32.66 35.7 46.2 16.33 17.73 32.2 31.85 47.6 42.35s28.7 15.75 39.9 15.75c7 0 12.36-2.45 16.1-7.35 3.73-4.9 5.6-11.55 5.6-19.95s-1.99-17.85-5.95-28.35c-3.97-10.5-9.22-21.13-15.75-31.85-8.87-14.47-19.37-28.35-31.5-41.65-12.14-13.3-24.74-24.15-37.8-32.55-7.47-5.14-14.94-9.22-22.4-12.25-7.47-3.04-14.7-4.55-21.7-4.55-9.8 0-17.97 1.28-24.5 3.85-6.54 2.56-12.6 7.58-18.2 15.05 10.26 19.6 21.23 38.03 32.9 55.3zm-49-86.8c3.73-6.54 7.81-11.79 12.25-15.75 4.43-3.97 8.98-7.12 13.65-9.45 4.66-2.35 9.21-3.85 13.65-4.55 4.43-0.7 8.51-1.05 12.25-1.05 11.2 0 22.98 1.87 35.35 5.6 12.35 3.73 24.85 9.09 37.45 16.1 29.86 16.33 57.63 39.08 83.3 68.25 25.66 29.16 42.23 59.61 49.7 91.35 0.93 4.66 1.75 9.45 2.45 14.35s1.05 9.68 1.05 14.35c0 21.93-4.44 38.15-13.3 48.65-8.87 10.5-18.67 17.15-29.4 19.95-2.8 0.93-5.6 1.5-8.4 1.75-2.8 0.23-5.37 0.35-7.7 0.35-9.34 0-23.92-4.2-43.75-12.6-19.84-8.41-46.32-30.57-79.45-66.5l-6.3 3.5 96.6 205.1-56.7 19.6c-15.87-39.68-29.05-71.99-39.55-96.95-10.5-24.97-20.42-48.42-29.75-70.35-4.2-9.8-8.52-19.95-12.95-30.45-4.44-10.5-9.22-21.59-14.35-33.25-5.14-12.6-10.15-24.39-15.05-35.36-4.9-10.96-9.45-21.58-13.65-31.84-0.94-1.4-1.75-2.92-2.45-4.55-0.7-1.64-1.29-3.15-1.75-4.55-7-16.34-14.47-33.02-22.4-50.05-7.95-17.04-17.04-36.52-27.3-58.45l49.7-13.3 16.8 30.1"/><path id="path104" d="m5322.7 1237.5c15.86 29.16 29.39 53.55 40.59 73.15l-48.3 24.5c-0.94-1.87-1.99-3.62-3.14-5.25-1.18-1.64-2.23-3.39-3.16-5.25-33.6-54.61-65.45-96.6-95.54-126-30.11-29.4-51.69-45.05-64.76-46.9h-1.4-1.39-1.41-1.4-1.4c-1.4 0-2.8 0.7-4.2 2.1s-2.1 3.96-2.1 7.7c0 0.93 1.28 4.9 3.86 11.9 2.55 7 11.07 24.03 25.54 51.1l64.4 119-49 25.2c-56-94.97-89.02-158.71-99.05-191.22-10.04-32.52-15.05-50.42-15.05-53.68 0-10.29 1.86-18.37 5.6-24.21 3.73-5.85 7.7-10.18 11.9-12.98 2.8-1.41 5.48-2.46 8.05-3.16 2.56-0.7 4.78-1.05 6.65-1.05 11.2 0 23.46 3.76 36.76 11.31 13.29 7.55 26.94 16.97 40.94 28.29 6.53 6.13 13.31 12.25 20.31 18.38 6.99 6.12 13.75 12.47 20.29 19.02 2.8 2.8 5.48 5.48 8.06 8.05 2.56 2.56 5.24 5.25 8.04 8.05l4.91-2.1c-1.88-2.8-3.51-5.37-4.91-7.7-1.39-2.35-2.8-4.67-4.2-7-1.87-3.74-4.09-7.61-6.65-11.6-2.56-4.01-5.72-9.32-9.45-15.91-0.94-1.89-1.86-3.66-2.8-5.3-0.94-1.66-2.1-3.19-3.5-4.6-5.13-9.91-10.5-19.56-16.1-28.97-5.6-9.42-10.97-19.02-16.1-28.82-12.59-23.33-23.79-46.08-33.6-68.251-9.79-22.161-17.26-42.11-22.4-59.852l58.8-11.898c7.93 23.339 17.73 48.648 29.4 75.949 11.66 27.302 24.26 54.952 37.8 82.952 5.13 10.37 10.15 20.61 15.05 30.75 4.91 10.13 9.92 20.39 15.05 30.77 16.8 33.18 33.13 64.36 49.01 93.53"/></g></g></g></g></svg>
