<?xml version="1.0" encoding="UTF-8" standalone="no"?>
<!-- Generator: Adobe Illustrator 14.0.0, SVG Export Plug-In  -->

<svg
   xmlns:dc="http://purl.org/dc/elements/1.1/"
   xmlns:cc="http://creativecommons.org/ns#"
   xmlns:rdf="http://www.w3.org/1999/02/22-rdf-syntax-ns#"
   xmlns:svg="http://www.w3.org/2000/svg"
   xmlns="http://www.w3.org/2000/svg"
   xmlns:sodipodi="http://sodipodi.sourceforge.net/DTD/sodipodi-0.dtd"
   xmlns:inkscape="http://www.inkscape.org/namespaces/inkscape"
   version="1.1"
   x="0px"
   y="0px"
   width="108"
   height="108"
   viewBox="-0.866 -0.866 108 108"
   enable-background="new -0.866 -0.866 285 285"
   xml:space="preserve"
   id="svg2"
   inkscape:version="0.48.5 r10040"
   sodipodi:docname="ubuntu.svg"><metadata
     id="metadata12"><rdf:RDF><cc:Work
         rdf:about=""><dc:format>image/svg+xml</dc:format><dc:type
           rdf:resource="http://purl.org/dc/dcmitype/StillImage" /></cc:Work></rdf:RDF></metadata><sodipodi:namedview
     pagecolor="#ffffff"
     bordercolor="#666666"
     borderopacity="1"
     objecttolerance="10"
     gridtolerance="10"
     guidetolerance="10"
     inkscape:pageopacity="0"
     inkscape:pageshadow="2"
     inkscape:window-width="1680"
     inkscape:window-height="1011"
     id="namedview10"
     showgrid="false"
     inkscape:zoom="6.6245613"
     inkscape:cx="24.562823"
     inkscape:cy="52.893588"
     inkscape:window-x="0"
     inkscape:window-y="20"
     inkscape:window-maximized="1"
     inkscape:current-layer="svg2" /><defs
     id="defs4" /><path
     d="m 11.185878,43.180315 c -5.4992965,0 -9.955343,4.456046 -9.955343,9.955343 0,5.497193 4.4560465,9.953765 9.955343,9.953765 5.497194,0 9.953766,-4.456572 9.953766,-9.953765 0,-5.499824 -4.456047,-9.955343 -9.953766,-9.955343 z m 71.079458,45.245438 c -4.761709,2.74886 -6.391559,8.834756 -3.643752,13.594357 2.749386,4.76171 8.834756,6.39261 13.596464,3.64375 4.760132,-2.74833 6.391033,-8.834225 3.642173,-13.595408 -2.748333,-4.759603 -8.834755,-6.391033 -13.594885,-3.642699 z M 32.809538,53.13408 c 0,-9.83855 4.889025,-18.528629 12.365396,-23.790657 L 37.896901,17.152166 c -8.712174,5.820743 -15.192644,14.719156 -17.884685,25.141148 3.144485,2.563148 5.153651,6.466265 5.153651,10.841818 0,4.374501 -2.009166,8.277619 -5.154177,10.84024 2.691515,10.423044 9.17251,19.321457 17.884685,25.141674 l 7.278559,-12.19231 C 37.698563,71.66376 32.809538,62.974208 32.809538,53.13408 z m 29.08004,-29.08004 c 15.192118,0 27.653791,11.648324 28.960092,26.50111 l 14.18779,-0.207282 C 104.33934,39.38189 99.549218,29.534398 92.187535,22.296874 c -3.784745,1.429933 -8.157142,1.21318 -11.936101,-0.969072 -3.783693,-2.184357 -6.157971,-5.869144 -6.808228,-9.868011 -3.678474,-1.018 -7.550025,-1.5730314 -11.553101,-1.5730314 -6.884512,0 -13.388656,1.6161704 -19.166259,4.4781424 l 6.916077,12.394857 C 53.363115,25.02732 57.511921,24.05404 61.889578,24.05404 z m 0,58.160606 c -4.378184,0 -8.526463,-0.97328 -12.25018,-2.70572 l -6.91713,12.39591 c 5.778128,2.860919 12.282798,4.477617 19.16731,4.477617 4.003076,0 7.874628,-0.555034 11.553628,-1.573032 0.650257,-3.998868 3.02506,-7.683655 6.809281,-9.86959 3.778959,-2.1812 8.151355,-2.397952 11.9361,-0.967493 7.361156,-7.23805 12.151283,-17.085543 12.848363,-28.05152 L 90.849143,55.713536 C 89.543895,70.568425 77.081696,82.214646 61.889578,82.214646 z M 82.263757,17.84188 c 4.761184,2.749912 10.847605,1.118484 13.595412,-3.641121 C 98.608556,9.4390502 96.978705,3.3531544 92.216996,0.60376817 87.45634,-2.1445647 81.370444,-0.51366214 78.621057,4.2480466 75.872725,9.0076499 77.503627,15.094073 82.263757,17.84188 z"
     id="path8"
     inkscape:connector-curvature="0"
     style="fill:#414141;fill-opacity:1" /></svg>