<?xml version="1.0" encoding="UTF-8" standalone="no"?>
<!-- Created with Inkscape (http://www.inkscape.org/) -->

<svg
   xmlns:dc="http://purl.org/dc/elements/1.1/"
   xmlns:cc="http://creativecommons.org/ns#"
   xmlns:rdf="http://www.w3.org/1999/02/22-rdf-syntax-ns#"
   xmlns:svg="http://www.w3.org/2000/svg"
   xmlns="http://www.w3.org/2000/svg"
   xmlns:sodipodi="http://sodipodi.sourceforge.net/DTD/sodipodi-0.dtd"
   xmlns:inkscape="http://www.inkscape.org/namespaces/inkscape"
   width="108mm"
   height="108mm"
   viewBox="0 0 108 108"
   version="1.1"
   id="svg8"
   inkscape:version="0.92.1 r15371"
   sodipodi:docname="pclinuxos2.svg">
  <defs
     id="defs2" />
  <sodipodi:namedview
     id="base"
     pagecolor="#ffffff"
     bordercolor="#666666"
     borderopacity="1.0"
     inkscape:pageopacity="0.0"
     inkscape:pageshadow="2"
     inkscape:zoom="1.4"
     inkscape:cx="221.77822"
     inkscape:cy="188.9571"
     inkscape:document-units="mm"
     inkscape:current-layer="layer1"
     showgrid="false"
     inkscape:window-width="1280"
     inkscape:window-height="960"
     inkscape:window-x="0"
     inkscape:window-y="27"
     inkscape:window-maximized="1" />
  <metadata
     id="metadata5">
    <rdf:RDF>
      <cc:Work
         rdf:about="">
        <dc:format>image/svg+xml</dc:format>
        <dc:type
           rdf:resource="http://purl.org/dc/dcmitype/StillImage" />
        <dc:title></dc:title>
      </cc:Work>
    </rdf:RDF>
  </metadata>
  <g
     inkscape:label="Layer 1"
     inkscape:groupmode="layer"
     id="layer1"
     transform="translate(0,-189)">
    <path
       style="fill:#333333;stroke-width:0.45457104"
       d="m 46.512467,295.92453 c -5.027628,-0.78587 -8.25241,-1.78971 -13.965483,-4.34724 C 8.1487985,280.65509 -4.8303684,254.53589 1.6033888,229.3064 2.8183466,224.54206 6.0754225,217.22165 8.8588114,212.99956 12.169723,207.97731 19.05001,201.09818 24.076563,197.7844 c 4.305591,-2.8385 11.10851,-5.87828 16.07191,-7.18152 11.858859,-3.11369 26.176104,-1.58006 37.14672,3.97907 17.954274,9.09801 30.351727,29.03746 30.351727,48.81616 0,13.61659 -5.90755,27.77631 -15.655325,37.52413 -11.832499,11.83246 -29.170016,17.55162 -45.479128,15.00229 z m 17.111744,-12.76339 c 11.710692,-2.32989 21.979219,-10.48809 27.44852,-21.80748 2.537786,-5.25221 3.3618,-8.46337 3.616005,-14.09171 0.177194,-3.92301 0.145737,-4.20321 -0.230154,-2.04554 -1.852221,10.63287 -5.357808,18.19406 -11.566906,24.94848 -1.901039,2.068 -5.830858,5.23521 -8.195749,6.6053 -1.343414,0.77826 -1.347077,0.77767 -0.246878,-0.0402 5.299433,-3.93842 7.477215,-5.91782 10.091015,-9.17171 12.483062,-15.54001 11.838272,-37.58537 -1.523476,-52.0863 -5.338455,-5.79358 -10.891097,-9.09295 -18.936689,-11.25193 -4.95237,-1.32896 -14.289252,-1.3171 -19.385807,0.0239 -8.050409,2.11936 -16.156007,7.2688 -21.390336,13.58919 -3.077492,3.71599 -6.691028,10.85781 -7.989725,15.79087 -1.341741,5.09655 -1.353608,14.43344 -0.02389,19.38581 2.141944,7.982 5.435853,13.55781 11.115876,18.81667 11.035043,10.21676 27.696393,13.51971 40.97703,8.12332 1.481427,-0.60199 2.770169,-1.01782 2.863863,-0.92412 0.09358,0.0936 -1.116923,0.68357 -2.690292,1.31088 -3.241188,1.29225 -8.176197,2.40383 -12.861223,2.89691 -2.824641,0.29745 -3.003309,0.36992 -1.591009,0.64539 1.975063,0.38545 6.537725,0.0737 10.520463,-0.71857 z m 7.245706,-4.47219 c 0.104326,-0.0912 0.700775,-0.40926 1.325814,-0.70695 1.07157,-0.51032 1.086064,-0.50084 0.254046,0.16565 -0.724109,0.58016 -2.203664,1.08702 -1.57986,0.54122 z m -4.274491,-18.91136 c -2.347729,-0.75019 -6.218536,-2.87307 -6.218536,-3.4105 0,-0.1103 0.869369,0.12503 1.931939,0.52358 2.960345,1.10975 12.684268,1.36221 15.945963,0.414 2.92172,-0.84934 3.486951,-1.58823 3.486951,-4.55797 0,-1.54179 0.175203,-2.07544 0.68186,-2.07544 0.476196,0 0.681861,0.47981 0.681861,1.591 0,0.87503 0.20467,1.59097 0.454574,1.59097 0.850813,0 0.499888,3.41651 -0.456405,4.44293 -2.201434,2.36298 -11.217216,3.17206 -16.508207,1.48143 z m -40.877244,-0.39951 c -0.936304,-0.41352 -1.703378,-0.88291 -1.704652,-1.04306 -0.0013,-0.16007 1.5181,-0.36793 3.376374,-0.46186 1.858273,-0.094 3.545883,-0.33687 3.750194,-0.5401 0.204272,-0.20308 0.473807,-2.75691 0.598838,-5.67485 l 0.227367,-5.30537 5.000273,-0.50048 c 6.527928,-0.65335 8.639133,-1.34266 10.959864,-3.57822 2.155085,-2.07604 2.879632,-4.09638 2.938922,-8.19471 0.03982,-2.72079 0.04101,-2.7241 0.703921,-1.36372 l 0.6645,1.36372 -0.248471,-1.36372 -0.248471,-1.36372 0.758194,1.36372 c 0.424988,0.7644 0.841495,2.76208 0.947693,4.5457 0.175203,2.9394 0.08322,3.3471 -1.205202,5.34733 -2.494662,3.87308 -6.788306,5.78965 -12.970526,5.78965 -4.406213,0 -4.928559,0.61026 -5.23632,6.11795 -0.205068,3.66685 -0.395403,4.5199 -1.128869,5.05598 -1.174064,0.8581 -5.037822,0.75361 -7.183948,-0.19432 z m 38.483245,-11.14331 c -2.389141,-3.20463 -2.562154,-3.76712 -2.377832,-7.7309 0.252452,-5.42964 2.054741,-8.50893 6.053724,-10.34339 2.095078,-0.96107 4.420349,-1.07041 7.306869,-0.34364 2.082296,0.52434 3.278976,1.37691 1.444236,1.02897 -0.562882,-0.10672 -0.220598,0.11866 0.760742,0.50068 2.634506,1.0259 2.511146,1.12517 -1.0296,0.82832 -5.78415,-0.48492 -9.51563,1.49671 -11.219485,5.95812 -0.939928,2.46121 -0.798969,9.69891 0.212633,10.91781 0.334878,0.40333 0.528319,0.80817 0.430165,0.89963 -0.09795,0.0916 -0.809799,-0.68054 -1.581452,-1.71564 z m -31.098809,-8.45895 c 0,-0.60868 -0.218208,-0.8112 -0.681821,-0.63324 -0.578092,0.22179 -0.681861,-0.43017 -0.681861,-4.28405 0,-4.97778 0.06889,-5.09994 2.878238,-5.095 2.329293,0.004 4.52778,0.79697 6.220924,2.24356 l 1.583244,1.35273 -1.587982,-0.4357 c -4.881572,-1.33935 -6.595462,-0.13976 -6.591998,4.61359 0.0016,2.21123 -0.165647,3.133 -0.568217,3.133 -0.313774,0 -0.570527,-0.40273 -0.570527,-0.89489 z m 48.342473,-9.30817 c 0.221792,-1.51372 0.479939,-3.02091 0.573911,-3.34926 0.244887,-0.85611 1.086462,-0.19711 1.086462,0.85113 0,0.48527 0.20467,0.88231 0.454574,0.88231 0.684927,0 0.54572,3.15578 -0.170823,3.87236 -0.344037,0.34404 -1.012797,0.59617 -1.486285,0.56053 -0.791164,-0.0597 -0.828235,-0.28789 -0.457839,-2.81707 z M 2.1646776,236.40171 C 4.6042294,217.6677 18.59253,200.38546 36.586344,193.87453 c 4.458535,-1.61327 11.881237,-3.20376 14.997831,-3.21359 1.210777,-0.004 2.50828,-0.20507 2.883295,-0.44765 1.086979,-0.70245 -5.071708,-0.5499 -9.988082,0.24728 -11.052922,1.79249 -20.816703,6.82048 -28.692546,14.7756 -7.8095041,7.88814 -13.4651978,19.4394 -14.2562025,29.11717 -0.1513123,1.8494 -0.3647422,4.38531 -0.4742843,5.63539 -0.32333039,3.68517 0.514382,0.97397 1.1083224,-3.58714 z"
       id="path4495"
       inkscape:connector-curvature="0" />
  </g>
</svg>
