<svg xmlns="http://www.w3.org/2000/svg" viewBox="0 0 800 166.8" height="30" width="143.88"><defs><clipPath id="a"><path d="M0 1250.97V0h6000v1250.97z"/></clipPath></defs><g clip-path="url(#a)" fill="#fff" transform="matrix(.13333 0 0 -.13333 0 166.8)"><path d="M1647.17 1099.47h72.18c30.21 0 55.53 17.76 55.53 54.78 0 37.78-25.32 55.15-55.53 55.15h-72.18zm76.32 140.53c49.13 0 86.91-29.09 86.91-85.75 0-56.29-37.78-85.39-86.91-85.39h-75.93V957.406h-34.76V1240h110.69M1903.3 1053.74c0-44.95 28.72-71.767 66.11-71.767 37.41 0 66.12 26.817 66.12 71.767 0 44.97-28.71 71.42-66.12 71.42-37.39 0-66.11-26.45-66.11-71.42zm165.11 0c0-61.205-43.07-100.107-99-100.107-55.9 0-98.98 38.902-98.98 100.107 0 61.22 43.08 99.76 98.98 99.76 55.93 0 99-38.54 99-99.76M2323.76 957.406L2272 1095.31l-51.76-137.904h-26.08l-73.29 192.684h35.51l51.77-139.8 52.13 139.8h23.05l52.52-139.8 52.14 139.8h35.13l-73.3-192.684h-26.06M2509.61 1067.73h116.35c-.75 33.61-19.63 57.43-56.29 57.43-33.25 0-57.8-20.02-60.06-57.43zm0-26.45c1.88-37.02 26.44-59.307 60.43-59.307 28.34 0 47.61 12.843 54.03 34.377l32.5-1.9c-7.94-34.759-41.19-60.817-85.76-60.817-55.17 0-95.59 37.394-95.59 100.107 0 62.73 40.04 99.76 94.82 99.76 55.17 0 88.42-37.41 88.42-94.46v-17.76h-148.85M2833.72 1121c-34.39 0-55.92-23.43-55.92-52.89V957.406h-32.5v192.684h31.75V1121c6.79 15.86 24.93 31.36 56.67 31.36V1121M2927.01 1067.73h116.37c-.75 33.61-19.65 57.43-56.29 57.43-33.25 0-57.8-20.02-60.08-57.43zm0-26.45c1.89-37.02 26.46-59.307 60.46-59.307 28.33 0 47.59 12.843 54.01 34.377l32.5-1.9c-7.93-34.759-41.18-60.817-85.75-60.817-55.17 0-95.6 37.394-95.6 100.107 0 62.73 40.04 99.76 94.84 99.76 55.16 0 88.41-37.41 88.41-94.46v-17.76h-148.87M3182.74 1053.74c0-46.47 27.97-71.767 64.61-71.767 35.52 0 61.96 22.287 61.96 66.097v11.34c0 43.46-26.44 65.75-61.96 65.75-36.64 0-64.61-25.32-64.61-71.42zm128.46-96.334v31.356c-10.94-20.02-35.51-35.129-68.38-35.129-52.9 0-92.94 37.777-92.94 99.737 0 62.34 40.04 100.13 92.94 100.13 32.11 0 55.91-13.99 66.49-32.5v129.97h32.5V957.406h-30.61M3598.65 1059.41v-11.34c0-43.81 26.46-66.097 61.59-66.097 36.66 0 64.61 25.297 64.61 71.767 0 46.1-27.95 71.42-64.61 71.42-35.13 0-61.59-22.29-61.59-65.75zm-.37 61.59c10.95 18.51 34.38 32.5 66.87 32.5 52.89 0 92.95-37.79 92.95-100.13 0-61.96-40.06-99.737-92.95-99.737-33.25 0-57.43 15.109-68.38 35.129v-31.356h-30.99v293.564h32.5V1121M3843.43 861.07l45.71 106.914-76.69 182.106h36.28l58.17-145.47 57.82 145.47h36.27l-121.65-289.02h-35.91M623.895 0v241.629c256.421 0 454.685 253.797 356.796 523.367-36.261 99.852-115.91 179.484-215.769 215.723-269.535 97.811-523.254-100.403-523.289-356.774 0 0-.028-.058-.063-.058H0C0 1032.4 394.66 1350.48 822.734 1216.84c187.066-58.39 335.716-207.04 394.116-394.113C1350.48 394.656 1032.41 0 623.895 0"/><path d="M624.449 241.02H383.535v240.832s.02.039.043.039h240.828c.024 0 .043-.02.043-.02V241.02M383.496 55.9219H198.453l-.043.039V241.02h185.125V55.9609l-.039-.039M198.535 241.02H43.418c-.0625 0-.1094.05-.1094.05v155.039s.0469.114.1094.114h155.008c.062 0 .109-.051.109-.051V241.02" fill-rule="evenodd"/><path d="M1711.27 710.43h54.94c61.13 0 111.45-12.02 149.61-35.766 42.35-25.539 63.84-74.137 63.84-144.43 0-72.402-21.53-123.183-63.99-150.972h-.03c-36.55-24.18-86.56-36.438-148.67-36.438h-55.7zm277.34 36.062c-55.3 38.371-124.12 57.82-204.53 57.82h-175.05V248.941h175.05c80.21 0 149.06 20.536 204.6 60.993 30.22 21.441 53.97 51.414 70.58 89.054 16.53 37.442 24.92 81.606 24.92 131.246 0 49.071-8.39 92.661-24.93 129.571-16.61 37.09-40.38 66.254-70.64 86.687M2206.03 811.152c-16.83 0-31.32-5.972-43-17.66-11.81-11.25-17.8-25.519-17.8-42.387 0-16.828 5.96-31.312 17.73-43.078 11.75-11.765 26.24-17.738 43.07-17.738 16.81 0 31.31 5.973 43.08 17.738 11.78 11.785 17.74 26.27 17.74 43.078 0 16.848-5.99 31.118-17.74 42.309-11.77 11.766-26.27 17.738-43.08 17.738M2155.87 248.941h98.4297v391.156H2155.87zM2585.93 376.406c-17.2-19.531-39.29-29.008-67.52-29.008-28.22 0-50.18 9.477-67.13 28.989-16.88 19.41-25.44 45.144-25.44 76.5 0 31.843 8.56 57.918 25.45 77.465 16.72 19.351 39.3 29.168 67.12 29.168 28.21 0 50.3-9.54 67.51-29.208 17.14-19.546 25.83-45.601 25.83-77.425 0-31.332-8.69-57.071-25.82-76.481zm25.82 231.012c-29.68 26.406-62.83 41.805-98.66 41.805-54.33 0-99.49-18.801-134.2-55.828-35.17-36.735-53-84.008-53-140.508 0-55.219 17.55-102.336 52.25-140.114 34.97-36.554 80.37-55.082 134.95-55.082 37.94 0 70.57 10.563 97.14 31.434v-9.008c0-32.457-8.69-57.695-25.82-75.039-17.12-17.328-40.86-26.098-70.55-26.098-45.44 0-73.91 17.86-108.58 64.711l-67.02-64.39 1.8-2.539c14.48-20.321 36.65-40.203 65.92-59.102 29.28-18.8202 66.08-28.3788 109.39-28.3788 58.43 0 105.71 18.0078 140.51 53.5198 35.01 35.711 52.77 83.519 52.77 142.066v355.231h-96.9v-32.68M2792.88 248.941h98.4297v391.156H2792.88zM2843.04 811.152c-16.83 0-31.32-5.972-43-17.66-11.81-11.25-17.8-25.519-17.8-42.387 0-16.828 5.96-31.312 17.73-43.078 11.75-11.765 26.24-17.738 43.07-17.738 16.81 0 31.31 5.973 43.08 17.738 11.78 11.785 17.74 26.27 17.74 43.078 0 16.848-5.99 31.118-17.74 42.309-11.77 11.766-26.27 17.738-43.08 17.738M3107.04 745.785h-96.9V640.098h-56.26v-89.703h56.26V387.914c0-50.844 10.16-87.223 30.2-108.109 20.1-20.989 55.78-31.633 106.06-31.633 15.99 0 32.08.539 47.82 1.558l4.43.301v89.641l-33.74-1.774c-23.44 0-39.08 4.118-46.52 12.219-7.53 8.238-11.35 25.656-11.35 51.75v148.528h91.61v89.703h-91.61v105.687M3660.17 248.941h98.4297v555.371H3660.17zM4752.98 388.809c-17.61-19.735-35.62-36.84-49.49-45.727v-.02c-13.61-8.73-30.79-13.164-51.04-13.164-29 0-52.33 10.563-71.32 32.317-18.89 21.64-28.48 49.445-28.48 82.691 0 33.242 9.46 61.008 28.11 82.492 18.74 21.618 41.95 32.122 70.93 32.122 31.7 0 65.12-19.711 93.77-53.575l65.05 62.383c-42.42 55.203-96.52 80.895-161.1 80.895-54.04 0-100.89-19.688-139.23-58.489-38.14-38.527-57.48-87.597-57.48-145.828 0-58.234 19.32-107.422 57.43-146.203 38.13-38.824 85-58.512 139.28-58.512 71.27 0 128.78 30.77 167.56 87.129l-63.99 61.489M4941.83 493.363c4.73 18.703 13.36 34.289 25.69 46.391 13.35 13.125 30.71 19.766 51.61 19.766 23.86 0 42.33-6.782 54.89-20.2 11.64-12.418 18.22-27.867 19.59-45.957zm215.12 92.09c-13.96 19.449-32.97 35.098-56.52 46.547-23.48 11.43-50.84 17.223-81.32 17.223-54.95 0-99.91-20.278-133.66-60.282-32.77-39.711-49.37-89.054-49.37-146.695 0-59.277 18.22-108.348 54.15-145.828 35.74-37.309 83.58-56.227 142.18-56.227 66.37 0 120.84 26.844 161.88 79.793l2.22 2.848-64.22 61.707c-5.95-7.176-14.38-15.32-22.08-22.578-9.72-9.172-18.86-16.262-28.61-21.121-14.72-7.328-31.21-10.942-49.67-10.942-27.28 0-49.86 8.02-67.13 23.844-16.14 14.801-25.58 34.762-28.09 59.414h260.77l.88 35.926c0 25.422-3.46 49.918-10.29 72.816-6.83 22.938-17.3 44.321-31.12 63.555M5360.19 398.418c11.16 7.781 26.94 11.703 46.89 11.703 23.7 0 48.82-4.746 74.72-14.148v-38.368c-21.4-19.882-49.97-29.972-84.97-29.972-17.04 0-30.28 3.781-39.38 11.269-8.94 7.332-13.28 16.653-13.28 28.457 0 13.422 5.24 23.59 16.02 31.059zm174.76 212.414h-.01c-29.83 25.465-71.07 38.391-122.54 38.391-32.75 0-63.37-7.2-91.08-21.243-25.63-12.992-50.8-34.519-66.78-62.691l.99-1.199 63.02-60.336c25.96 41.394 54.83 55.766 93.1 55.766 20.56 0 37.64-5.52 50.75-16.399 13.05-10.797 19.4-24.531 19.4-41.953v-18.996c-24.41 7.426-48.75 11.191-72.44 11.191-48.98 0-88.83-11.527-118.44-34.25-29.98-23.015-45.19-55.925-45.19-97.843 0-36.75 12.82-66.61 38.19-88.797 25.58-21.403 57.56-32.282 95.04-32.282 37.47 0 72.53 15.106 104.35 40.961v-32.211h96.92v251.457c0 47.614-15.23 84.758-45.28 110.434M5958.87 603.168c-27.41 30.547-65.94 46.055-114.52 46.055-39.04 0-70.76-11.215-94.48-33.344v24.219h-96.53V248.941h98.44v215.731c0 29.637 7.05 53.168 20.95 69.957 13.88 16.75 32.95 24.891 58.32 24.891 22.29 0 39.19-7.274 51.66-22.231 12.52-15.035 18.87-35.746 18.87-61.601V248.941H6000v226.747c0 54.171-13.83 97.054-41.13 127.48M3361.71 398.418c11.16 7.781 26.94 11.703 46.89 11.703 23.7 0 48.82-4.746 74.72-14.148v-38.368c-21.39-19.882-49.97-29.972-84.97-29.972-17.03 0-30.28 3.781-39.38 11.269-8.94 7.332-13.28 16.653-13.28 28.457 0 13.422 5.24 23.59 16.02 31.059zm174.76 212.414h-.01c-29.83 25.465-71.07 38.391-122.54 38.391-32.75 0-63.37-7.2-91.08-21.243-25.63-12.992-50.8-34.519-66.78-62.691l.99-1.199 63.02-60.336c25.96 41.394 54.83 55.766 93.1 55.766 20.57 0 37.64-5.52 50.76-16.399 13.04-10.797 19.39-24.531 19.39-41.953v-18.996c-24.41 7.426-48.75 11.191-72.43 11.191-48.98 0-88.84-11.527-118.45-34.25-29.98-23.015-45.19-55.925-45.19-97.843 0-36.75 12.82-66.61 38.19-88.797 25.58-21.403 57.56-32.282 95.04-32.282 37.47 0 72.53 15.106 104.36 40.961v-32.211h96.91v251.457c0 47.614-15.23 84.758-45.28 110.434M4115.72 712.277c-102.23 0-185.4-83.16-185.4-185.398s83.17-185.399 185.4-185.399 185.4 83.161 185.4 185.399-83.17 185.398-185.4 185.398zm0-471.699c-157.87 0-286.3 128.43-286.3 286.301 0 157.867 128.43 286.297 286.3 286.297s286.3-128.43 286.3-286.297c0-157.871-128.43-286.301-286.3-286.301"/></g></svg>