<?xml version="1.0" encoding="UTF-8" standalone="no"?>
<svg
   xmlns:dc="http://purl.org/dc/elements/1.1/"
   xmlns:cc="http://creativecommons.org/ns#"
   xmlns:rdf="http://www.w3.org/1999/02/22-rdf-syntax-ns#"
   xmlns:svg="http://www.w3.org/2000/svg"
   xmlns="http://www.w3.org/2000/svg"
   xmlns:sodipodi="http://sodipodi.sourceforge.net/DTD/sodipodi-0.dtd"
   xmlns:inkscape="http://www.inkscape.org/namespaces/inkscape"
   width="96.000008"
   height="96"
   viewBox="0 0 96.000008 96"
   id="svg2"
   version="1.1"
   inkscape:version="0.48.5 r10040"
   sodipodi:docname="twitter.svg">
  <metadata
     id="metadata10">
    <rdf:RDF>
      <cc:Work
         rdf:about="">
        <dc:format>image/svg+xml</dc:format>
        <dc:type
           rdf:resource="http://purl.org/dc/dcmitype/StillImage" />
      </cc:Work>
    </rdf:RDF>
  </metadata>
  <defs
     id="defs8" />
  <sodipodi:namedview
     pagecolor="#ffffff"
     bordercolor="#666666"
     borderopacity="1"
     objecttolerance="10"
     gridtolerance="10"
     guidetolerance="10"
     inkscape:pageopacity="0"
     inkscape:pageshadow="2"
     inkscape:window-width="1680"
     inkscape:window-height="1011"
     id="namedview6"
     showgrid="false"
     inkscape:zoom="1.489975"
     inkscape:cx="-157.35714"
     inkscape:cy="120.7104"
     inkscape:window-x="0"
     inkscape:window-y="20"
     inkscape:window-maximized="1"
     inkscape:current-layer="svg2"
     fit-margin-top="0"
     fit-margin-left="0"
     fit-margin-right="0"
     fit-margin-bottom="0" />
  <path
     d="m 96.00001,18.27405 q -4.08122,5.9696 -9.86802,10.1726 0.0609,0.8528 0.0609,2.5584 0,7.9188 -2.31472,15.8071 -2.31472,7.8883 -7.03553,15.1371 -4.72081,7.2487 -11.23858,12.8223 -6.51777,5.5736 -15.71574,8.8934 -9.19796,3.3198 -19.67512,3.3198 -16.50762,0 -30.2132,-8.8325 2.13198,0.2437 4.75127,0.2437 13.70558,0 24.42639,-8.4061 -6.39593,-0.1219 -11.45177,-3.929 -5.05584,-3.8071 -6.94416,-9.7157 2.01015,0.3046 3.71573,0.3046 2.61929,0 5.17767,-0.6701 -6.82234,-1.401 -11.2995,-6.7919 -4.47715,-5.3908 -4.47715,-12.5177 v -0.2437 q 4.14213,2.3147 8.8934,2.4975 -4.02031,-2.6802 -6.39594,-7.0051 -2.37564,-4.3249 -2.37564,-9.3807 0,-5.3604 2.68021,-9.9289 7.37056,9.0761 17.93908,14.5279 10.56853,5.4518 22.62945,6.0609 -0.48731,-2.3147 -0.48731,-4.5076 0,-8.1625 5.75634,-13.9188 5.75635,-5.7563 13.91878,-5.7563 8.52792,0 14.37564,6.2132 6.63959,-1.2792 12.48731,-4.7513 -2.25381,7.0051 -8.64975,10.8426 Q 90.33503,20.71065 96,18.27405 z"
     id="path4"
     style="fill:#414141;fill-opacity:1;stroke:none"
     inkscape:connector-curvature="0" />
</svg>
