<?xml version="1.0" encoding="UTF-8" standalone="no"?>
<!-- Generator: Adobe Illustrator 15.0.0, SVG Export Plug-In . SVG Version: 6.00 Build 0)  -->

<svg
   xmlns:dc="http://purl.org/dc/elements/1.1/"
   xmlns:cc="http://creativecommons.org/ns#"
   xmlns:rdf="http://www.w3.org/1999/02/22-rdf-syntax-ns#"
   xmlns:svg="http://www.w3.org/2000/svg"
   xmlns="http://www.w3.org/2000/svg"
   xmlns:sodipodi="http://sodipodi.sourceforge.net/DTD/sodipodi-0.dtd"
   xmlns:inkscape="http://www.inkscape.org/namespaces/inkscape"
   version="1.1"
   id="Layer_1"
   x="0px"
   y="0px"
   width="90px"
   height="109px"
   viewBox="-1 -1 92 111"
   enable-background="new 0 0 90 109"
   xml:space="preserve"
   inkscape:version="0.48.5 r10040"
   sodipodi:docname="android_dark.svg"><metadata
     id="metadata11"><rdf:RDF><cc:Work
         rdf:about=""><dc:format>image/svg+xml</dc:format><dc:type
           rdf:resource="http://purl.org/dc/dcmitype/StillImage" /></cc:Work></rdf:RDF></metadata><defs
     id="defs9" /><sodipodi:namedview
     pagecolor="#ffffff"
     bordercolor="#666666"
     borderopacity="1"
     objecttolerance="10"
     gridtolerance="10"
     guidetolerance="10"
     inkscape:pageopacity="0"
     inkscape:pageshadow="2"
     inkscape:window-width="1680"
     inkscape:window-height="1011"
     id="namedview7"
     showgrid="false"
     inkscape:snap-bbox="false"
     inkscape:zoom="7.2407734"
     inkscape:cx="-26.766297"
     inkscape:cy="18.872607"
     inkscape:window-x="0"
     inkscape:window-y="20"
     inkscape:window-maximized="1"
     inkscape:current-layer="Layer_1" /><path
     inkscape:connector-curvature="0"
     style="fill:none;stroke:#414141;stroke-opacity:1"
     id="path5"
     d="m 71.574,41.851 c 0,-4.685 0.074,-10.553 -0.033,-15.237 C 71.494,24.596 71.273,22.538 70.795,20.58 67.374,6.581 53.823,-2.125 39.594,0.45 26.998,2.729 17.621,13.968 17.621,26.786 l 0,13.865 0,1.17 c -0.475,0 -0.794,-10e-4 -1.116,0 l -11.482,0 C 2.25,41.821 0,44.07 0,46.844 l 0,56.875 c 0,2.773 2.25,5.023 5.023,5.023 l 79.451,0 c 2.775,0 5.024,-2.25 5.024,-5.023 l 0,-56.875 c 0,-2.774 -2.249,-5.023 -5.024,-5.023 z m -9.795,-8.747 c -1.562,4.611 -4.52,8.305 -7.61,11.912 -2.386,2.783 -5.19,5.125 -8.176,7.247 -0.144,0.103 -0.298,0.188 -0.685,0.427 1.781,-3.076 3.217,-5.998 3.633,-9.404 -4.234,1.002 -8.227,0.564 -12.093,-1.14 -6.862,-3.023 -10.963,-9.618 -10.263,-17.063 0.573,-6.127 3.94,-10.543 9.321,-13.395 8.667,-4.593 19.734,-1.655 24.689,6.516 2.887,4.758 2.932,9.741 1.184,14.9"
     sodipodi:nodetypes="ccccscccssssssscccccccccccc" /><path
     inkscape:connector-curvature="0"
     d="m 40.395725,63.975603 q 0.380598,0 0.654156,-0.273554 0.27355,-0.273554 0.27355,-0.65415 0,-0.380598 -0.27355,-0.654152 -0.273558,-0.273554 -0.654156,-0.273554 -0.380598,0 -0.642255,0.273554 -0.261666,0.273554 -0.261666,0.654152 0,0.380596 0.261666,0.65415 0.261657,0.273554 0.642255,0.273554 z m 10.038244,0 q 0.380598,0 0.642256,-0.273554 0.261665,-0.273554 0.261665,-0.65415 0,-0.380598 -0.261665,-0.654152 -0.261658,-0.273554 -0.642256,-0.273554 -0.380598,0 -0.654147,0.273554 -0.273558,0.273554 -0.273558,0.654152 0,0.380596 0.273558,0.65415 0.273549,0.273554 0.654147,0.273554 z m -19.315293,4.376866 q 0.999068,0 1.712686,0.71362 0.713618,0.713618 0.713618,1.712686 v 10.228543 q 0,1.022852 -0.701725,1.736473 -0.701726,0.713619 -1.724579,0.713619 -1.022853,0 -1.736471,-0.713619 -0.713626,-0.713621 -0.713626,-1.736473 V 70.778775 q 0,-0.999068 0.713626,-1.712686 0.713618,-0.71362 1.736471,-0.71362 z m 25.214547,0.451959 v 15.842345 q 0,1.094216 -0.761195,1.855412 -0.761196,0.761195 -1.831619,0.761195 h -1.784048 v 5.399721 q 0,1.02285 -0.713626,1.73647 -0.713618,0.71362 -1.736471,0.71362 -1.022854,0 -1.736471,-0.71362 -0.713618,-0.71362 -0.713618,-1.73647 V 87.26338 h -3.282647 v 5.399721 q 0,1.02285 -0.713626,1.73647 -0.713618,0.71362 -1.736471,0.71362 -0.999069,0 -1.712687,-0.71362 -0.713617,-0.71362 -0.713617,-1.73647 l -0.02378,-5.399721 h -1.760269 q -1.094216,0 -1.855404,-0.761195 -0.761195,-0.761196 -0.761195,-1.855412 V 68.804428 h 21.836744 z m -5.518656,-9.63386 q 2.545245,1.308302 4.067636,3.651352 1.522383,2.34305 1.522383,5.126166 H 34.401323 q 0,-2.783116 1.522392,-5.126166 1.522383,-2.34305 4.091412,-3.651352 l -1.688893,-3.116137 q -0.166518,-0.309235 0.118932,-0.475748 0.309235,-0.142724 0.475745,0.142725 l 1.712687,3.139925 q 2.259794,-0.999066 4.781253,-0.999066 2.521452,0 4.781246,0.999066 l 1.712686,-3.139925 q 0.16651,-0.285449 0.475745,-0.142725 0.28545,0.166513 0.11894,0.475748 z m 11.346548,11.608207 v 10.228543 q 0,1.022852 -0.713618,1.736473 -0.713618,0.713619 -1.736479,0.713619 -0.99906,0 -1.712686,-0.713619 -0.713618,-0.713621 -0.713618,-1.736473 V 70.778775 q 0,-1.022855 0.713618,-1.724581 0.713626,-0.701725 1.712686,-0.701725 1.022861,0 1.736479,0.701725 0.713618,0.701726 0.713618,1.724581 z"
     id="path4"
     style="fill:#414141;fill-opacity:1" /></svg>