<?xml version="1.0" encoding="UTF-8" standalone="no"?>
<!-- Generator: Adobe Illustrator 15.0.0, SVG Export Plug-In . SVG Version: 6.00 Build 0)  -->

<svg
   xmlns:dc="http://purl.org/dc/elements/1.1/"
   xmlns:cc="http://creativecommons.org/ns#"
   xmlns:rdf="http://www.w3.org/1999/02/22-rdf-syntax-ns#"
   xmlns:svg="http://www.w3.org/2000/svg"
   xmlns="http://www.w3.org/2000/svg"
   xmlns:sodipodi="http://sodipodi.sourceforge.net/DTD/sodipodi-0.dtd"
   xmlns:inkscape="http://www.inkscape.org/namespaces/inkscape"
   version="1.1"
   id="Layer_1"
   x="0px"
   y="0px"
   width="90px"
   height="109px"
   viewBox="-1 -1 92 111"
   enable-background="new 0 0 90 109"
   xml:space="preserve"
   inkscape:version="0.48.5 r10040"
   sodipodi:docname="android.svg"><metadata
     id="metadata11"><rdf:RDF><cc:Work
         rdf:about=""><dc:format>image/svg+xml</dc:format><dc:type
           rdf:resource="http://purl.org/dc/dcmitype/StillImage" /></cc:Work></rdf:RDF></metadata><defs
     id="defs9" /><sodipodi:namedview
     pagecolor="#ffffff"
     bordercolor="#666666"
     borderopacity="1"
     objecttolerance="10"
     gridtolerance="10"
     guidetolerance="10"
     inkscape:pageopacity="0"
     inkscape:pageshadow="2"
     inkscape:window-width="1680"
     inkscape:window-height="1011"
     id="namedview7"
     showgrid="false"
     inkscape:snap-bbox="false"
     inkscape:zoom="7.2407734"
     inkscape:cx="-4.385324"
     inkscape:cy="18.874819"
     inkscape:window-x="0"
     inkscape:window-y="20"
     inkscape:window-maximized="1"
     inkscape:current-layer="Layer_1" /><path
     inkscape:connector-curvature="0"
     style="fill:none;stroke:#c4d2df;stroke-opacity:1"
     id="path5"
     d="m 71.574,41.851 c 0,-4.685 0.074,-10.553 -0.033,-15.237 C 71.494,24.596 71.273,22.538 70.795,20.58 67.374,6.581 53.823,-2.125 39.594,0.45 26.998,2.729 17.621,13.968 17.621,26.786 l 0,13.865 0,1.17 c -0.475,0 -0.794,-10e-4 -1.116,0 l -11.482,0 C 2.25,41.821 0,44.07 0,46.844 l 0,56.875 c 0,2.773 2.25,5.023 5.023,5.023 l 79.451,0 c 2.775,0 5.024,-2.25 5.024,-5.023 l 0,-56.875 c 0,-2.774 -2.249,-5.023 -5.024,-5.023 z m -9.795,-8.747 c -1.562,4.611 -4.52,8.305 -7.61,11.912 -2.386,2.783 -5.19,5.125 -8.176,7.247 -0.144,0.103 -0.298,0.188 -0.685,0.427 1.781,-3.076 3.217,-5.998 3.633,-9.404 -4.234,1.002 -8.227,0.564 -12.093,-1.14 -6.862,-3.023 -10.963,-9.618 -10.263,-17.063 0.573,-6.127 3.94,-10.543 9.321,-13.395 8.667,-4.593 19.734,-1.655 24.689,6.516 2.887,4.758 2.932,9.741 1.184,14.9"
     sodipodi:nodetypes="ccccscccssssssscccccccccccc" /><path
     inkscape:connector-curvature="0"
     d="m 38.653387,63.714208 q 0.47525,0 0.81684,-0.341585 0.34158,-0.341585 0.34158,-0.816833 0,-0.47525 -0.34158,-0.816835 -0.34159,-0.341585 -0.81684,-0.341585 -0.47525,0 -0.80198,0.341585 -0.32674,0.341585 -0.32674,0.816835 0,0.475248 0.32674,0.816833 0.32673,0.341585 0.80198,0.341585 z m 12.53469,0 q 0.47525,0 0.80198,-0.341585 0.32674,-0.341585 0.32674,-0.816833 0,-0.47525 -0.32674,-0.816835 -0.32673,-0.341585 -0.80198,-0.341585 -0.47525,0 -0.81683,0.341585 -0.34159,0.341585 -0.34159,0.816835 0,0.475248 0.34159,0.816833 0.34158,0.341585 0.81683,0.341585 z m -24.11888,5.465364 q 1.24753,0 2.13862,0.891093 0.89109,0.89109 0.89109,2.138619 v 12.772315 q 0,1.277229 -0.87624,2.168322 -0.87624,0.891092 -2.15347,0.891092 -1.27723,0 -2.16832,-0.891092 -0.8911,-0.891093 -0.8911,-2.168322 V 72.209284 q 0,-1.247529 0.8911,-2.138619 0.89109,-0.891093 2.16832,-0.891093 z m 31.48524,0.564358 v 19.782233 q 0,1.36634 -0.9505,2.31684 -0.9505,0.9505 -2.28713,0.9505 h -2.22773 v 6.742599 q 0,1.277228 -0.8911,2.168318 -0.89109,0.89109 -2.16832,0.89109 -1.27723,0 -2.16832,-0.89109 -0.89109,-0.89109 -0.89109,-2.168318 v -6.742599 h -4.09902 v 6.742599 q 0,1.277228 -0.8911,2.168318 -0.89109,0.89109 -2.16832,0.89109 -1.24753,0 -2.13862,-0.89109 -0.89109,-0.89109 -0.89109,-2.168318 l -0.0297,-6.742599 h -2.19803 q -1.36634,0 -2.31683,-0.9505 -0.9505,-0.9505 -0.9505,-2.31684 V 69.74393 h 27.2674 z m -6.89111,-12.029738 q 3.17823,1.633668 5.07923,4.55942 1.90099,2.925751 1.90099,6.401009 h -27.47533 q 0,-3.475258 1.901,-6.401009 1.90099,-2.925752 5.10892,-4.55942 l -2.10891,-3.8911 q -0.20793,-0.38614 0.14851,-0.594063 0.38614,-0.178218 0.59406,0.17822 l 2.13862,3.920804 q 2.82179,-1.247528 5.97032,-1.247528 3.14852,0 5.97031,1.247528 l 2.13862,-3.920804 q 0.20792,-0.356438 0.59406,-0.17822 0.35644,0.207923 0.14852,0.594063 z m 14.16836,14.495092 v 12.772315 q 0,1.277229 -0.89109,2.168322 -0.89109,0.891092 -2.16833,0.891092 -1.24752,0 -2.13862,-0.891092 -0.89109,-0.891093 -0.89109,-2.168322 V 72.209284 q 0,-1.277232 0.89109,-2.153473 0.8911,-0.876239 2.13862,-0.876239 1.27724,0 2.16833,0.876239 0.89109,0.876241 0.89109,2.153473 z"
     id="path4"
     style="fill:#c4d2df;fill-opacity:1" /></svg>