<?xml version="1.0" encoding="UTF-8" standalone="no"?>
<!-- Generator: Adobe Illustrator 15.0.0, SVG Export Plug-In . SVG Version: 6.00 Build 0)  -->

<svg
   xmlns:dc="http://purl.org/dc/elements/1.1/"
   xmlns:cc="http://creativecommons.org/ns#"
   xmlns:rdf="http://www.w3.org/1999/02/22-rdf-syntax-ns#"
   xmlns:svg="http://www.w3.org/2000/svg"
   xmlns="http://www.w3.org/2000/svg"
   xmlns:sodipodi="http://sodipodi.sourceforge.net/DTD/sodipodi-0.dtd"
   xmlns:inkscape="http://www.inkscape.org/namespaces/inkscape"
   version="1.1"
   id="Layer_1"
   x="0px"
   y="0px"
   width="90px"
   height="109px"
   viewBox="-1 -1 92 111"
   enable-background="new 0 0 90 109"
   xml:space="preserve"
   inkscape:version="0.48.5 r10040"
   sodipodi:docname="android.svg"><metadata
     id="metadata11"><rdf:RDF><cc:Work
         rdf:about=""><dc:format>image/svg+xml</dc:format><dc:type
           rdf:resource="http://purl.org/dc/dcmitype/StillImage" /></cc:Work></rdf:RDF></metadata><defs
     id="defs9" /><sodipodi:namedview
     pagecolor="#ffffff"
     bordercolor="#666666"
     borderopacity="1"
     objecttolerance="10"
     gridtolerance="10"
     guidetolerance="10"
     inkscape:pageopacity="0"
     inkscape:pageshadow="2"
     inkscape:window-width="1278"
     inkscape:window-height="595"
     id="namedview7"
     showgrid="false"
     inkscape:snap-bbox="false"
     inkscape:zoom="4.3302752"
     inkscape:cx="3.8196553"
     inkscape:cy="32.491211"
     inkscape:window-x="0"
     inkscape:window-y="24"
     inkscape:window-maximized="0"
     inkscape:current-layer="Layer_1" /><path
     inkscape:connector-curvature="0"
     style="fill:none;stroke:#c4d2df;stroke-opacity:1"
     id="path5"
     d="m 71.574,41.851 c 0,-4.685 0.074,-10.553 -0.033,-15.237 C 71.494,24.596 71.273,22.538 70.795,20.58 67.374,6.581 53.823,-2.125 39.594,0.45 26.998,2.729 17.621,13.968 17.621,26.786 v 13.865 1.17 c -0.475,0 -0.794,-10e-4 -1.116,0 H 5.023 C 2.25,41.821 0,44.07 0,46.844 v 56.875 c 0,2.773 2.25,5.023 5.023,5.023 h 79.451 c 2.775,0 5.024,-2.25 5.024,-5.023 V 46.844 c 0,-2.774 -2.249,-5.023 -5.024,-5.023 l -12.9,0.03 z M 52.107,95.118 H 37.332 c -2.322,0 -4.203,-1.914 -4.203,-4.274 0,-0.063 0.007,-0.127 0.009,-0.19 -0.005,0 -0.006,-1.021 -0.008,-2.041 -0.001,-1.129 0.511,-4.289 2.061,-6.574 1.641,-2.418 3.855,-3.99 6.257,-4.697 -3.166,-1.291 -5.396,-4.398 -5.396,-8.025 0,-4.789 3.88,-8.668 8.667,-8.668 4.789,0 8.667,3.879 8.667,8.668 0,3.719 -2.344,6.891 -5.637,8.12 2.332,0.753 4.537,2.313 6.273,4.707 1.621,2.235 2.285,5.343 2.285,6.47 v 2.043 c -0.006,0.062 0,0.125 0,0.189 10e-4,2.358 -1.88,4.272 -4.2,4.272 m 9.672,-62.014 c -1.562,4.611 -4.52,8.305 -7.61,11.912 -2.386,2.783 -5.19,5.125 -8.176,7.247 -0.144,0.103 -0.298,0.188 -0.685,0.427 1.781,-3.076 3.217,-5.998 3.633,-9.404 -4.234,1.002 -8.227,0.564 -12.093,-1.14 -6.862,-3.023 -10.963,-9.618 -10.263,-17.063 0.573,-6.127 3.94,-10.543 9.321,-13.395 8.667,-4.593 19.734,-1.655 24.689,6.516 2.887,4.758 2.932,9.741 1.184,14.9" /><path
     style="fill:none;stroke:#000000;stroke-width:1px;stroke-linecap:butt;stroke-linejoin:miter;stroke-opacity:1"
     d="m 27.480932,66.277542 c 0.310925,-0.829435 0.807294,-1.269158 1.385593,-1.847457 0.153955,-0.153955 0.325853,-0.29185 0.461865,-0.461865 0.173381,-0.216727 0.288483,-0.476069 0.461864,-0.692796 0.136012,-0.170015 0.341093,-0.280707 0.461865,-0.461865 0.0427,-0.06405 -0.05443,-0.176501 0,-0.230932 0.866345,-0.866345 0.425742,-0.146107 1.154661,-0.692797 0.17418,-0.130634 0.291849,-0.325852 0.461864,-0.461864 0.216727,-0.173382 0.461864,-0.30791 0.692797,-0.461864 0.230932,-0.153955 0.444552,-0.337742 0.692796,-0.461865 0.217725,-0.108862 0.475072,-0.122069 0.692797,-0.230932 0.496489,-0.248245 0.875383,-0.705067 1.385593,-0.923729 0.291724,-0.125024 0.632005,-0.105908 0.923729,-0.230932 0.255105,-0.109331 0.461864,-0.30791 0.692797,-0.461864 0.307909,-0.07698 0.62263,-0.130566 0.923728,-0.230933 0.163294,-0.05443 0.29208,-0.202634 0.461865,-0.230932 0.30372,-0.05062 0.618197,0.03819 0.923729,0 0.62987,-0.07873 1.219065,-0.372094 1.847457,-0.461864 0.228611,-0.03266 0.464186,0.03266 0.692797,0 0.314196,-0.04489 0.608794,-0.191566 0.923729,-0.230932 0.305532,-0.03819 0.618197,0.03819 0.923728,0 0.314936,-0.03937 0.608285,-0.195883 0.923729,-0.230933 0.382533,-0.0425 0.769774,0 1.154661,0 0.769774,0 1.539548,0 2.309322,0 0.692797,0 1.385594,0 2.07839,0 0.153955,0 0.310899,-0.03019 0.461865,0 0.463744,-0.05299 0.752502,0.361325 1.154661,0.461865 0.149358,0.03734 0.318921,-0.05718 0.461864,0 0.257695,0.103078 0.444552,0.337742 0.692797,0.461864 0.217725,0.108863 0.475071,0.12207 0.692796,0.230932 0.947718,0.473859 0.438678,0.350942 1.154661,0.923729 1.456591,1.165273 0.03948,-0.191448 1.154661,0.923729 0.07698,0.07698 0.170546,0.140353 0.230932,0.230932 0.09548,0.143218 0.127657,0.324163 0.230933,0.461865 0.130635,0.17418 0.349845,0.275166 0.461864,0.461864 0.125241,0.208734 0.140527,0.466783 0.230932,0.692797 0.06393,0.159815 0.189186,0.294877 0.230932,0.461864 0.03734,0.149358 -0.03734,0.312506 0,0.461865 0.07698,0.153954 0.153955,0.307909 0.230933,0.461864 0.07698,0 0.188232,-0.06405 0.230932,0 0.478398,0.717597 0.105212,0.52606 0.230932,1.154661 0.07698,0.230932 0.153955,0.461864 0.230932,0.692797 0.07698,0 0.196507,-0.06885 0.230932,0 0.06885,0.137701 -0.05718,0.31892 0,0.461864 0.103078,0.257695 0.319069,0.454803 0.461865,0.692797 0.08856,0.147597 0.127656,0.324163 0.230932,0.461864 0.130635,0.17418 0.33123,0.287684 0.461865,0.461864 0.103276,0.137702 0.142373,0.314267 0.230932,0.461865 0.142796,0.237993 0.319068,0.454803 0.461864,0.692796 0.177117,0.295195 0.270907,0.637293 0.461865,0.923729 0.107299,0.160949 0.356842,0.210044 0.230932,0.461865 -0.04868,0.09737 -0.153955,0.153954 -0.230932,0.230932 -0.07698,0.07698 -0.133563,0.182247 -0.230933,0.230932 -0.06885,0.03442 -0.153954,0 -0.230932,0 -0.230932,0.07698 -0.475072,0.12207 -0.692796,0.230932 -0.09737,0.04868 -0.140354,0.170546 -0.230933,0.230932 -0.339794,0.22653 -0.779113,0.336682 -1.154661,0.461865 -0.230932,0.07698 -0.461864,0.153955 -0.692796,0.230932 -0.230933,0.07698 -0.452685,0.190914 -0.692797,0.230932 -0.22779,0.03796 -0.465006,-0.03796 -0.692797,0 -0.480223,0.08004 -0.905369,0.381827 -1.385593,0.461865 -0.45558,0.07593 -0.930013,-0.07593 -1.385593,0 -0.240112,0.04002 -0.456641,0.171893 -0.692797,0.230932 -0.163534,0.04088 -1.316862,0.0098 -1.385593,0 -0.314196,-0.04488 -0.609533,-0.186047 -0.923729,-0.230932 -0.228611,-0.03266 -0.465006,0.03796 -0.692796,0 -0.240112,-0.04002 -0.452685,-0.190914 -0.692797,-0.230933 -0.22779,-0.03796 -0.465006,0.03796 -0.692796,0 -0.240112,-0.04002 -0.458739,-0.164058 -0.692797,-0.230932 -0.305174,-0.08719 -0.618555,-0.143739 -0.923729,-0.230932 -0.234058,-0.06687 -0.452685,-0.190914 -0.692797,-0.230932 -0.22779,-0.03796 -0.464185,0.03266 -0.692796,0 -0.314196,-0.04489 -0.615819,-0.153955 -0.923729,-0.230932 -0.30791,-0.07698 -0.62263,-0.130566 -0.923729,-0.230933 -0.163293,-0.05443 -0.29857,-0.176501 -0.461864,-0.230932 -0.301099,-0.100366 -0.629043,-0.113058 -0.923729,-0.230932 -0.101076,-0.04043 -0.129856,-0.190502 -0.230932,-0.230932 -0.808707,-0.323483 -1.751222,-0.298281 -2.540254,-0.692797 -0.09737,-0.04869 -0.129856,-0.190501 -0.230933,-0.230932 -0.294685,-0.117874 -0.618554,-0.14374 -0.923728,-0.230932 -0.234058,-0.06687 -0.461865,-0.153955 -0.692797,-0.230932 -2.230079,-0.74336 1.237109,0.448657 -1.616525,-0.692797 -0.07147,-0.02859 -0.15545,0.0151 -0.230933,0 -0.311222,-0.06225 -0.612506,-0.168688 -0.923728,-0.230932 -0.07548,-0.0151 -0.157906,0.02434 -0.230933,0 -0.163293,-0.05443 -0.29857,-0.176501 -0.461864,-0.230932 -0.07303,-0.02434 -0.157905,0.02434 -0.230932,0 -0.163294,-0.05443 -0.298571,-0.176501 -0.461865,-0.230933 -0.07303,-0.02434 -0.153954,0 -0.230932,0 -0.30791,-0.07698 -0.62263,-0.130566 -0.923729,-0.230932 -0.163293,-0.05443 -0.294877,-0.189185 -0.461864,-0.230932 -0.149358,-0.03734 -0.31581,0.04869 -0.461865,0 -0.103276,-0.03442 -0.127656,-0.196507 -0.230932,-0.230932 -0.146054,-0.04869 -0.31581,0.04869 -0.461864,0 -0.103276,-0.03443 -0.133563,-0.182248 -0.230932,-0.230932 -0.0474,-0.0237 -1.086081,-0.02286 -1.154661,0 -0.163294,0.05443 -0.291468,0.255274 -0.461865,0.230932 -0.410369,-0.05862 -0.769774,-0.30791 -1.154661,-0.461865 z"
     id="path2987"
     inkscape:connector-curvature="0"
     transform="matrix(1.0222222,0,0,1.0222222,-1,-1.2111111)" /><path
     style="fill:none;stroke:#000000;stroke-width:1px;stroke-linecap:butt;stroke-linejoin:miter;stroke-opacity:1"
     d="m 35.794492,62.582627 c 0.07698,0.30791 0.538841,0.846752 0.230932,0.923729 -0.30791,0.07698 -0.514811,-1.065668 -0.230932,-0.923729 0.401465,0.200733 0.412401,0.804167 0.692796,1.154661 0.04809,0.06011 0.153955,0 0.230932,0 0.07698,0 0.162082,0.03442 0.230933,0 0.09737,-0.04868 0.133562,-0.182247 0.230932,-0.230932 0.06885,-0.03442 0.176501,0.05443 0.230932,0 0.108862,-0.108863 -0.153955,-0.461864 0,-0.461864 0.07698,0 0.07698,0.230932 0,0.230932 -0.108863,0 -0.133563,-0.182248 -0.230932,-0.230932 -0.06885,-0.03443 -0.176501,0.05443 -0.230932,0 -0.05443,-0.05443 0,-0.153955 0,-0.230933 -0.384887,-0.07698 -0.769774,-0.153955 -1.154661,-0.230932 z"
     id="path2989"
     inkscape:connector-curvature="0"
     transform="matrix(1.0222222,0,0,1.0222222,-1,-1.2111111)" /><path
     style="fill:none;stroke:#000000;stroke-width:1px;stroke-linecap:butt;stroke-linejoin:miter;stroke-opacity:1"
     d="m 49.650424,60.966102 c -0.153955,0.307909 -0.153955,1.077683 -0.461865,0.923728 -0.307909,-0.153954 0.218441,-1.167152 0.461865,-0.923728 0.277546,0.277546 -0.230932,0.762151 -0.230932,1.154661 0,0.07698 0.162081,-0.03443 0.230932,0 0.09737,0.04868 0.140353,0.170546 0.230932,0.230932 0.143218,0.09548 0.318646,0.135453 0.461864,0.230932 0.181158,0.120772 0.280707,0.341092 0.461865,0.461865 0.143218,0.09548 0.318646,0.135453 0.461864,0.230932 0.09058,0.06039 0.133563,0.182247 0.230932,0.230932 0.137702,0.06885 0.324163,-0.06885 0.461865,0 0.09737,0.04869 0.133562,0.182247 0.230932,0.230932 0.06885,0.03442 0.153955,0 0.230932,0 0.07698,0 0.176501,0.05443 0.230932,0 0.05443,-0.05443 0,-0.153955 0,-0.230932 0,-0.153955 0,-0.30791 0,-0.461864 0,-0.104003 0.03514,-0.622517 0,-0.692797 -0.04868,-0.09737 -0.182247,-0.133563 -0.230932,-0.230932 -0.03442,-0.06885 0.05443,-0.176501 0,-0.230933 -0.108862,-0.108862 -0.353002,0.108863 -0.461864,0 -0.05443,-0.05443 0.05443,-0.1765 0,-0.230932 -0.05443,-0.05443 -0.176501,0.05443 -0.230932,0 -0.05443,-0.05443 0.05443,-0.176501 0,-0.230932 -0.05443,-0.05443 -0.162082,0.03442 -0.230933,0 -0.09737,-0.04868 -0.133562,-0.182247 -0.230932,-0.230932 -0.137701,-0.06885 -0.353002,0.108862 -0.461864,0 -0.05443,-0.05443 0,-0.153955 0,-0.230932 -0.384887,0 -0.769774,0 -1.154661,0 z"
     id="path2991"
     inkscape:connector-curvature="0"
     transform="matrix(1.0222222,0,0,1.0222222,-1,-1.2111111)" /><path
     style="fill:none;stroke:#000000;stroke-width:1px;stroke-linecap:butt;stroke-linejoin:miter;stroke-opacity:1"
     d="m 27.942797,69.510593 c 0.384887,0 0.77501,-0.06328 1.154661,0 0.107381,0.0179 0.12532,0.204529 0.230932,0.230932 0.384887,0.09622 0.769774,-0.06415 1.154661,0 2.998917,0.74973 -0.740567,-0.105795 1.616525,0.230933 0.314196,0.04488 0.609533,0.186047 0.923729,0.230932 0.228611,0.03266 0.465007,-0.03796 0.692797,0 0.240112,0.04002 0.451819,0.196507 0.692796,0.230932 0.304815,0.04355 0.618197,-0.03819 0.923729,0 0.314935,0.03937 0.609533,0.186047 0.923729,0.230932 0.603503,0.08621 1.243955,-0.08621 1.847458,0 0.314196,0.04488 0.609532,0.186047 0.923728,0.230932 0.228612,0.03266 0.461865,0 0.692797,0 0.30791,0.07698 0.612506,0.168688 0.923729,0.230933 0.30193,0.06039 0.620008,-0.05062 0.923729,0 0.240112,0.04002 0.452684,0.190913 0.692796,0.230932 0.22779,0.03796 0.461865,0 0.692797,0 0.230932,0.07698 0.456641,0.171893 0.692796,0.230932 0.224038,0.05601 0.466349,-0.04529 0.692797,0 0.238697,0.04774 0.452685,0.190914 0.692797,0.230932 0.22779,0.03796 0.465006,-0.03796 0.692796,0 0.480224,0.08004 0.90537,0.381827 1.385594,0.461865 0.22779,0.03796 0.465006,-0.03796 0.692796,0 0.645268,0.107544 1.433122,0.585252 2.07839,0.692796 0.22779,0.03796 0.465006,-0.03796 0.692797,0 0.240111,0.04002 0.461864,0.153955 0.692796,0.230932 0.692797,0.230933 1.385593,0.461865 2.07839,0.692797 1.661089,0.553696 -0.413273,-0.118078 1.616525,0.461864 0.468116,0.133748 0.917478,0.328117 1.385594,0.461865 0.305174,0.08719 0.618554,0.143739 0.923728,0.230932 0.468116,0.133747 0.913282,0.343787 1.385594,0.461864 0.07468,0.01867 0.156253,-0.01867 0.230932,0 0.472312,0.118078 0.905369,0.381828 1.385593,0.461865 0.22779,0.03796 0.473715,-0.07303 0.692797,0 0.07303,0.02434 -0.07303,0.20659 0,0.230932 0.219081,0.07303 0.466349,-0.04529 0.692796,0 0.168784,0.03376 0.298571,0.176501 0.461865,0.230932 0.07303,0.02434 0.176501,-0.05443 0.230932,0 0.153955,0.153955 0.439318,1.041931 0.461864,1.154661 0.03019,0.150965 -0.04868,0.31581 0,0.461865 0.03443,0.103276 0.182248,0.133562 0.230933,0.230932 0.03442,0.06885 0.0151,0.15545 0,0.230932 -0.06224,0.311223 -0.178755,0.610661 -0.230933,0.923729 -0.02531,0.15186 0,0.30791 0,0.461864 0,0.07698 0.0427,0.166883 0,0.230933 -0.153954,0.153954 -0.307909,0.307909 -0.461864,0.461864 0,0.07698 0.03442,0.162081 0,0.230932 -0.09737,0.194739 -0.364495,0.267125 -0.461864,0.461865 -0.03443,0.06885 0.03442,0.162081 0,0.230932 -0.04868,0.09737 -0.153955,0.153955 -0.230933,0.230932 -0.153954,0.153955 -0.267125,0.364495 -0.461864,0.461864 -0.137701,0.06885 -0.31581,-0.04868 -0.461864,0 -0.103276,0.03443 -0.153955,0.153955 -0.230933,0.230933 -0.153954,0.07698 -0.29857,0.176501 -0.461864,0.230932 -0.07303,0.02434 -0.153955,0 -0.230932,0 -0.30791,0.07698 -0.629044,0.113058 -0.923729,0.230932 -0.101076,0.04043 -0.129856,0.190502 -0.230932,0.230932 -1.874738,0.749895 -0.217486,-0.0027 -1.385594,0.230932 -0.765905,0.153182 -0.538841,0.215537 -1.154661,0.461865 -0.226013,0.09041 -0.466783,0.140527 -0.692796,0.230932 -0.319631,0.127853 -0.589754,0.378371 -0.923729,0.461864 -0.487809,0.121953 -0.487599,-0.205197 -0.923729,0.230933 -0.05443,0.05443 0.05443,0.176501 0,0.230932 -0.05443,0.05443 -0.176501,-0.05443 -0.230932,0 -0.05443,0.05443 0,0.153955 0,0.230932 0,0.461864 0,0.923729 0,1.385593 0,0.07698 0.05443,0.176501 0,0.230932 -0.05443,0.05443 -0.176501,-0.05443 -0.230932,0 -0.108863,0.108863 0.108862,0.353002 0,0.461865 -0.477807,0.477807 0.01868,-0.730152 -0.461865,0.230932 -0.03442,0.06885 0.02434,0.157905 0,0.230932 -0.161019,0.483058 -0.503548,0.912473 -0.692796,1.385593 -0.269099,0.672747 -0.463623,1.39087 -0.692797,2.07839 -0.580454,1.741363 0.202541,-0.405082 -0.692796,1.385594 -0.217725,0.435449 -0.24414,0.950143 -0.461865,1.385593 -0.248244,0.496489 -0.675484,0.889104 -0.923729,1.385593 -0.03442,0.06885 0.03443,0.162082 0,0.230932 -0.138559,0.277119 -0.554237,0.415678 -0.692796,0.692797 -0.03443,0.06885 0.05443,0.176501 0,0.230932 -0.05443,0.05443 -0.157905,-0.02434 -0.230932,0 -0.163294,0.05443 -0.318647,0.135453 -0.461865,0.230932 -0.09058,0.06039 -0.133563,0.182248 -0.230932,0.230932 -0.06885,0.03443 -0.156253,-0.01867 -0.230932,0 -0.236156,0.05904 -0.456641,0.171894 -0.692797,0.230933 -0.07468,0.01867 -0.153955,0 -0.230932,0 -0.230932,0 -0.461865,0 -0.692797,0 -0.07698,0 -0.156253,0.01867 -0.230932,0 -0.236156,-0.05904 -0.4541,-0.183193 -0.692797,-0.230933 -0.30193,-0.06039 -0.621798,0.06039 -0.923728,0 -0.662808,-0.132561 -1.180659,-0.581663 -1.847458,-0.692796 -0.22779,-0.03796 -0.465006,0.03796 -0.692797,0 -0.65649,-0.109415 -0.61621,-0.246484 -1.154661,-0.461865 -0.452026,-0.18081 -0.923728,-0.307909 -1.385593,-0.461864 -0.171428,-0.05714 -1.214164,-0.404722 -1.385593,-0.461864 -0.230932,-0.07698 -0.456641,-0.171894 -0.692797,-0.230933 -0.07468,-0.01867 -0.157905,0.02434 -0.230932,0 -0.163294,-0.05443 -0.312416,-0.145533 -0.461864,-0.230932 -0.389713,-0.222693 -0.781194,-0.443818 -1.154661,-0.692796 -0.09058,-0.06039 -0.140353,-0.170547 -0.230932,-0.230933 -0.143219,-0.09548 -0.324164,-0.127656 -0.461865,-0.230932 -1.66109,-1.245817 0.487355,0.256423 -0.692796,-0.923729 -0.196255,-0.196254 -0.496542,-0.265609 -0.692797,-0.461864 -0.0062,-0.0062 -0.905488,-1.361272 -0.923729,-1.385593 -0.06532,-0.08709 -0.182247,-0.133563 -0.230932,-0.230932 -0.108863,-0.217725 -0.12207,-0.475072 -0.230932,-0.692797 -0.124123,-0.248245 -0.337742,-0.444552 -0.461865,-0.692797 -0.108862,-0.217725 -0.153955,-0.461864 -0.230932,-0.692796 -0.07698,-0.230933 -0.171893,-0.456641 -0.230932,-0.692797 -0.01867,-0.07468 0.0151,-0.15545 0,-0.230932 -0.06225,-0.311223 -0.168688,-0.612506 -0.230932,-0.923729 -0.06039,-0.30193 0.04354,-0.618914 0,-0.923729 -0.04489,-0.314196 -0.191566,-0.608794 -0.230933,-0.923729 -0.07638,-0.611063 0.07638,-1.236393 0,-1.847457 -0.08021,-0.641717 -0.291441,-1.020047 -0.461864,-1.616526 -0.08719,-0.305174 -0.186047,-0.609532 -0.230932,-0.923728 -0.03266,-0.228612 0.06344,-0.47075 0,-0.692797 -0.09457,-0.331008 -0.340989,-0.601394 -0.461865,-0.923729 -0.222883,-0.594355 -0.261131,-1.24526 -0.461864,-1.847457 -0.05443,-0.163294 -0.176501,-0.298571 -0.230932,-0.461865 -0.100366,-0.301099 -0.113058,-0.629043 -0.230932,-0.923729 -0.04043,-0.101076 -0.170547,-0.140353 -0.230933,-0.230932 -0.09548,-0.143218 -0.167006,-0.302049 -0.230932,-0.461864 -0.07698,-0.230933 -0.153955,-0.461865 -0.230932,-0.692797 -0.07698,-0.07698 -0.182247,-0.133563 -0.230932,-0.230932 -0.217725,-0.43545 -0.281054,-0.933566 -0.461865,-1.385593 -0.06393,-0.159816 -0.176501,-0.298571 -0.230932,-0.461865 -0.07303,-0.219081 0.05601,-0.468759 0,-0.692796 -0.04175,-0.166988 -0.189185,-0.294877 -0.230932,-0.461865 -0.03734,-0.149358 0.03734,-0.312506 0,-0.461864 -0.04175,-0.166988 -0.176501,-0.298571 -0.230932,-0.461865 -0.04166,-0.124982 0,-0.845056 0,-0.923728 0,-0.07698 -0.07698,-0.230933 0,-0.230933 0.07698,0 -0.07698,0.230933 0,0.230933 0.615819,0 -0.153955,-0.61582 0.461864,0"
     id="path2993"
     inkscape:connector-curvature="0"
     transform="matrix(1.0222222,0,0,1.0222222,-1,-1.2111111)" /><path
     style="fill:none;stroke:#000000;stroke-width:1px;stroke-linecap:butt;stroke-linejoin:miter;stroke-opacity:1"
     d="m 30.252119,95.144068 c -2.079506,-1.690121 -0.729037,0.959969 -0.923729,1.154661 -0.05443,0.05443 -0.153955,0 -0.230932,0 -0.07698,0.153955 -0.176501,0.29857 -0.230933,0.461864 -0.08695,0.260865 0.160013,0.480037 0.230933,0.692797 0.04868,0.146054 -0.06885,0.324163 0,0.461864 0.04868,0.09737 0.153954,0.153955 0.230932,0.230932 0.07698,0.07698 0.133562,0.182248 0.230932,0.230933 0.06885,0.03443 0.157905,-0.02434 0.230932,0 0.163294,0.05443 0.30791,0.153954 0.461865,0.230932 0.477807,0.238903 0.583934,0.319183 1.154661,0.461864 0.289797,0.07245 0.633931,-0.07245 0.923728,0 0.236156,0.05904 0.456641,0.171893 0.692797,0.230932 0.149358,0.03734 0.31581,-0.04868 0.461865,0 0.163293,0.05443 0.29857,0.176501 0.461864,0.230933 0.136279,0.04543 1.025633,0 1.154661,0 0.07698,0 0.176501,0.05443 0.230932,0 0.180526,-0.180526 -0.200871,-0.401742 -0.230932,-0.461865 -0.03442,-0.06885 0.03442,-0.162081 0,-0.230932 -0.09737,-0.194739 -0.364495,-0.267125 -0.461864,-0.461864 -0.03443,-0.06885 0.05443,-0.176501 0,-0.230933 -0.05443,-0.05443 -0.162082,0.03443 -0.230933,0 -0.09917,-0.04958 -0.919891,-0.917972 -0.923728,-0.923728 0,-0.61582 0.07698,0.07698 -0.230933,-0.230933 -0.05443,-0.05443 0.05443,-0.176501 0,-0.230932 -0.05443,-0.05443 -0.176501,0.05443 -0.230932,0 -0.05443,-0.05443 0.05443,-0.176501 0,-0.230932 -0.05443,-0.05443 -0.176501,0.05443 -0.230932,0 -0.477807,-0.477807 0.730152,0.01868 -0.230932,-0.461864 -0.06885,-0.03443 -0.157905,0.02434 -0.230933,0 -0.163293,-0.05443 -0.29857,-0.176501 -0.461864,-0.230933 -0.07303,-0.02434 -0.160179,0.03032 -0.230932,0 C 31.163084,95.633452 30.713983,95.375 30.252119,95.144068 z"
     id="path2995"
     inkscape:connector-curvature="0"
     transform="matrix(1.0222222,0,0,1.0222222,-1,-1.2111111)" /><path
     style="fill:none;stroke:#000000;stroke-width:1px;stroke-linecap:butt;stroke-linejoin:miter;stroke-opacity:1"
     d="m 41.798729,98.838983 c 0,0.384887 -0.05443,0.773642 0,1.154661 0.02434,0.170396 0.167006,0.302046 0.230932,0.461866 0.216378,0.54094 0.363636,1.12278 0.692797,1.61652 0.06039,0.0906 0.182247,0.13357 0.230932,0.23094 0.03442,0.0688 -0.0427,0.16688 0,0.23093 0.120772,0.18116 0.331229,0.28768 0.461864,0.46186 0.103276,0.1377 0.135454,0.31865 0.230932,0.46187 0.120773,0.18116 0.341093,0.2807 0.461865,0.46186 0.09548,0.14322 0.10922,0.34015 0.230932,0.46187 0.121712,0.12171 0.314267,0.14237 0.461864,0.23093 0.237994,0.14279 0.47607,0.28848 0.692797,0.46186 0.153955,0.15396 0.30791,0.30791 0.461864,0.46187 0.07698,0 0.162082,-0.0344 0.230933,0 0.09737,0.0487 0.140353,0.17054 0.230932,0.23093 0.143218,0.0955 0.298571,0.1765 0.461864,0.23093 0.07303,0.0243 0.153955,0 0.230933,0 0.153954,0 0.324163,0.0689 0.461864,0 0.06885,-0.0344 -0.05443,-0.1765 0,-0.23093 0.05443,-0.0544 0.176501,0.0544 0.230932,0 0.05443,-0.0544 0,-0.15396 0,-0.23093 0,-0.2175 0.04379,-1.0233 0,-1.15466 -0.03442,-0.10328 -0.182247,-0.13357 -0.230932,-0.23094 -0.03442,-0.0688 0.02434,-0.1579 0,-0.23093 -0.05443,-0.16329 -0.176501,-0.29857 -0.230932,-0.46186 -0.02434,-0.073 0.02434,-0.15791 0,-0.23094 -0.05443,-0.16329 -0.176501,-0.29857 -0.230932,-0.46186 -0.02434,-0.073 0.03443,-0.16208 0,-0.23093 -0.04868,-0.0974 -0.182248,-0.13356 -0.230933,-0.23093 -0.03443,-0.0688 0.05443,-0.1765 0,-0.23094 -0.477807,-0.4778 0.01868,0.73016 -0.461864,-0.23093 -0.03442,-0.0688 0.05443,-0.1765 0,-0.23093 -0.05443,-0.0544 -0.176501,0.0544 -0.230932,0 -0.05443,-0.0544 0.03442,-0.16208 0,-0.23093 -0.113622,-0.22725 -0.810107,-0.69649 -0.923729,-0.92373 -0.03442,-0.0688 0.05443,-0.1765 0,-0.23093 -0.05443,-0.0544 -0.176501,0.0544 -0.230932,0 -0.05443,-0.0544 0.05443,-0.1765 0,-0.230936 -0.121712,-0.121712 -0.294877,-0.189185 -0.461865,-0.230932 -0.04038,-0.01009 -1.114282,-0.01009 -1.154661,0 -0.166987,0.04175 -0.29857,0.176501 -0.461864,0.230932 -0.07303,0.02435 -0.153955,0 -0.230932,0 -0.809642,0 -0.421239,0.101566 -0.923729,-1.154661 z"
     id="path2997"
     inkscape:connector-curvature="0"
     transform="matrix(1.0222222,0,0,1.0222222,-1,-1.2111111)" /><path
     style="fill:none;stroke:#000000;stroke-width:1px;stroke-linecap:butt;stroke-linejoin:miter;stroke-opacity:1"
     d="m 59.349576,85.90678 c 0.392675,0.656187 0.862826,1.093758 1.385594,1.616525 0.153954,0.153955 0.331229,0.287685 0.461864,0.461864 0.710109,0.946813 -0.484794,-0.01529 0.923729,0.923729 2.553539,1.70236 -0.49649,-0.496489 0.923729,0.923729 0.121712,0.121712 0.314267,0.142374 0.461864,0.230932 1.393358,0.836015 0.0989,0.164918 1.154661,0.692797 0.153955,0.07698 0.318646,0.135453 0.461864,0.230932 0.09058,0.06039 0.127657,0.196507 0.230933,0.230932 0.146054,0.04868 0.312506,-0.03734 0.461864,0 0.166987,0.04175 0.298571,0.176501 0.461864,0.230933 0.07303,0.02434 0.153955,0 0.230933,0 0.07698,0 0.176501,0.05443 0.230932,0 0.107125,-0.107126 -0.198842,-0.763278 -0.230932,-0.923729 -0.03019,-0.150965 0.06885,-0.324163 0,-0.461865 -0.03443,-0.06885 -0.153955,0 -0.230933,0 -0.07698,-0.153954 -0.176501,-0.29857 -0.230932,-0.461864 -0.04869,-0.146054 0.108863,-0.353002 0,-0.461865 -0.05443,-0.05443 -0.153955,0 -0.230932,0 -0.07698,-0.153954 -0.10922,-0.340152 -0.230932,-0.461864 -0.05443,-0.05443 -0.176501,0.05443 -0.230932,0 -0.477807,-0.477807 0.730152,0.01868 -0.230933,-0.461864 -0.06885,-0.03443 -0.162081,0.03442 -0.230932,0 -0.09737,-0.04869 -0.140353,-0.170546 -0.230932,-0.230933 -0.04302,-0.02868 -0.908931,-0.447066 -0.923729,-0.461864 -0.05443,-0.05443 0.05443,-0.176501 0,-0.230932 -0.03424,-0.03424 -1.327251,-0.681128 -1.385593,-0.692797 -0.226448,-0.04529 -0.46876,0.05601 -0.692797,0 -0.105612,-0.0264 -0.133562,-0.182247 -0.230932,-0.230932 -0.137701,-0.06885 -0.31581,0.04868 -0.461864,0 -0.163294,-0.05443 -0.296361,-0.183645 -0.461865,-0.230932 -0.754814,-0.215661 -1.564588,-0.21362 -2.309322,-0.461865 -0.103276,-0.03442 -0.153955,-0.153954 -0.230932,-0.230932"
     id="path2999"
     inkscape:connector-curvature="0"
     transform="matrix(1.0222222,0,0,1.0222222,-1,-1.2111111)" /><path
     style="fill:none;stroke:#000000;stroke-width:1px;stroke-linecap:butt;stroke-linejoin:miter;stroke-opacity:1"
     d="m 24.940678,74.822034 c -0.403175,0.100794 -1.012722,0.182211 -1.385593,0.461864 -0.17418,0.130635 -0.287685,0.33123 -0.461865,0.461865 -0.137701,0.103276 -0.307909,0.153954 -0.461864,0.230932 -0.153955,0.07698 -0.302049,0.167006 -0.461864,0.230932 -0.226014,0.09041 -0.475072,0.12207 -0.692797,0.230932 -0.496489,0.248245 -0.909606,0.638137 -1.385593,0.923729 -0.147598,0.08856 -0.318647,0.135454 -0.461865,0.230932 -0.09058,0.06039 -0.133562,0.182248 -0.230932,0.230933 -0.06885,0.03442 -0.176501,-0.05443 -0.230932,0 -0.05443,0.05443 0.05443,0.1765 0,0.230932 -0.05443,0.05443 -0.176501,-0.05443 -0.230932,0 -0.05443,0.05443 0.05443,0.176501 0,0.230932 -0.05443,0.05443 -0.230933,-0.07698 -0.230933,0 0,0.285363 0.323853,0.230932 0.461865,0.230932 0.846751,0 1.693503,0 2.540254,0 0.615819,0 -0.07698,0.07698 0.230932,-0.230932 0.02829,-0.02829 0.608973,0.02096 0.692797,0 1.922169,-0.480542 -0.27876,0.01594 1.154661,-0.461864 0.146054,-0.04868 0.353002,0.108862 0.461864,0 0.108863,-0.108863 -0.06885,-0.324164 0,-0.461865 0.09737,-0.194739 0.341093,-0.280706 0.461865,-0.461864 0.09548,-0.143218 0.176501,-0.298571 0.230932,-0.461865 0.04869,-0.146054 0,-0.307909 0,-0.461864 0,-0.384887 0,-0.769774 0,-1.154661 z"
     id="path3001"
     inkscape:connector-curvature="0"
     transform="matrix(1.0222222,0,0,1.0222222,-1,-1.2111111)" /><path
     style="fill:none;stroke:#000000;stroke-width:1px;stroke-linecap:butt;stroke-linejoin:miter;stroke-opacity:1"
     d="m 35.332627,57.271186 c -0.469843,-0.558006 -0.882525,-1.167117 -1.154661,-1.847457 -0.0904,-0.226014 -0.140527,-0.466783 -0.230932,-0.692797 -0.06393,-0.159815 -0.167006,-0.302049 -0.230932,-0.461864 -0.09041,-0.226014 -0.12207,-0.475072 -0.230932,-0.692797 -0.124123,-0.248245 -0.358787,-0.435101 -0.461865,-0.692796 -0.05718,-0.142944 0.03734,-0.312507 0,-0.461865 -0.04175,-0.166987 -0.176501,-0.298571 -0.230932,-0.461864 -0.04868,-0.146055 0,-0.30791 0,-0.461865 0,-0.07698 0,-0.153954 0,-0.230932 0,-0.07698 -0.05443,-0.176501 0,-0.230932 0.108862,-0.108863 0.353002,0.108862 0.461864,0 0.05443,-0.05443 -0.05443,-0.176501 0,-0.230932 0.05443,-0.05443 0.176501,-0.05443 0.230933,0 0.05443,0.05443 -0.05443,0.176501 0,0.230932 0.05443,0.05443 0.162081,-0.03442 0.230932,0 0.961084,0.480542 -0.246875,-0.01594 0.230932,0.461864 0.05443,0.05443 0.176501,-0.05443 0.230932,0 0.180526,0.180526 -0.200871,0.401742 -0.230932,0.461865 -0.03442,0.06885 0,0.153955 0,0.230932 0,0.07698 -0.03442,0.162081 0,0.230932 0.04868,0.09737 0.182247,0.133563 0.230932,0.230932 0.06885,0.137702 -0.108862,0.353002 0,0.461865 0.05443,0.05443 0.176501,-0.05443 0.230932,0 0.108863,0.108862 -0.108862,0.353002 0,0.461864 0.05443,0.05443 0.196507,-0.06885 0.230933,0 0.06885,0.137702 0,0.30791 0,0.461865 0,0.07698 -0.05443,0.176501 0,0.230932 0.05443,0.05443 0.1765,-0.05443 0.230932,0 0.108862,0.108862 -0.108863,0.353002 0,0.461864 0.05443,0.05443 0.176501,-0.05443 0.230932,0 0.115466,0.115466 -0.115466,0.577331 0,0.692797 0.05443,0.05443 0.176501,-0.05443 0.230932,0 0.108863,0.108862 -0.108862,0.353002 0,0.461864 0.08947,0.08947 0.530513,-0.180961 0.461865,0.230932 -0.06815,0.408896 -0.30791,0.769774 -0.461865,1.154661 z"
     id="path3003"
     inkscape:connector-curvature="0"
     transform="matrix(1.0222222,0,0,1.0222222,-1,-1.2111111)" /><path
     style="fill:none;stroke:#000000;stroke-width:1px;stroke-linecap:butt;stroke-linejoin:miter;stroke-opacity:1"
     d="m 55.423729,54.269068 c 0.65692,-0.05306 0.701766,-0.852731 1.154661,-1.154661 0.143218,-0.09548 0.318646,-0.135454 0.461864,-0.230932 0.09058,-0.06039 0.143842,-0.165615 0.230932,-0.230933 0.309816,-0.232362 0.770887,-0.539286 1.154661,-0.692796 0.226014,-0.09041 0.475072,-0.12207 0.692797,-0.230932 0.248245,-0.124123 0.454803,-0.319069 0.692797,-0.461865 0.541577,-0.324946 0.493749,-0.1975 1.154661,-0.461864 0.159815,-0.06393 0.302049,-0.167006 0.461864,-0.230932 0.226014,-0.09041 0.466783,-0.140527 0.692797,-0.230933 0.272393,-0.108957 0.582369,-0.401611 0.923729,-0.230932 0.06885,0.03442 0,0.153955 0,0.230932 0,0.07698 0.03442,0.162082 0,0.230933 -0.04868,0.09737 -0.133563,0.182247 -0.230933,0.230932 -0.06885,0.03442 -0.196507,-0.06885 -0.230932,0 0,1.308616 0.153955,0.07698 -0.230932,0.461864 -0.05443,0.05443 0.05443,0.176501 0,0.230932 -0.05443,0.05443 -0.176501,-0.05443 -0.230932,0 -0.05443,0.05443 0.05443,0.176501 0,0.230933 -0.05443,0.05443 -0.176501,-0.05443 -0.230932,0 -0.05443,0.05443 0.03442,0.162081 0,0.230932 -0.04868,0.09737 -0.182248,0.133562 -0.230933,0.230932 -0.03442,0.06885 0.05443,0.176501 0,0.230932 -0.05443,0.05443 -0.162081,-0.03442 -0.230932,0 -0.35369,0.176845 -0.180593,0.411525 -0.461864,0.692797 -0.121712,0.121712 -0.324163,0.127656 -0.461865,0.230932 -0.26127,0.195952 -0.421059,0.511638 -0.692796,0.692797 -0.143218,0.09548 -0.318647,0.135453 -0.461865,0.230932 -0.09058,0.06039 -0.140353,0.170546 -0.230932,0.230932 -0.143218,0.09548 -0.318646,0.135453 -0.461864,0.230932 -0.181158,0.120772 -0.267126,0.364495 -0.461865,0.461865 -0.217725,0.108862 -0.475071,0.122069 -0.692796,0.230932 -0.09737,0.04868 -0.143843,0.165614 -0.230933,0.230932 -2.290032,1.717525 0.457192,-0.381772 -1.154661,0.692797 -0.09058,0.06039 -0.127656,0.196506 -0.230932,0.230932 -0.146054,0.04868 -0.324163,-0.06885 -0.461864,0 -0.06885,0.03442 0.07698,0.230932 0,0.230932 -0.285364,0 -0.230932,-0.323852 -0.230932,-0.461864 0,-0.07698 0,-0.153955 0,-0.230933 0,-0.07698 -0.05443,-0.176501 0,-0.230932 0.05443,-0.05443 0.176501,0.05443 0.230932,0 0.05443,-0.05443 0,-0.153955 0,-0.230932 0,-0.07698 0,-0.153955 0,-0.230932 0,-0.384887 0,-0.769774 0,-1.154661 z"
     id="path3005"
     inkscape:connector-curvature="0"
     transform="matrix(1.0222222,0,0,1.0222222,-1,-1.2111111)" /><path
     style="fill:none;stroke:#000000;stroke-width:1px;stroke-linecap:butt;stroke-linejoin:miter;stroke-opacity:1"
     d="m 42.029661,76.669492 c -0.615819,-0.07698 -1.229395,-0.174745 -1.847458,-0.230933 -0.383306,-0.03485 -0.769774,0 -1.154661,0 -0.230932,0 -0.461864,0 -0.692796,0 -0.07698,0 -0.156253,-0.01867 -0.230932,0 -0.236156,0.05904 -0.456641,0.171894 -0.692797,0.230933 -0.149358,0.03734 -0.324163,-0.06885 -0.461864,0 -0.09737,0.04868 -0.127657,0.196506 -0.230933,0.230932 -0.146054,0.04868 -0.31581,-0.04869 -0.461864,0 -0.103276,0.03442 -0.140353,0.170546 -0.230932,0.230932 -0.143218,0.09548 -0.318647,0.135453 -0.461865,0.230932 -0.09058,0.06039 -0.133562,0.182248 -0.230932,0.230932 -0.06885,0.03443 -0.176501,-0.05443 -0.230932,0 -0.121712,0.121712 -0.127656,0.324163 -0.230932,0.461865 -0.998849,0.998849 -0.03619,-0.06118 -0.692797,0.923729 -0.120772,0.181158 -0.364495,0.267125 -0.461864,0.461864 -0.03443,0.06885 0.03442,0.162081 0,0.230932 -0.04868,0.09737 -0.182248,0.133563 -0.230932,0.230932 -0.03443,0.06885 0,0.153955 0,0.230933 0,0.230932 0,0.461864 0,0.692796 0,0.07698 0,0.153955 0,0.230932 0,0.07698 -0.05443,0.176501 0,0.230933 0.05443,0.05443 0.1765,-0.05443 0.230932,0 0.05443,0.05443 0,0.153954 0,0.230932 0,0.307909 0,0.615819 0,0.923729 0,0.07698 0,0.153954 0,0.230932 0,0.07698 -0.03443,0.162081 0,0.230932 0.04868,0.09737 0.182247,0.133563 0.230932,0.230932 0.06885,0.137702 -0.04868,0.31581 0,0.461865 0.05443,0.163293 0.135453,0.318646 0.230932,0.461864 0.06039,0.09058 0.196507,0.127656 0.230932,0.230932 0,1.051269 -0.108862,0.01321 0.230933,0.692797 0.03442,0.06885 -0.05443,0.176501 0,0.230932 0.05443,0.05443 0.162081,-0.03442 0.230932,0 0.09737,0.04869 0.133562,0.182247 0.230932,0.230932 0.06885,0.03443 0.162081,-0.03442 0.230932,0 0.09737,0.04869 0.127656,0.196507 0.230932,0.230932 0.146055,0.04868 0.30791,0 0.461865,0 0.230932,0 0.465006,-0.03796 0.692796,0 0.240112,0.04002 0.452685,0.190914 0.692797,0.230933 0.22779,0.03796 0.461864,0 0.692797,0 0.230932,0.07698 0.454099,0.183192 0.692796,0.230932 0.150965,0.03019 0.30791,0 0.461865,0 0.384887,0 0.769774,0 1.154661,0 0.153954,0 0.307909,0 0.461864,0 0.07698,0 0.176501,0.05443 0.230932,0 0.05443,-0.05443 0,-0.153955 0,-0.230932 0,-0.07698 0.03443,-0.162082 0,-0.230933 -0.04869,-0.09737 -0.196507,-0.127656 -0.230932,-0.230932 -0.04868,-0.146054 0.03734,-0.312506 0,-0.461864 -0.27879,-1.115159 -0.109743,0.01144 -0.461864,-0.692797 -0.03443,-0.06885 0.05443,-0.176501 0,-0.230932 -0.05443,-0.05443 -0.196507,0.06885 -0.230933,0 -0.06885,-0.137701 0.06885,-0.324163 0,-0.461864 -0.03442,-0.06885 -0.176501,0.05443 -0.230932,0 -0.615819,-1.231639 0.230932,0.230932 -0.692796,-0.692797 -0.05443,-0.05443 0.05443,-0.176501 0,-0.230932 -0.05443,-0.05443 -0.230933,0.07698 -0.230933,0 0,-0.07698 0.230933,-0.07698 0.230933,0 0,0.07698 -0.30791,0 -0.230933,0 0.153955,0 0.31581,-0.04868 0.461865,0 0.103276,0.03442 0.127656,0.196507 0.230932,0.230932 0.146054,0.04868 0.30791,0 0.461864,0 0.230933,0 0.461865,0 0.692797,0 0.07698,0 0.157905,-0.02434 0.230932,0 0.163294,0.05443 0.298571,0.176501 0.461865,0.230932 0.180688,0.06023 0.461864,-0.09666 0.461864,0 0,0.07698 -0.230932,-0.07698 -0.230932,0 0,0.09019 0.432714,0.260082 0.230932,0.461865 -0.05443,0.05443 -0.176501,-0.05443 -0.230932,0 -0.05443,0.05443 0,0.153954 0,0.230932 0,0.07698 0,0.153955 0,0.230932 0,0.461864 0,0.923729 0,1.385593 0,0.153955 0,0.30791 0,0.461865 0,0.07698 0.02434,0.157905 0,0.230932 -0.05443,0.163294 -0.176501,0.298571 -0.230932,0.461864 -0.04831,0.144946 0,0.73782 0,0.923729 0,0.52173 0.03442,-0.103276 -0.230933,0.692797 -0.02434,0.07303 -0.07698,0.230932 0,0.230932 0.108863,0 0.153955,-0.30791 0.230933,-0.230932 0.07698,0.07698 -0.153955,0.153954 -0.230933,0.230932"
     id="path3007"
     inkscape:connector-curvature="0"
     transform="matrix(1.0222222,0,0,1.0222222,-1,-1.2111111)" /><path
     style="fill:none;stroke:#000000;stroke-width:1px;stroke-linecap:butt;stroke-linejoin:miter;stroke-opacity:1"
     d="m 46.648305,81.288136 c 0,0.307909 -0.06039,0.621798 0,0.923728 0.02135,0.106749 0.196507,0.127657 0.230932,0.230933 0.04578,0.137337 -0.0515,1.103165 0,1.154661 0.05443,0.05443 0.176501,-0.05443 0.230933,0 0.02241,0.02241 0,1.066659 0,1.154661 0,0.153954 -0.06885,0.324163 0,0.461864 0.307909,0.615819 0.230932,-0.692797 0.230932,0.230932 0,0.153955 0,0.615819 0,0.461865 0,-0.153955 0,-0.61582 0,-0.461865 0,0.230932 0,0.461865 0,0.692797"
     id="path3009"
     inkscape:connector-curvature="0"
     transform="matrix(1.0222222,0,0,1.0222222,-1,-1.2111111)" /><path
     style="fill:none;stroke:#000000;stroke-width:1px;stroke-linecap:butt;stroke-linejoin:miter;stroke-opacity:1"
     d="m 45.03178,84.521186 c 0.307909,-0.07698 0.62263,-0.130566 0.923728,-0.230932 0.163294,-0.05443 0.298571,-0.176501 0.461865,-0.230932 0.245391,-0.0818 0.678337,0.0818 0.923729,0 0.163293,-0.05443 0.29857,-0.176501 0.461864,-0.230932 0.146054,-0.04868 0.324163,0.06885 0.461865,0 0.09737,-0.04868 0.127656,-0.196507 0.230932,-0.230932 0.167113,-0.05571 0.847605,0.07612 0.923729,0 0.05443,-0.05443 -0.07698,-0.230933 0,-0.230933 0.07698,0 0,0.153955 0,0.230933"
     id="path3011"
     inkscape:connector-curvature="0"
     transform="matrix(1.0222222,0,0,1.0222222,-1,-1.2111111)" /></svg>