<?xml version="1.0" encoding="UTF-8" standalone="no"?>
<!-- Generator: Adobe Illustrator 15.0.0, SVG Export Plug-In . SVG Version: 6.00 Build 0)  -->

<svg
   xmlns:dc="http://purl.org/dc/elements/1.1/"
   xmlns:cc="http://creativecommons.org/ns#"
   xmlns:rdf="http://www.w3.org/1999/02/22-rdf-syntax-ns#"
   xmlns:svg="http://www.w3.org/2000/svg"
   xmlns="http://www.w3.org/2000/svg"
   xmlns:sodipodi="http://sodipodi.sourceforge.net/DTD/sodipodi-0.dtd"
   xmlns:inkscape="http://www.inkscape.org/namespaces/inkscape"
   version="1.1"
   id="Layer_1"
   x="0px"
   y="0px"
   width="90px"
   height="109px"
   viewBox="-1 -1 92 111"
   enable-background="new 0 0 90 109"
   xml:space="preserve"
   inkscape:version="0.48.5 r10040"
   sodipodi:docname="unix.svg"><metadata
     id="metadata11"><rdf:RDF><cc:Work
         rdf:about=""><dc:format>image/svg+xml</dc:format><dc:type
           rdf:resource="http://purl.org/dc/dcmitype/StillImage" /></cc:Work></rdf:RDF></metadata><defs
     id="defs9" /><sodipodi:namedview
     pagecolor="#ffffff"
     bordercolor="#666666"
     borderopacity="1"
     objecttolerance="10"
     gridtolerance="10"
     guidetolerance="10"
     inkscape:pageopacity="0"
     inkscape:pageshadow="2"
     inkscape:window-width="1427"
     inkscape:window-height="874"
     id="namedview7"
     showgrid="false"
     inkscape:snap-bbox="false"
     inkscape:zoom="2.1651376"
     inkscape:cx="-11.973612"
     inkscape:cy="72.974576"
     inkscape:window-x="0"
     inkscape:window-y="24"
     inkscape:window-maximized="0"
     inkscape:current-layer="Layer_1" /><g
     id="g3"><path
       d="M71.574,41.851c0-4.685,0.074-10.553-0.033-15.237c-0.047-2.018-0.268-4.076-0.746-6.034   C67.374,6.581,53.823-2.125,39.594,0.45C26.998,2.729,17.621,13.968,17.621,26.786v13.865v1.17c-0.475,0-0.794-0.001-1.116,0H5.023   C2.25,41.821,0,44.07,0,46.844v56.875c0,2.773,2.25,5.023,5.023,5.023h79.451c2.775,0,5.024-2.25,5.024-5.023V46.844   c0-2.774-2.249-5.023-5.024-5.023L71.574,41.851z M52.107,95.118H37.332c-2.322,0-4.203-1.914-4.203-4.274   c0-0.063,0.007-0.127,0.009-0.19c-0.005,0-0.006-1.021-0.008-2.041c-0.001-1.129,0.511-4.289,2.061-6.574   c1.641-2.418,3.855-3.99,6.257-4.697c-3.166-1.291-5.396-4.398-5.396-8.025c0-4.789,3.88-8.668,8.667-8.668   c4.789,0,8.667,3.879,8.667,8.668c0,3.719-2.344,6.891-5.637,8.12c2.332,0.753,4.537,2.313,6.273,4.707   c1.621,2.235,2.285,5.343,2.285,6.47v2.043c-0.006,0.062,0,0.125,0,0.189C56.308,93.204,54.427,95.118,52.107,95.118    M61.779,33.104c-1.562,4.611-4.52,8.305-7.61,11.912c-2.386,2.783-5.19,5.125-8.176,7.247c-0.144,0.103-0.298,0.188-0.685,0.427   c1.781-3.076,3.217-5.998,3.633-9.404c-4.234,1.002-8.227,0.564-12.093-1.14c-6.862-3.023-10.963-9.618-10.263-17.063   c0.573-6.127,3.94-10.543,9.321-13.395c8.667-4.593,19.734-1.655,24.689,6.516C63.482,22.962,63.527,27.945,61.779,33.104"
       id="path5"
       style="opacity:1;fill:none;fill-opacity:0;stroke:#c4d2df;stroke-opacity:1" /></g><path
     style="fill:none;stroke:#000000;stroke-width:1px;stroke-linecap:butt;stroke-linejoin:miter;stroke-opacity:1"
     d="m 20.783898,63.275424 c 0.30791,0.615819 1.539548,1.539548 0.923729,1.847457 -0.615819,0.30791 -1.539548,-2.155367 -0.923729,-1.847457 0.881719,0.440859 1.150398,1.612262 1.847458,2.309322 1.166625,1.166624 0.532431,0.177477 1.385593,0.461864 0.326588,0.108863 0.615819,0.30791 0.923729,0.461865 0.30791,0.153954 0.615819,0.307909 0.923729,0.461864 0.307909,0 0.63162,-0.09737 0.923729,0 0.206552,0.06885 0.267125,0.364495 0.461864,0.461864 0.137701,0.06885 0.30791,0 0.461864,0 0.461865,0 0.923729,0 1.385594,0 0.289629,0 1.790406,0.05705 1.847457,0 0.108863,-0.108862 -0.108862,-0.353002 0,-0.461864 0.108863,-0.108863 0.324163,0.06885 0.461865,0 0.704332,-0.352166 0.461864,-1.213724 0.461864,-1.847458 0,-0.112014 0.01485,-1.370739 0,-1.385593 -0.108862,-0.108862 -0.353002,0.108863 -0.461864,0 -0.108863,-0.108862 0.108862,-0.353002 0,-0.461864 -0.108863,-0.108863 -0.324163,0.06885 -0.461865,0 -0.194739,-0.09737 -0.267125,-0.364495 -0.461864,-0.461865 -0.137702,-0.06885 -0.353002,0.108863 -0.461865,0 -0.108862,-0.108862 0.108863,-0.353002 0,-0.461864 -0.108862,-0.108863 -0.324163,0.06885 -0.461864,0 -0.194739,-0.09737 -0.267125,-0.364495 -0.461864,-0.461864 -0.137702,-0.06885 -0.324163,0.06885 -0.461865,0 -0.389478,-0.19474 -0.53425,-0.72899 -0.923729,-0.923729 -0.137701,-0.06885 -0.31581,0.04868 -0.461864,0 -0.326587,-0.108863 -0.597141,-0.353002 -0.923729,-0.461865 -0.272558,-0.09085 -2.051266,0 -2.309322,0 -0.644247,0 -1.843294,-0.09737 -2.309322,0.461865 -0.530759,0.63691 -0.615819,1.539548 -0.923729,2.309322 z"
     id="path2986"
     inkscape:connector-curvature="0"
     transform="matrix(1.0222222,0,0,1.0222222,-1,-1.2111111)" /><path
     style="fill:none;stroke:#000000;stroke-width:1px;stroke-linecap:butt;stroke-linejoin:miter;stroke-opacity:1"
     d="m 64.661017,63.737288 c -0.923729,0 -1.847458,0 -2.771186,0 -0.153955,0 -0.353002,-0.108862 -0.461865,0 -0.108862,0.108863 0.108863,0.353002 0,0.461865 -0.108862,0.108862 -0.353002,-0.108863 -0.461864,0 -0.108863,0.108862 0.06885,0.324163 0,0.461864 -0.194739,0.389478 -0.682185,0.561413 -0.923729,0.923729 -0.190958,0.286436 -0.218441,0.680305 -0.461865,0.923729 -0.108862,0.108862 -0.353001,-0.108863 -0.461864,0 -0.108862,0.108862 -0.108862,0.353001 0,0.461864 0.108863,0.108862 0.353002,-0.108863 0.461864,0 0.217725,0.217725 -0.137701,0.648326 0,0.923729 0.06132,0.12263 1.262964,1.324278 1.385594,1.385593 0.137701,0.06885 0.31581,-0.04869 0.461864,0 0.653175,0.217725 1.194283,0.706004 1.847458,0.923729 0.146054,0.04869 0.353002,-0.108863 0.461864,0 0.108863,0.108862 -0.108862,0.353002 0,0.461864 0.361052,0.361052 0.803483,-0.401741 0.923729,-0.461864 0.275403,-0.137702 0.63162,0.09737 0.923729,0 1.03227,-0.34409 1.965232,-1.277052 2.309322,-2.309322 0.09737,-0.292109 0,-1.231639 0,-0.923729 0,0.30791 0,1.231638 0,0.923729 0,-0.615819 0,-1.231639 0,-1.847458 0,-0.461864 0,-0.923729 0,-1.385593 0,-0.153955 0.108862,-0.353002 0,-0.461864 -0.108863,-0.108863 -0.353002,0.108862 -0.461865,0 -0.108862,-0.108863 0.108863,-0.353002 0,-0.461865 -0.108862,-0.108862 -0.353002,0.108863 -0.461864,0 -0.108863,-0.108862 0.153955,-0.461864 0,-0.461864 -0.785019,0 -1.539548,0.307909 -2.309322,0.461864 z"
     id="path2988"
     inkscape:connector-curvature="0"
     transform="matrix(1.0222222,0,0,1.0222222,-1,-1.2111111)" /><path
     style="fill:none;stroke:#000000;stroke-width:1px;stroke-linecap:butt;stroke-linejoin:miter;stroke-opacity:1"
     d="m 58.194915,67.432203 c -0.769774,-0.153954 -1.564588,-0.213619 -2.309322,-0.461864 -0.413104,-0.137701 -0.53425,-0.72899 -0.923729,-0.923729 -0.137701,-0.06885 -0.31581,0.04868 -0.461864,0 -0.653175,-0.217725 -1.194283,-0.706004 -1.847458,-0.923729 -0.146054,-0.04868 -0.324163,0.06885 -0.461864,0 -0.194739,-0.09737 -0.267125,-0.364494 -0.461864,-0.461864 -0.240364,-1.080152 -1.307086,-0.28174 -1.847458,-0.461864 -0.326588,-0.108863 -0.586161,-0.394351 -0.923729,-0.461865 -0.452895,-0.09058 -0.937519,0.112019 -1.385593,0 -0.211224,-0.05281 -0.25064,-0.409058 -0.461865,-0.461864 -0.448074,-0.112019 -0.923728,0 -1.385593,0 -0.307909,0 -0.63162,0.09737 -0.923729,0 -0.206552,-0.06885 -0.255312,-0.393014 -0.461864,-0.461865 -0.427876,-0.142625 -1.866758,0.147521 -2.309322,0 -0.326587,-0.108862 -0.597141,-0.353002 -0.923729,-0.461864 -0.146054,-0.04868 -0.307909,0 -0.461864,0 -0.615819,0 -1.243597,0.120772 -1.847458,0 -0.477393,-0.09548 -0.908199,-0.366386 -1.385593,-0.461864 -0.73119,-0.146238 -2.079775,0.172852 -2.771186,0 -0.333975,-0.08349 -0.589754,-0.378371 -0.923729,-0.461865 -0.363311,-0.09083 -2.290883,0 -2.771187,0 -0.663072,0 -1.760572,-0.137187 -2.309322,0 -0.211224,0.05281 -0.255312,0.393014 -0.461864,0.461865 -0.0021,6.97e-4 -1.385153,-4.41e-4 -1.385593,0 -0.108863,0.108862 0.153954,0.461864 0,0.461864 -0.153955,0 0,-0.30791 0,-0.461864"
     id="path2990"
     inkscape:connector-curvature="0"
     transform="matrix(1.0222222,0,0,1.0222222,-1,-1.2111111)" /><path
     style="fill:none;stroke:#000000;stroke-width:1px;stroke-linecap:butt;stroke-linejoin:miter;stroke-opacity:1"
     d="M 2.7711864,84.521186 C 1.676187,85.61467 1.128711,86.882408 0.46186441,88.216102 0.3079096,88.524011 0.08349371,88.805856 0,89.139831 c -0.15181636,0.607265 0.19120381,1.73571 0,2.309322 -0.06885068,0.206552 -0.36449484,0.267125 -0.46186441,0.461864 C -0.67055657,92.328401 -0.06406523,93.104414 0,93.29661 c 0.14812366,0.444371 -0.12082055,1.364176 0,1.847458 0.11807794,0.472312 0.34378646,0.913281 0.46186441,1.385593 0.28261499,1.13046 -0.94239188,-0.258927 0.4618644,1.847458 0.0853988,0.128098 0.39301369,-0.137702 0.46186439,0 0.1377014,0.275402 -0.1377013,0.648326 0,0.923728 0.068851,0.137702 0.3530019,-0.108862 0.4618644,0 0.2434239,0.243424 0.3530019,0.597142 0.4618644,0.923733 0.048685,0.14605 -0.1088625,0.353 0,0.46186 0.1088625,0.10886 0.3079096,0 0.4618644,0 0.5296027,0 1.3690164,0.11961 1.8474577,0 0.3339748,-0.0835 0.5897539,-0.37837 0.9237288,-0.46186 0.2987162,-0.0747 0.6316201,0.0974 0.9237288,0 0.206552,-0.0688 0.3079096,-0.307913 0.4618644,-0.461868 0.4618644,-0.153955 0.9081996,-0.366386 1.3855932,-0.461865 1.7614767,-0.352295 0.076798,0.654398 2.3093217,-0.461864 0.194739,-0.09737 0.280707,-0.341092 0.461865,-0.461864 0.502554,-0.335037 1.808591,-0.840274 2.309322,-0.923729 0.45558,-0.07593 0.932698,0.09058 1.385593,0 2.25425,-0.45085 -0.815323,-0.974223 2.771186,-0.461865 1.191409,0.170202 1.318385,0.527354 2.309322,0.923729 5.207526,2.08301 -4.50883,-2.254415 3.694916,1.847458 0.137701,0.06885 0.31581,-0.04868 0.461864,0 0.791819,0.263938 1.650556,0.990338 2.309322,1.385598 1.083154,0.64989 0.987499,0.39499 2.309322,0.92372 0.319631,0.12786 0.604098,0.33402 0.923729,0.46187 0.452027,0.18081 0.933566,0.28105 1.385593,0.46186 0.639263,0.25571 1.194283,0.70601 1.847458,0.92373 0.146054,0.0487 0.307909,0 0.461864,0 1.280804,0 -0.737267,0.0688 1.385594,-0.46186 0.298716,-0.0747 0.621798,0.0604 0.923728,0 0.477394,-0.0955 0.9082,-0.36639 1.385594,-0.46187 0.30193,-0.0604 0.625012,0.0747 0.923728,0 0.835947,0.27838 0.858987,-0.74819 1.385594,-0.92373 0.292108,-0.0974 0.625012,0.0747 0.923728,0 0.333975,-0.0835 0.61582,-0.30791 0.923729,-0.46186 0.615819,0 1.237828,0.0871 1.847458,0 0.481955,-0.0688 0.908199,-0.36639 1.385593,-0.46186 0.30193,-0.0604 0.615819,0 0.923729,0 0.615819,0 1.237828,-0.0871 1.847457,0 0.481955,0.0689 0.90537,0.38182 1.385594,0.46186 0.45558,0.0759 0.92837,-0.0653 1.385593,0 1.443863,0.20627 1.91705,0.54773 3.233051,0.92373 1.675968,0.47885 3.468773,0.69485 5.080508,1.38559 0.632838,0.27122 1.202789,0.68198 1.847458,0.92373 0.594355,0.22288 1.231638,0.30791 1.847458,0.46186 0.615819,0.15396 1.221322,0.35751 1.847457,0.46187 0.30372,0.0506 0.615819,0 0.923729,0 0.153955,0 0.324163,-0.0688 0.461864,0 0.194739,0.0974 0.250641,0.40906 0.461865,0.46186 0.448074,0.11202 0.923729,0 1.385593,0 0.615819,0 1.231638,0 1.847458,0 0.769774,0 1.539548,0 2.309322,0 1.295718,0 1.555349,0.14606 2.771186,-0.46186 0.496489,-0.24825 0.909606,-0.63814 1.385593,-0.92373 0.9465,-0.5679 1.144158,-0.33064 1.847458,-1.38559 0.0854,-0.1281 -0.06885,-0.32417 0,-0.46187 0.277119,-0.55423 1.108475,-0.83135 1.385593,-1.38559 0.06885,-0.1377 -0.06885,-0.32416 0,-0.46186 0.285714,-0.57143 0.638015,-0.35231 0.923729,-0.92373 0.06885,-0.13771 0,-0.307913 0,-0.461868 0,-0.153955 0,-0.30791 0,-0.461865 0,-0.769774 0,-1.539548 0,-2.309322 0,-0.153954 0,-0.307909 0,-0.461864 0,-0.153955 -0.06885,-0.324163 0,-0.461864 0.09737,-0.19474 0.364495,-0.267126 0.461864,-0.461865 0.09156,-0.183125 -0.09442,-1.291171 0,-1.385593 0.108863,-0.108863 0.461865,-0.153955 0.461865,0 0,0.153955 -0.353002,0.108862 -0.461865,0 -0.09442,-0.09442 0.09156,-1.202468 0,-1.385593 -0.09737,-0.194739 -0.364494,-0.267126 -0.461864,-0.461865 -0.06885,-0.137701 0.03734,-0.312506 0,-0.461864 -0.118078,-0.472312 -0.343786,-0.913281 -0.461864,-1.385593 -0.03734,-0.149358 0.06885,-0.324163 0,-0.461865 -0.09737,-0.194739 -0.267126,-0.364495 -0.461865,-0.461864 -0.137701,-0.06885 -0.307909,0 -0.461864,0 -0.153955,0 -0.353002,-0.108863 -0.461865,0 -0.108862,0.108862 0.108863,0.353002 0,0.461864 -0.108862,0.108863 -0.353002,0.108863 -0.461864,0 -0.392509,-0.392509 -0.638136,-0.909605 -0.923729,-1.385593 -0.354234,-0.59039 -0.510625,-1.296652 -0.923729,-1.847458 -0.26127,-0.348359 -0.682184,-0.561412 -0.923729,-0.923728 -0.0854,-0.128098 0.108863,-0.353002 0,-0.461865 -0.108862,-0.108862 -0.353001,0.108863 -0.461864,0 -0.108862,-0.108862 0.137701,-0.393013 0,-0.461864 -0.275403,-0.137702 -0.615819,0 -0.923729,0 -0.307909,0 -0.615819,0 -0.923729,0 -0.307909,0 -0.625012,-0.07468 -0.923728,0 -0.333975,0.08349 -0.604098,0.334012 -0.923729,0.461864 -0.452027,0.180811 -0.933567,0.281054 -1.385593,0.461865 -0.319632,0.127852 -0.604098,0.334012 -0.923729,0.461864 -1.804988,0.721995 -3.737386,1.125463 -5.542373,1.847458 -1.076902,0.430761 -0.996341,0.704898 -2.309322,0.923729 -0.45558,0.07593 -0.928371,-0.06532 -1.385593,0 -0.777129,0.111018 -1.547743,0.652259 -2.309322,0.461864 -0.472312,-0.118078 -0.913282,-0.343787 -1.385594,-0.461864 -0.149358,-0.03734 -0.307909,0 -0.461864,0 -0.461864,-0.153955 -0.933566,-0.281054 -1.385593,-0.461865 -0.30791,-0.153955 -0.615819,-0.30791 -0.923729,-0.461864 0,-0.153955 0.108862,-0.353002 0,-0.461865 -0.243424,-0.243424 -0.637293,-0.270907 -0.923729,-0.461864 -0.181158,-0.120772 -0.267125,-0.364495 -0.461864,-0.461865 -0.137702,-0.06885 -0.324163,0.06885 -0.461865,0 -0.194739,-0.09737 -0.267125,-0.364494 -0.461864,-0.461864 -0.137701,-0.06885 -0.31581,0.04868 -0.461864,0 -0.326588,-0.108862 -0.597142,-0.353002 -0.923729,-0.461864 -0.280093,-0.09336 -3.207234,-0.0052 -3.233051,0 -0.337568,0.06751 -0.584159,0.405269 -0.923729,0.461864 -0.07513,0.01252 -3.883741,0.05461 -4.15678,0 -0.337568,-0.06751 -0.597141,-0.353002 -0.923728,-0.461864 -0.146055,-0.04868 -0.324163,0.06885 -0.461865,0 -0.2032,-0.1016 -1.639513,-1.570199 -1.847457,-1.847458 -0.333056,-0.444074 -0.53122,-0.993084 -0.923729,-1.385593 -0.243424,-0.243424 -0.648326,-0.255313 -0.923729,-0.461865 -0.34836,-0.26127 -0.561413,-0.682184 -0.923729,-0.923728 -0.128098,-0.0854 -0.353002,0.108862 -0.461864,0 -0.108863,-0.108863 0.108862,-0.353002 0,-0.461865 -0.108863,-0.108862 -0.30791,0 -0.461865,0 -0.461864,0 -0.923729,0 -1.385593,0 -0.615819,0 -1.240017,-0.10124 -1.847458,0 C 29.060739,80.986346 28.210447,81.589925 27.25,81.75 c -0.45558,0.07593 -0.930013,-0.07593 -1.385593,0 -0.480224,0.08004 -0.923729,0.30791 -1.385593,0.461864 -0.461865,0.153955 -0.923729,0.30791 -1.385594,0.461865 -0.923728,0.307909 -1.847457,0.615819 -2.771186,0.923729 -0.461865,0.153954 -0.913282,0.343786 -1.385593,0.461864 -0.149358,0.03734 -0.3109,-0.03019 -0.461865,0 -0.622445,0.124489 -1.212685,0.461864 -1.847457,0.461864 -0.344254,0 -0.586161,-0.39435 -0.923729,-0.461864 -0.452895,-0.09058 -0.932698,0.09058 -1.385593,0 -0.246851,-0.04937 -2.542273,-1.213908 -2.771187,-1.385593 -1.203008,-0.902256 -0.505904,-0.938409 -1.8474575,-1.385593 -0.2921087,-0.09737 -0.648326,0.137701 -0.9237288,0 -0.1947391,-0.09737 -0.2441394,-0.461865 -0.4618644,-0.461865 -0.1539548,0 0.1377014,0.393014 0,0.461865 -0.2754027,0.137701 -0.6250126,-0.07468 -0.9237288,0 -0.3339748,0.08349 -0.6158192,0.307909 -0.9237288,0.461864 -0.3079096,0.153955 -0.6483261,0.255312 -0.9237288,0.461864 -0.9619404,0.721456 -1.6612553,1.846851 -2.7711865,2.309322 -0.4363598,0.181817 -2.68041879,0 -3.69491521,0"
     id="path2992"
     inkscape:connector-curvature="0"
     transform="matrix(1.0222222,0,0,1.0222222,-1,-1.2111111)" /><text
     xml:space="preserve"
     style="font-size:40.88888931px;font-style:normal;font-weight:normal;line-height:125%;letter-spacing:0px;word-spacing:0px;fill:#000000;fill-opacity:1;stroke:none;font-family:Sans"
     x="15.996611"
     y="96.991524"
     id="text2994"
     sodipodi:linespacing="125%"><tspan
       sodipodi:role="line"
       id="tspan2996"
       x="15.996611"
       y="96.991524"
       style="font-size:10.22222233px">beard</tspan></text>
</svg>