<?xml version="1.0" encoding="UTF-8" standalone="no"?>
<!-- Generator: Adobe Illustrator 15.0.0, SVG Export Plug-In . SVG Version: 6.00 Build 0)  -->

<svg
   xmlns:dc="http://purl.org/dc/elements/1.1/"
   xmlns:cc="http://creativecommons.org/ns#"
   xmlns:rdf="http://www.w3.org/1999/02/22-rdf-syntax-ns#"
   xmlns:svg="http://www.w3.org/2000/svg"
   xmlns="http://www.w3.org/2000/svg"
   xmlns:sodipodi="http://sodipodi.sourceforge.net/DTD/sodipodi-0.dtd"
   xmlns:inkscape="http://www.inkscape.org/namespaces/inkscape"
   version="1.1"
   id="Layer_1"
   x="0px"
   y="0px"
   width="90px"
   height="109px"
   viewBox="-1 -1 92 111"
   enable-background="new 0 0 90 109"
   xml:space="preserve"
   inkscape:version="0.48.5 r10040"
   sodipodi:docname="copy of freebsd.svg"><metadata
     id="metadata11"><rdf:RDF><cc:Work
         rdf:about=""><dc:format>image/svg+xml</dc:format><dc:type
           rdf:resource="http://purl.org/dc/dcmitype/StillImage" /></cc:Work></rdf:RDF></metadata><defs
     id="defs9" /><sodipodi:namedview
     pagecolor="#ffffff"
     bordercolor="#666666"
     borderopacity="1"
     objecttolerance="10"
     gridtolerance="10"
     guidetolerance="10"
     inkscape:pageopacity="0"
     inkscape:pageshadow="2"
     inkscape:window-width="1427"
     inkscape:window-height="874"
     id="namedview7"
     showgrid="false"
     inkscape:snap-bbox="false"
     inkscape:zoom="6.123934"
     inkscape:cx="-3.2156426"
     inkscape:cy="46.722087"
     inkscape:window-x="0"
     inkscape:window-y="24"
     inkscape:window-maximized="0"
     inkscape:current-layer="Layer_1" /><g
     id="g3"
     style="stroke:#414141;stroke-opacity:1"><path
       d="m 71.574,41.851 c 0,-4.685 0.074,-10.553 -0.033,-15.237 C 71.494,24.596 71.273,22.538 70.795,20.58 67.374,6.581 53.823,-2.125 39.594,0.45 26.998,2.729 17.621,13.968 17.621,26.786 l 0,13.865 0,1.17 c -0.475,0 -0.794,-10e-4 -1.116,0 l -11.482,0 C 2.25,41.821 0,44.07 0,46.844 l 0,56.875 c 0,2.773 2.25,5.023 5.023,5.023 l 79.451,0 c 2.775,0 5.024,-2.25 5.024,-5.023 l 0,-56.875 c 0,-2.774 -2.249,-5.023 -5.024,-5.023 z m -9.795,-8.747 c -1.562,4.611 -4.52,8.305 -7.61,11.912 -2.386,2.783 -5.19,5.125 -8.176,7.247 -0.144,0.103 -0.298,0.188 -0.685,0.427 1.781,-3.076 3.217,-5.998 3.633,-9.404 -4.234,1.002 -8.227,0.564 -12.093,-1.14 -6.862,-3.023 -10.963,-9.618 -10.263,-17.063 0.573,-6.127 3.94,-10.543 9.321,-13.395 8.667,-4.593 19.734,-1.655 24.689,6.516 2.887,4.758 2.932,9.741 1.184,14.9"
       id="path5"
       style="fill:none;stroke:#414141;stroke-opacity:1"
       inkscape:connector-curvature="0"
       sodipodi:nodetypes="ccccscccssssssscccccccccccc" /></g><path
     inkscape:connector-curvature="0"
     style="fill:#414141;fill-opacity:1;fill-rule:evenodd;stroke:none"
     d="m 44.092957,58.414409 c -10.061851,0 -18.222199,8.160349 -18.222199,18.2222 0,10.061851 8.160348,18.2222 18.222199,18.2222 10.061852,0 18.2222,-8.160349 18.2222,-18.2222 0,-2.861028 -0.666619,-5.57218 -1.841866,-7.981422 -0.09103,0.166372 -0.151647,0.293729 -0.245582,0.466606 -0.422528,0.739416 -1.274616,2.310416 -2.283915,1.964658 -0.458434,-0.157047 -2.178452,-1.075673 -3.413593,-1.964658 -0.953465,-0.853119 -1.740385,-1.810268 -2.112007,-2.750521 -0.371623,-0.940252 -0.584488,-1.806736 -0.417489,-3.16801 0.630817,-0.89679 1.767127,-0.904283 2.578613,-1.227911 0.05378,-0.02846 0.138129,-0.06859 0.196466,-0.09823 -3.000018,-2.173035 -6.695269,-3.462709 -10.682827,-3.462709 z"
     id="path2989" /><path
     style="fill:#414141;fill-opacity:1;stroke:#414141;stroke-width:0.81391621000000003px;stroke-linecap:round;stroke-linejoin:round;stroke-opacity:1"
     d="m 36.662603,58.560622 c -6.5137,3.90606 -6.999558,5.446582 -7.308482,5.676685 -2.496393,-9.689174 -1.874463,-11.985733 7.308482,-5.676685 z"
     id="path2991-9"
     inkscape:connector-curvature="0"
     sodipodi:nodetypes="ccc" /><path
     style="fill:#414141;fill-opacity:1;stroke:#414141;stroke-width:0.86049317999999986px;stroke-linecap:round;stroke-linejoin:round;stroke-opacity:1"
     d="m 52.874743,63.839436 c 0.203166,3.021952 2.659672,5.495603 5.429903,6.239636 9.477549,-11.757162 7.72351,-14.129746 -5.429903,-6.239636 z"
     id="path2991-7"
     inkscape:connector-curvature="0"
     sodipodi:nodetypes="ccc" /></svg>