<?xml version="1.0" encoding="UTF-8" standalone="no"?>
<!-- Generator: Adobe Illustrator 15.0.0, SVG Export Plug-In . SVG Version: 6.00 Build 0)  -->

<svg
   xmlns:dc="http://purl.org/dc/elements/1.1/"
   xmlns:cc="http://creativecommons.org/ns#"
   xmlns:rdf="http://www.w3.org/1999/02/22-rdf-syntax-ns#"
   xmlns:svg="http://www.w3.org/2000/svg"
   xmlns="http://www.w3.org/2000/svg"
   xmlns:sodipodi="http://sodipodi.sourceforge.net/DTD/sodipodi-0.dtd"
   xmlns:inkscape="http://www.inkscape.org/namespaces/inkscape"
   version="1.1"
   id="Layer_1"
   x="0px"
   y="0px"
   width="90px"
   height="109px"
   viewBox="-1 -1 92 111"
   enable-background="new 0 0 90 109"
   xml:space="preserve"
   inkscape:version="0.48.5 r10040"
   sodipodi:docname="freebsd.svg"><metadata
     id="metadata11"><rdf:RDF><cc:Work
         rdf:about=""><dc:format>image/svg+xml</dc:format><dc:type
           rdf:resource="http://purl.org/dc/dcmitype/StillImage" /></cc:Work></rdf:RDF></metadata><defs
     id="defs9" /><sodipodi:namedview
     pagecolor="#ffffff"
     bordercolor="#666666"
     borderopacity="1"
     objecttolerance="10"
     gridtolerance="10"
     guidetolerance="10"
     inkscape:pageopacity="0"
     inkscape:pageshadow="2"
     inkscape:window-width="1427"
     inkscape:window-height="874"
     id="namedview7"
     showgrid="false"
     inkscape:snap-bbox="false"
     inkscape:zoom="6.123934"
     inkscape:cx="23.237941"
     inkscape:cy="46.722087"
     inkscape:window-x="0"
     inkscape:window-y="24"
     inkscape:window-maximized="0"
     inkscape:current-layer="Layer_1" /><g
     id="g3"><path
       d="m 71.574,41.851 c 0,-4.685 0.074,-10.553 -0.033,-15.237 C 71.494,24.596 71.273,22.538 70.795,20.58 67.374,6.581 53.823,-2.125 39.594,0.45 26.998,2.729 17.621,13.968 17.621,26.786 l 0,13.865 0,1.17 c -0.475,0 -0.794,-10e-4 -1.116,0 l -11.482,0 C 2.25,41.821 0,44.07 0,46.844 l 0,56.875 c 0,2.773 2.25,5.023 5.023,5.023 l 79.451,0 c 2.775,0 5.024,-2.25 5.024,-5.023 l 0,-56.875 c 0,-2.774 -2.249,-5.023 -5.024,-5.023 z m -9.795,-8.747 c -1.562,4.611 -4.52,8.305 -7.61,11.912 -2.386,2.783 -5.19,5.125 -8.176,7.247 -0.144,0.103 -0.298,0.188 -0.685,0.427 1.781,-3.076 3.217,-5.998 3.633,-9.404 -4.234,1.002 -8.227,0.564 -12.093,-1.14 -6.862,-3.023 -10.963,-9.618 -10.263,-17.063 0.573,-6.127 3.94,-10.543 9.321,-13.395 8.667,-4.593 19.734,-1.655 24.689,6.516 2.887,4.758 2.932,9.741 1.184,14.9"
       id="path5"
       style="fill:none;stroke:#c4d2df;stroke-opacity:1"
       inkscape:connector-curvature="0"
       sodipodi:nodetypes="ccccscccssssssscccccccccccc" /></g><g
     id="g2986"
     transform="matrix(0.76877911,0,0,0.76877911,12.911491,15.901993)"><path
       id="path2989"
       transform="matrix(1.0222222,0,0,1.0222222,-1,-1.2111111)"
       d="m 40.65625,55.28125 c -12.803568,0 -23.1875,10.383932 -23.1875,23.1875 0,12.803568 10.383932,23.1875 23.1875,23.1875 12.803568,0 23.1875,-10.383932 23.1875,-23.1875 0,-3.640619 -0.848264,-7.090522 -2.34375,-10.15625 -0.11583,0.211706 -0.192969,0.373766 -0.3125,0.59375 -0.53766,0.940897 -1.621931,2.939972 -2.90625,2.5 -0.583351,-0.19984 -2.772051,-1.368779 -4.34375,-2.5 -1.213271,-1.085583 -2.214616,-2.303542 -2.6875,-3.5 C 50.777114,64.209792 50.506246,63.107202 50.71875,61.375 51.521457,60.233847 52.967396,60.224312 54,59.8125 c 0.06843,-0.03621 0.175767,-0.08728 0.25,-0.125 -3.817481,-2.765157 -8.519637,-4.40625 -13.59375,-4.40625 z"
       style="fill:#c4d2df;fill-opacity:1;fill-rule:evenodd;stroke:none"
       inkscape:connector-curvature="0" /><path
       sodipodi:nodetypes="ccc"
       inkscape:connector-curvature="0"
       id="path2991-9"
       d="M 30.894585,55.488798 C 22.421801,60.56966 21.789814,62.573515 21.387977,62.872825 18.14076,50.269498 18.949743,47.282218 30.894585,55.488798 z"
       style="fill:#c4d2df;fill-opacity:1;stroke:#c4d2df;stroke-width:1.05871272px;stroke-linecap:round;stroke-linejoin:round;stroke-opacity:1" /><path
       sodipodi:nodetypes="ccc"
       inkscape:connector-curvature="0"
       id="path2991-7"
       d="m 51.98275,62.355288 c 0.26427,3.930846 3.459604,7.148482 7.06302,8.116292 12.328053,-15.29329 10.046463,-18.379461 -7.06302,-8.116292 z"
       style="fill:#c4d2df;fill-opacity:1;stroke:#c4d2df;stroke-width:1.11929834px;stroke-linecap:round;stroke-linejoin:round;stroke-opacity:1" /></g></svg>