<?xml version="1.0" encoding="UTF-8" standalone="no"?>
<!-- Generator: Adobe Illustrator 15.0.0, SVG Export Plug-In . SVG Version: 6.00 Build 0)  -->

<svg
   xmlns:dc="http://purl.org/dc/elements/1.1/"
   xmlns:cc="http://creativecommons.org/ns#"
   xmlns:rdf="http://www.w3.org/1999/02/22-rdf-syntax-ns#"
   xmlns:svg="http://www.w3.org/2000/svg"
   xmlns="http://www.w3.org/2000/svg"
   xmlns:sodipodi="http://sodipodi.sourceforge.net/DTD/sodipodi-0.dtd"
   xmlns:inkscape="http://www.inkscape.org/namespaces/inkscape"
   version="1.1"
   id="Layer_1"
   x="0px"
   y="0px"
   width="90px"
   height="109px"
   viewBox="-1 -1 92 111"
   enable-background="new 0 0 90 109"
   xml:space="preserve"
   inkscape:version="0.48.5 r10040"
   sodipodi:docname="linux.svg"><metadata
     id="metadata11"><rdf:RDF><cc:Work
         rdf:about=""><dc:format>image/svg+xml</dc:format><dc:type
           rdf:resource="http://purl.org/dc/dcmitype/StillImage" /></cc:Work></rdf:RDF></metadata><defs
     id="defs9" /><sodipodi:namedview
     pagecolor="#ffffff"
     bordercolor="#666666"
     borderopacity="1"
     objecttolerance="10"
     gridtolerance="10"
     guidetolerance="10"
     inkscape:pageopacity="0"
     inkscape:pageshadow="2"
     inkscape:window-width="1278"
     inkscape:window-height="595"
     id="namedview7"
     showgrid="false"
     inkscape:snap-bbox="false"
     inkscape:zoom="2.1651376"
     inkscape:cx="-11.973612"
     inkscape:cy="54.5"
     inkscape:window-x="0"
     inkscape:window-y="24"
     inkscape:window-maximized="0"
     inkscape:current-layer="Layer_1" /><g
     id="g3"><path
       d="M71.574,41.851c0-4.685,0.074-10.553-0.033-15.237c-0.047-2.018-0.268-4.076-0.746-6.034   C67.374,6.581,53.823-2.125,39.594,0.45C26.998,2.729,17.621,13.968,17.621,26.786v13.865v1.17c-0.475,0-0.794-0.001-1.116,0H5.023   C2.25,41.821,0,44.07,0,46.844v56.875c0,2.773,2.25,5.023,5.023,5.023h79.451c2.775,0,5.024-2.25,5.024-5.023V46.844   c0-2.774-2.249-5.023-5.024-5.023L71.574,41.851z M52.107,95.118H37.332c-2.322,0-4.203-1.914-4.203-4.274   c0-0.063,0.007-0.127,0.009-0.19c-0.005,0-0.006-1.021-0.008-2.041c-0.001-1.129,0.511-4.289,2.061-6.574   c1.641-2.418,3.855-3.99,6.257-4.697c-3.166-1.291-5.396-4.398-5.396-8.025c0-4.789,3.88-8.668,8.667-8.668   c4.789,0,8.667,3.879,8.667,8.668c0,3.719-2.344,6.891-5.637,8.12c2.332,0.753,4.537,2.313,6.273,4.707   c1.621,2.235,2.285,5.343,2.285,6.47v2.043c-0.006,0.062,0,0.125,0,0.189C56.308,93.204,54.427,95.118,52.107,95.118    M61.779,33.104c-1.562,4.611-4.52,8.305-7.61,11.912c-2.386,2.783-5.19,5.125-8.176,7.247c-0.144,0.103-0.298,0.188-0.685,0.427   c1.781-3.076,3.217-5.998,3.633-9.404c-4.234,1.002-8.227,0.564-12.093-1.14c-6.862-3.023-10.963-9.618-10.263-17.063   c0.573-6.127,3.94-10.543,9.321-13.395c8.667-4.593,19.734-1.655,24.689,6.516C63.482,22.962,63.527,27.945,61.779,33.104"
       id="path5"
       style="opacity:1;fill:none;fill-opacity:0;stroke:#c4d2df;stroke-opacity:1" /></g><path
     style="fill:none;stroke:#000000;stroke-width:1px;stroke-linecap:butt;stroke-linejoin:miter;stroke-opacity:1"
     d="m 48.033898,61.889831 c -0.868568,0.448074 -1.875038,-0.224038 -2.771186,0 -0.333975,0.08349 -0.597141,0.353001 -0.923729,0.461864 -0.438163,0.146054 -0.932698,-0.09058 -1.385593,0 -2.402711,0.480542 -0.461865,0.30791 -2.309322,0.923729 -0.602198,0.200732 -1.237109,0.287479 -1.847458,0.461864 -0.936232,0.267495 -1.810739,0.763654 -2.771186,0.923729 -0.455581,0.07593 -0.930013,-0.07593 -1.385593,0 -4.054327,0.675721 0.706003,0.169897 -2.309323,0.923729 -0.298716,0.07468 -0.625012,-0.07468 -0.923728,0 -0.333975,0.08349 -0.589754,0.37837 -0.923729,0.461864 -0.298716,0.07468 -0.63162,-0.09737 -0.923729,0 -0.206552,0.06885 -0.255312,0.393014 -0.461864,0.461865 -0.292109,0.09737 -0.648326,-0.137702 -0.923729,0 -0.137702,0.06885 0.108862,0.353001 0,0.461864 -0.217725,0.217725 -0.667533,-0.170798 -0.923729,0 -0.362316,0.241544 -0.561413,0.682185 -0.923729,0.923729 -0.128098,0.0854 -0.307909,0 -0.461864,0 -0.153955,0.307909 -0.270907,0.637292 -0.461865,0.923729 -0.241544,0.362316 -0.728989,0.53425 -0.923728,0.923728 -0.06885,0.137702 0.108862,0.353002 0,0.461865 -0.108863,0.108862 -0.333767,-0.0854 -0.461865,0 -0.0072,0.0048 -2.226692,2.144061 -2.309322,2.309322 -0.06885,0.137701 0.06885,0.324163 0,0.461864 -0.961084,1.922169 0.03189,-0.493749 -0.923729,0.461865 -0.108862,0.108862 0.06885,0.324163 0,0.461864 -0.277118,0.554237 -1.108474,0.831356 -1.385593,1.385593 -0.06885,0.137702 0.108863,0.353002 0,0.461865 -0.108862,0.108862 -0.353002,-0.108863 -0.461864,0 -1.802535,1.802534 0.10691,0.248043 -0.461865,1.385593 -1.051269,1.051269 -0.122069,-0.09565 -0.461864,0.923729 -0.321262,0.963785 -1.064332,1.345536 -1.385593,2.309322 -0.04868,0.146054 0,0.307909 0,0.461864 -0.153955,0.461865 -0.24414,0.950143 -0.461865,1.385593 -1.056886,2.113772 0.19143,-1.959883 -0.923729,1.385594 -0.04868,0.146054 0.06885,0.324163 0,0.461864 -0.527012,1.054026 -1.039943,1.272373 -1.385593,2.309322 -0.458297,1.374893 1.093635,-0.947656 -0.461864,1.385593 -0.120772,0.181158 -0.393014,0.255313 -0.461865,0.461865 -0.09737,0.292108 0.09737,0.63162 0,0.923729 -0.06885,0.206552 -0.393013,0.255312 -0.461864,0.461864 -0.09737,0.292109 0.137701,0.648326 0,0.923729 -0.06885,0.137701 -0.353002,-0.108863 -0.461864,0 -0.108863,0.108862 0,0.307909 0,0.461864 0,0.241519 -0.06072,1.726014 0,1.847458 0.399187,0.798374 2.492696,1.292192 3.23305,1.847457 0.34836,0.26127 0.561413,0.682185 0.923729,0.923729 0.128098,0.0854 0.312507,-0.03734 0.461865,0 0.472311,0.118078 0.923728,0.30791 1.385593,0.461865 0.461864,0.153954 0.933566,0.281053 1.385593,0.461864 0.319631,0.127853 0.604098,0.334012 0.923729,0.461864 0.452027,0.180811 0.933566,0.281054 1.385593,0.461865 1.076902,0.430761 0.996341,0.704898 2.309322,0.923729 0.45558,0.07593 0.932698,-0.09058 1.385593,0 0.337569,0.06751 0.604098,0.334012 0.923729,0.461864 0.452027,0.180811 0.923729,0.30791 1.385593,0.461864 0.461865,0.153955 0.9082,0.366386 1.385594,0.461865 0.30193,0.06039 0.621798,-0.06039 0.923728,0 1.325616,0.265118 2.361317,1.163328 3.694916,1.385598 0.45558,0.0759 0.932698,-0.0906 1.385593,0 0.337568,0.0675 0.604097,0.33401 0.923729,0.46186 0.904053,0.36162 1.867132,0.56211 2.771186,0.92373 0.319631,0.12785 0.586161,0.39435 0.923729,0.46186 3.523396,0 -0.364344,-0.20655 2.309322,0.46187 0.298716,0.0747 0.63162,-0.0974 0.923729,0 0.206552,0.0689 0.255312,0.39301 0.461864,0.46186 0.584218,0.19474 1.26324,-0.19474 1.847458,0 0.206552,0.0688 0.248367,0.41917 0.461864,0.46187 0.603861,0.12077 1.231639,0 1.847458,0 0.30791,0 0.648326,-0.13771 0.923729,0 0.137701,0.0688 -0.146055,0.41318 0,0.46186 0.438163,0.14605 0.932698,-0.0906 1.385593,0 0.337568,0.0675 0.597141,0.353 0.923729,0.46186 0.146054,0.0487 0.307909,0 0.461864,0 0.615819,0 1.240017,-0.10124 1.847458,0 0.339569,0.0566 0.589754,0.37838 0.923729,0.46187 0.203821,0.051 2.567365,0.051 2.771186,0 0.333975,-0.0835 0.637293,-0.27091 0.923729,-0.46187 0.181158,-0.12077 0.280706,-0.34109 0.461864,-0.46186 0.286436,-0.19096 0.637293,-0.27091 0.923729,-0.46186 0.181158,-0.12078 0.267125,-0.3645 0.461864,-0.46187 0.137702,-0.0688 0.353002,0.10886 0.461865,0 0.108862,-0.10886 0,-0.30791 0,-0.46186 0,-2.87679 0.137701,1.15037 -0.461865,-1.84746 0,-3.523397 0.206553,0.36434 -0.461864,-2.309323 0,-3.063622 0.217725,0.653175 -0.461864,-1.385593 -0.194739,-0.584217 0.194739,-1.26324 0,-1.847457 -0.137702,-0.413104 -0.682185,-0.561413 -0.923729,-0.923729 -0.190958,-0.286436 -0.270907,-0.637293 -0.461865,-0.923729 -0.120772,-0.181158 -0.341092,-0.280706 -0.461864,-0.461864 -0.190957,-0.286437 -0.270907,-0.637293 -0.461864,-0.923729 -0.241545,-0.362316 -0.72899,-0.534251 -0.923729,-0.923729 -0.06885,-0.137701 0.06885,-0.324163 0,-0.461864 -0.09737,-0.19474 -0.30791,-0.30791 -0.461865,-0.461865 -0.307909,-0.307909 -0.662458,-0.575369 -0.923728,-0.923729 -0.560889,-0.747851 -0.217394,-0.914703 -0.923729,-1.385593 -0.286436,-0.190957 -0.680305,-0.21844 -0.923729,-0.461864 -0.243424,-0.243424 -0.270907,-0.637293 -0.461864,-0.923729 -0.334201,-0.501301 -1.606892,-1.241254 -1.847458,-1.385593 -0.295195,-0.177117 -0.628534,-0.284748 -0.923729,-0.461865 -0.658766,-0.395259 -1.517503,-1.121653 -2.309322,-1.385593 -0.146054,-0.04868 -0.324163,0.06885 -0.461864,0 -0.194739,-0.09737 -0.255313,-0.393014 -0.461865,-0.461864 -0.292108,-0.09737 -0.625012,0.07468 -0.923729,0 -0.333974,-0.08349 -0.597141,-0.353002 -0.923728,-0.461865 -0.146055,-0.04869 -0.353002,0.108863 -0.461865,0 -0.362478,-0.362478 0.7232,-1.185064 0.923729,-1.385593 0.461864,-0.461864 0.863053,-0.993688 1.385593,-1.385593 0.232592,-1.017563 0.950144,-0.24414 1.385593,-0.461865 0.389479,-0.194739 0.534251,-0.728989 0.923729,-0.923728 0.137702,-0.06885 0.30791,0 0.461865,0 0.307909,-0.30791 0.561412,-0.682185 0.923729,-0.923729 0.128098,-0.0854 0.333766,0.0854 0.461864,0 0.30791,-0.30791 0.615819,-0.615819 0.923729,-0.923729 0.153955,0 0.324163,0.06885 0.461864,0 0.454488,-0.227244 1.39297,-1.620214 1.847458,-1.847458 0.637076,-0.318538 0.413125,0.559344 0.923729,-0.461864 0.06885,-0.137701 -0.108863,-0.353002 0,-0.461865 0.108862,-0.108862 0.353002,0.108863 0.461864,0 0.108862,-0.108862 -0.108862,-0.353001 0,-0.461864 0.108862,-0.108862 0.353002,0.108863 0.461864,0 0.108863,-0.108862 -0.108862,-0.353002 0,-0.461864 0.108863,-0.108863 0.353002,0.108862 0.461865,0 0.243424,-0.243424 0.270907,-0.637293 0.461864,-0.923729 0.265695,-0.398543 1.024837,-1.024837 1.385593,-1.385593 0.153955,-0.153955 0.364495,-0.267126 0.461865,-0.461865 0.06885,-0.137701 -0.108863,-0.353002 0,-0.461864 0.108862,-0.108863 0.353002,0.108862 0.461864,0 0.108863,-0.108863 -0.06885,-0.324163 0,-0.461865 0.227244,-0.454487 1.620214,-1.392969 1.847458,-1.847457 0.06885,-0.137702 -0.0854,-0.333766 0,-0.461865 0.241544,-0.362316 0.615819,-0.615819 0.923729,-0.923728 0.153954,-0.153955 0.364495,-0.267126 0.461864,-0.461865 0.06885,-0.137701 -0.06885,-0.324163 0,-0.461864 0.09737,-0.194739 0.30791,-0.30791 0.461865,-0.461865 0.686176,-0.686176 1.385593,-1.160734 1.385593,-2.309322 0,-0.344253 -0.353002,-0.597141 -0.461865,-0.923728 -0.04868,-0.146055 0.108863,-0.353002 0,-0.461865 -0.108862,-0.108862 -0.353002,0.108863 -0.461864,0 -0.243424,-0.243424 -0.218441,-0.680305 -0.461864,-0.923729 -1.166625,-1.166624 -0.532432,-0.177477 -1.385594,-0.461864 -1.847457,-0.615819 0.09339,-0.443187 -2.309322,-0.923729 -0.289953,-0.05799 -2.080684,0.114319 -2.309322,0 -0.375548,-0.187774 -0.382151,-0.732653 -0.923729,-0.461864 -0.194739,0.09737 -0.267125,0.364495 -0.461864,0.461864 -0.275403,0.137701 -0.648326,-0.137701 -0.923729,0 -1.531811,1.531811 0.43545,-0.217725 -0.923729,0.461864 -0.194739,0.09737 -0.267125,0.364495 -0.461864,0.461865 -0.275403,0.137701 -0.648326,-0.137701 -0.923729,0 -0.194739,0.09737 -0.267125,0.364495 -0.461864,0.461864 -0.137702,0.06885 -0.30791,0 -0.461865,0 -0.769774,0.461865 -1.539548,0.923729 -2.309322,1.385594 z"
     id="path2986"
     inkscape:connector-curvature="0"
     transform="matrix(1.0222222,0,0,1.0222222,-1,-1.2111111)" /><path
     style="fill:none;stroke:#000000;stroke-width:1px;stroke-linecap:butt;stroke-linejoin:miter;stroke-opacity:1"
     d="m 37.411017,70.20339 c -0.615819,0 -1.847458,0.615819 -1.847458,0 0,-0.615819 2.282908,-0.43545 1.847458,0 -0.555092,0.555092 -1.554508,0.246203 -2.309322,0.461864 -0.331008,0.09457 -0.597141,0.353002 -0.923729,0.461865 -0.146054,0.04868 -0.324163,-0.06885 -0.461864,0 -0.194739,0.09737 -0.267126,0.364494 -0.461865,0.461864 -0.137701,0.06885 -0.353002,-0.108862 -0.461864,0 -0.108863,0.108863 0,0.30791 0,0.461864 0,0.153955 -0.108863,0.353002 0,0.461865 0.217725,0.217725 0.706004,-0.217725 0.923729,0 0.108862,0.108862 -0.108863,0.353002 0,0.461864 0.955614,0.955614 -0.03736,-1.460304 0.923729,0.461865 0.06885,0.137701 -0.108863,0.353002 0,0.461864 0.217724,0.217725 0.706003,-0.217725 0.923728,0 0.108863,0.108863 -0.108862,0.353002 0,0.461864 0.09442,0.09442 1.202468,-0.09156 1.385594,0 0.194739,0.09737 0.255312,0.393014 0.461864,0.461865 0.292109,0.09737 0.648326,-0.137701 0.923729,0 0.137701,0.06885 -0.108863,0.353002 0,0.461864 0.01485,0.01485 1.273579,0 1.385593,0 0.153955,0 0.353002,0.108863 0.461864,0 0.108863,-0.108862 -0.06885,-0.324163 0,-0.461864 0.09737,-0.194739 0.364495,-0.267125 0.461865,-0.461865 0.01913,-0.03825 0.01981,-1.326165 0,-1.385593 -0.108863,-0.326587 -0.353002,-0.597141 -0.461865,-0.923729 -0.138559,-0.415678 0.13856,-0.969915 0,-1.385593 -0.108862,-0.326587 -0.122295,-0.867134 -0.461864,-0.923729 -0.774338,-0.129056 -1.539548,0.30791 -2.309322,0.461865 z"
     id="path2988"
     inkscape:connector-curvature="0"
     transform="matrix(1.0222222,0,0,1.0222222,-1,-1.2111111)" /></svg>