<?xml version="1.0" encoding="UTF-8" standalone="no"?>
<!-- Generator: Adobe Illustrator 15.0.0, SVG Export Plug-In . SVG Version: 6.00 Build 0)  -->

<svg
   xmlns:dc="http://purl.org/dc/elements/1.1/"
   xmlns:cc="http://creativecommons.org/ns#"
   xmlns:rdf="http://www.w3.org/1999/02/22-rdf-syntax-ns#"
   xmlns:svg="http://www.w3.org/2000/svg"
   xmlns="http://www.w3.org/2000/svg"
   xmlns:sodipodi="http://sodipodi.sourceforge.net/DTD/sodipodi-0.dtd"
   xmlns:inkscape="http://www.inkscape.org/namespaces/inkscape"
   version="1.1"
   id="Layer_1"
   x="0px"
   y="0px"
   width="90px"
   height="109px"
   viewBox="-1 -1 92 111"
   enable-background="new 0 0 90 109"
   xml:space="preserve"
   inkscape:version="0.48.5 r10040"
   sodipodi:docname="linux_dark.svg"><metadata
     id="metadata11"><rdf:RDF><cc:Work
         rdf:about=""><dc:format>image/svg+xml</dc:format><dc:type
           rdf:resource="http://purl.org/dc/dcmitype/StillImage" /></cc:Work></rdf:RDF></metadata><defs
     id="defs9" /><sodipodi:namedview
     pagecolor="#ffffff"
     bordercolor="#666666"
     borderopacity="1"
     objecttolerance="10"
     gridtolerance="10"
     guidetolerance="10"
     inkscape:pageopacity="0"
     inkscape:pageshadow="2"
     inkscape:window-width="1680"
     inkscape:window-height="1011"
     id="namedview7"
     showgrid="false"
     inkscape:snap-bbox="false"
     inkscape:zoom="6.123934"
     inkscape:cx="36.00093"
     inkscape:cy="39.697045"
     inkscape:window-x="0"
     inkscape:window-y="20"
     inkscape:window-maximized="1"
     inkscape:current-layer="Layer_1" /><g
     id="g3"
     style="stroke:#414141;stroke-opacity:1"><path
       d="m 71.574,41.851 c 0,-4.685 0.074,-10.553 -0.033,-15.237 C 71.494,24.596 71.273,22.538 70.795,20.58 67.374,6.581 53.823,-2.125 39.594,0.45 26.998,2.729 17.621,13.968 17.621,26.786 l 0,13.865 0,1.17 c -0.475,0 -0.794,-10e-4 -1.116,0 l -11.482,0 C 2.25,41.821 0,44.07 0,46.844 l 0,56.875 c 0,2.773 2.25,5.023 5.023,5.023 l 79.451,0 c 2.775,0 5.024,-2.25 5.024,-5.023 l 0,-56.875 c 0,-2.774 -2.249,-5.023 -5.024,-5.023 z m -9.795,-8.747 c -1.562,4.611 -4.52,8.305 -7.61,11.912 -2.386,2.783 -5.19,5.125 -8.176,7.247 -0.144,0.103 -0.298,0.188 -0.685,0.427 1.781,-3.076 3.217,-5.998 3.633,-9.404 -4.234,1.002 -8.227,0.564 -12.093,-1.14 -6.862,-3.023 -10.963,-9.618 -10.263,-17.063 0.573,-6.127 3.94,-10.543 9.321,-13.395 8.667,-4.593 19.734,-1.655 24.689,6.516 2.887,4.758 2.932,9.741 1.184,14.9"
       id="path5"
       style="fill:none;stroke:#414141;stroke-opacity:1"
       inkscape:connector-curvature="0"
       sodipodi:nodetypes="ccccscccssssssscccccccccccc" /></g><path
     inkscape:connector-curvature="0"
     d="m 44.125718,64.971476 c 0.154875,0.01407 0.263992,0.08799 0.32735,0.221755 0.06336,0.133756 0.123195,0.200634 0.179515,0.200634 0.0704,0.01407 0.105595,-0.02112 0.105595,-0.105596 0,-0.168956 -0.133756,-0.274554 -0.401268,-0.316793 z m -1.837388,0.295672 c 0.05632,0.01407 0.137277,-0.03168 0.242875,-0.137275 0.105596,-0.105598 0.228792,-0.137278 0.369587,-0.09504 -0.337909,-0.154874 -0.563182,-0.140795 -0.67582,0.04224 -0.04224,0.08448 -0.02112,0.147836 0.06336,0.190075 z M 31.644159,81.866987 c 0,-0.253433 0.387189,-0.549105 1.161566,-0.887015 -0.05632,-0.211193 -0.109116,-0.404788 -0.158397,-0.580782 -0.04927,-0.175995 -0.08447,-0.35903 -0.105595,-0.549105 -0.02112,-0.190076 -0.04223,-0.341431 -0.06336,-0.454067 -0.02112,-0.112635 -0.02463,-0.271031 -0.01056,-0.475186 0.01407,-0.204156 0.02111,-0.341432 0.02111,-0.411829 0,-0.0704 0.02464,-0.225272 0.07392,-0.464626 0.04927,-0.239354 0.07743,-0.383669 0.08448,-0.432946 0.007,-0.04927 0.04224,-0.225273 0.105597,-0.527988 0.06336,-0.30271 0.102077,-0.489264 0.116159,-0.559661 0.140795,-0.675821 0.471664,-1.40092 0.992608,-2.175296 0.520946,-0.774378 1.027813,-1.302364 1.520598,-1.583957 -0.337911,0.281593 -0.739181,0.865896 -1.203808,1.752911 -1.224923,2.280894 -1.605071,4.237957 -1.140444,5.871189 0.154874,0.563185 0.506864,0.858857 1.055969,0.887016 0.436467,0.05632 0.707499,-0.07392 0.813097,-0.390711 0.105597,-0.31679 0.161916,-0.904612 0.168954,-1.763468 0.007,-0.858855 0.088,-1.612113 0.242872,-2.259774 0.126716,-0.549105 0.263993,-1.034851 0.411831,-1.457237 0.518577,-1.434406 1.466307,-2.826161 1.826826,-4.11828 0.239353,-0.577263 0.447028,-0.971493 0.623023,-1.182688 0.175994,-0.211193 0.341429,-0.443506 0.496304,-0.696938 0.154876,-0.253434 0.260473,-0.535027 0.316792,-0.844777 0.05632,-0.295671 0.01407,-0.6723 -0.126719,-1.129887 -0.140794,-0.457586 -0.172473,-0.806055 -0.09504,-1.045409 0.07744,-0.239354 0.390709,-0.415349 0.939814,-0.527985 0.211193,-0.04224 0.524464,-0.168955 0.939812,-0.380148 0.415347,-0.211195 0.665259,-0.323832 0.749737,-0.337911 0.112638,-0.01407 0.190076,-0.197107 0.232315,-0.549104 0.06176,-0.896382 -0.289905,-1.678434 -0.929254,-1.647311 -1.160106,0.153083 -1.220971,0.930941 -1.161567,1.858505 0.154876,0.267512 0.168957,0.454067 0.04224,0.559662 -0.126716,0.105597 -0.33791,0.109117 -0.633583,0.01056 -0.183035,-0.05631 -0.274553,-0.309748 -0.274553,-0.760296 l 0,-0.781419 c 0.0704,-0.422387 0.165438,-0.774377 0.285113,-1.055969 0.119676,-0.281591 0.267512,-0.496305 0.443506,-0.644141 0.175995,-0.147836 0.341431,-0.253433 0.496307,-0.31679 0.154875,-0.06336 0.344949,-0.116158 0.570222,-0.158396 1.506519,0.112635 2.13306,1.055969 1.879626,2.829999 0,0.211194 0.007,0.31679 0.02111,0.31679 0.126716,-0.126716 0.334391,-0.200634 0.623023,-0.221754 0.288631,-0.02112 0.520944,-0.0176 0.696939,0.01056 0.175994,0.02816 0.285111,-0.007 0.32735,-0.105596 -0.01407,-0.802537 0.09857,-1.436119 0.337911,-1.900746 0.239353,-0.464627 0.556144,-0.70398 0.950373,-0.718058 0.380148,-0.01407 0.672299,0.179521 0.876454,0.580782 0.204154,0.401268 0.320309,0.820135 0.348468,1.256603 0.01407,0.211195 -0.01057,0.471668 -0.07392,0.781419 -0.06336,0.309751 -0.154876,0.573743 -0.274552,0.791976 -0.119678,0.218234 -0.228794,0.31327 -0.32735,0.28511 -0.140796,-0.04224 -0.253433,-0.140795 -0.33791,-0.29567 -0.05632,-0.126716 -0.007,-0.183034 0.147833,-0.168956 0.09856,0 0.207675,-0.102077 0.327353,-0.30623 0.119676,-0.204153 0.186554,-0.439986 0.200635,-0.707498 0.01407,-0.309752 -0.04929,-0.570224 -0.190077,-0.78142 -0.140795,-0.211193 -0.380148,-0.30975 -0.718059,-0.29567 -0.239352,0 -0.429426,0.147836 -0.570222,0.443507 -0.140797,0.29567 -0.207675,0.570222 -0.200634,0.823657 0.007,0.253432 0.0176,0.408307 0.03167,0.464626 0.309752,0.211194 0.527986,0.415347 0.654701,0.612463 0.112638,0.168954 0.306233,0.334389 0.580785,0.496304 0.274553,0.161914 0.418868,0.249912 0.432947,0.263992 0.183034,0.197115 0.292151,0.38719 0.327349,0.570225 0.0352,0.183033 -0.0176,0.309749 -0.158393,0.380148 -0.197116,0.112636 -0.37311,0.249913 -0.527984,0.411829 -0.154876,0.161914 -0.267513,0.295671 -0.33791,0.401268 -0.0704,0.105596 -0.200636,0.197113 -0.390709,0.274552 -0.190075,0.07744 -0.439988,0.123196 -0.749739,0.137276 -0.66174,0.02816 -1.3798,-0.07744 -2.154178,-0.316792 -0.02816,-0.01408 -0.190071,-0.06335 -0.485748,-0.147833 -0.29567,-0.08448 -0.538543,-0.158398 -0.728618,-0.221755 -0.190073,-0.06336 -0.397747,-0.154877 -0.62302,-0.274553 -0.225273,-0.119675 -0.37311,-0.242872 -0.443509,-0.36959 -0.126716,-0.197114 -0.267511,-0.253432 -0.422386,-0.168955 -0.0704,0.04224 -0.116157,0.102077 -0.137276,0.179515 -0.02112,0.07744 2e-6,0.161917 0.06336,0.253435 0.06336,0.09152 0.179514,0.158395 0.348469,0.200634 0.281592,0.08448 0.679341,0.235833 1.193248,0.454066 0.513904,0.218233 0.834214,0.35551 0.96093,0.411828 0.619501,0.267513 1.112287,0.429428 1.478358,0.485745 0.351989,0.0704 0.908133,0.05632 1.668431,-0.04223 0.140797,-0.02816 0.204155,-0.01408 0.190074,0.04223 -0.01408,0.05631 -0.133748,0.190074 -0.359027,0.401268 -0.351991,0.323831 -0.823657,0.478707 -1.415001,0.464627 -0.239353,-0.01408 -0.492785,-0.06335 -0.760298,-0.147837 -0.267512,-0.08448 -0.520945,-0.183034 -0.760297,-0.29567 -0.239353,-0.112637 -0.475187,-0.235834 -0.707501,-0.369591 -0.232313,-0.133756 -0.443507,-0.253432 -0.63358,-0.359028 -0.190075,-0.105597 -0.362551,-0.190074 -0.517427,-0.253431 -0.154875,-0.06336 -0.278071,-0.08096 -0.369588,-0.0528 -0.09152,0.02816 -0.151356,0.105599 -0.179514,0.232315 0,0.02816 0.007,0.05983 0.02111,0.09504 0.01407,0.0352 0.04223,0.0704 0.08448,0.105597 0.04224,0.0352 0.08448,0.06688 0.126716,0.09504 0.04224,0.02816 0.102076,0.06336 0.179514,0.105595 0.07744,0.04224 0.140798,0.07392 0.190077,0.09504 0.04927,0.02112 0.119674,0.05632 0.211191,0.105596 0.09152,0.04927 0.158396,0.08096 0.200635,0.09504 0.39423,0.197114 0.869417,0.506865 1.425559,0.929254 0.556145,0.422386 1.024292,0.725097 1.40444,0.908132 0.380148,0.183035 0.725099,0.190071 1.034852,0.02111 0.29567,-0.154877 0.739178,-0.668782 1.330521,-1.541716 0.30975,-0.436467 0.485745,-0.591342 0.527983,-0.464626 0.01407,0.04224 0.02111,0.112636 0.02111,0.211194 0,0.35199 0.105598,0.749738 0.316793,1.193246 1.079558,1.724344 1.352943,3.924874 2.143615,5.628314 0.556145,1.182687 0.890535,2.175299 1.003171,2.977836 0.02816,0.253432 0.03872,0.739177 0.03167,1.457237 -0.007,0.718058 0.03168,1.133406 0.116156,1.246044 0.112637,0.337909 0.316792,0.359028 0.612462,0.06336 0.450548,-0.436467 0.703981,-1.098208 0.7603,-1.985223 0.02816,-0.394228 -4e-6,-0.788458 -0.08448,-1.182688 -0.05632,-0.267512 -0.04928,-0.394228 0.02111,-0.380148 l 0.08447,0.105599 c 0.506866,0.915172 0.436468,2.083779 -0.211195,3.505818 -0.0704,0.168954 -0.246391,0.366069 -0.527983,0.591342 -0.281592,0.225274 -0.450547,0.36607 -0.506865,0.422389 -0.281592,0.323829 -1.013731,0.96093 -2.196416,1.911303 -1.182686,0.950374 -1.837387,1.488918 -1.964104,1.615634 -0.225274,0.211196 -0.34847,0.478707 -0.369588,0.802537 -0.02112,0.323831 0.07744,0.626541 0.29567,0.90813 0.218235,0.281594 0.538546,0.443511 0.960933,0.485753 -0.112636,0.211195 -0.31679,0.524464 -0.612463,0.939808 -0.29567,0.415348 -0.492785,0.795497 -0.591342,1.140446 -0.09856,0.344949 -0.147837,0.841257 -0.147837,1.488923 -0.64766,-0.337911 -0.696939,-0.985575 -0.147836,-1.942991 0.05632,-0.112636 0.130237,-0.225272 0.221755,-0.337907 0.09152,-0.112636 0.158395,-0.197113 0.200634,-0.253431 0.04224,-0.05632 0.05632,-0.09856 0.04224,-0.126718 -0.04224,-0.0704 -0.133755,-0.137276 -0.274552,-0.200632 -0.140796,-0.06336 -0.281592,-0.04576 -0.422389,0.05281 -0.64766,0.73214 -1.816265,0.985573 -3.505816,0.760297 -1.872587,-0.21119 -3.118631,-0.82365 -3.738132,-1.837381 -0.323832,-0.535025 -0.563184,-0.746221 -0.718059,-0.633585 -0.168957,0.08448 -0.239356,0.450549 -0.211197,1.098211 0.01407,0.351988 0.175988,0.999647 0.485747,1.942979 0.126715,0.323831 0.168954,0.587825 0.126715,0.791981 -0.04224,0.204153 -0.211192,0.31327 -0.506864,0.32735 -0.04224,-0.267512 -0.144315,-0.809576 -0.306232,-1.626192 -0.161915,-0.816616 -0.256951,-1.450196 -0.28511,-1.900744 -0.02816,-0.295673 0.0176,-0.8131 0.137277,-1.552279 0.119675,-0.739178 0.172473,-1.422037 0.158393,-2.048579 -0.01407,-0.626542 -0.175988,-1.122848 -0.485744,-1.488918 -0.211193,-0.253434 -0.570223,-0.380151 -1.07709,-0.380151 -0.01407,-0.520944 -0.256945,-0.894052 -0.728618,-1.119324 -0.471665,-0.225273 -0.982051,-0.299191 -1.531155,-0.221755 -0.549106,0.07744 -0.971494,0.235833 -1.267164,0.475187 z M 44.907135,64.401254 c -0.104442,-0.443171 0.01639,-0.780788 0.295671,-0.950373 0.126718,-0.02816 0.190076,0.02112 0.190076,0.147836 -0.02816,0.0704 -0.06336,0.112635 -0.105598,0.126716 -0.140796,0 -0.190075,0.105596 -0.147837,0.31679 0.04224,0.281592 -0.01408,0.422389 -0.168953,0.422389 -0.04224,0 -0.06336,-0.02112 -0.06336,-0.06336 z m -5.089774,-0.33791 c 0,-0.154876 0.0352,-0.292153 0.105599,-0.411829 0.0704,-0.119676 0.147835,-0.207673 0.232311,-0.263992 0.08448,-0.05632 0.147837,-0.07744 0.190075,-0.06336 0.197115,0.01408 0.246394,0.06335 0.147836,0.147838 -0.351923,0.158485 -0.360143,0.473287 -0.464626,0.696933 -0.109912,0.05898 -0.13137,-0.06568 -0.211195,-0.10559 z M 26.74446,87.463623 c -0.28159,0.168957 -0.499824,0.341432 -0.6547,0.517424 -0.154875,0.175996 -0.239352,0.344952 -0.253432,0.506867 -0.01407,0.161916 0.0036,0.320312 0.0528,0.47519 0.04927,0.154873 0.158394,0.309747 0.32735,0.464625 0.168954,0.154873 0.33439,0.292148 0.496307,0.411827 0.161915,0.119674 0.373109,0.249909 0.633583,0.390705 0.260472,0.140801 0.482225,0.256958 0.665261,0.348471 0.183033,0.09152 0.408305,0.200634 0.675818,0.32735 0.267512,0.126717 0.457587,0.218236 0.570225,0.274558 0.535022,0.267508 1.136924,0.661737 1.805707,1.182687 0.668779,0.520943 1.200282,0.971485 1.594511,1.351636 0.239354,0.225271 0.718061,0.362544 1.43612,0.411818 0.71806,0.04924 1.344601,-0.05279 1.879625,-0.306227 0.253432,-0.126707 0.461107,-0.292138 0.623024,-0.496292 0.161914,-0.204156 0.278071,-0.383672 0.34847,-0.53855 0.0704,-0.154873 0.225272,-0.292149 0.464624,-0.411827 0.239354,-0.119679 0.570224,-0.186558 0.99261,-0.200639 0.619503,-0.01408 1.534677,-0.02112 2.745522,-0.02112 0.267512,0 0.66878,0.01057 1.203805,0.03169 0.535024,0.02112 0.943333,0.03873 1.224925,0.05282 0.619502,0.01408 1.179165,0.11968 1.678992,0.316793 0.499824,0.197115 0.876453,0.408307 1.129886,0.633576 0.253433,0.225279 0.559664,0.425917 0.918694,0.601906 0.359029,0.175989 0.735658,0.256945 1.129886,0.242863 0.408309,-0.01407 1.189726,-0.232297 2.344253,-0.654697 1.154526,-0.422386 2.182337,-0.725096 3.083432,-0.908131 0.267512,-0.05631 0.62654,-0.123196 1.077086,-0.200633 0.450547,-0.07744 0.802537,-0.140798 1.055971,-0.190074 0.253432,-0.04928 0.531504,-0.116161 0.834215,-0.200638 0.302711,-0.08448 0.538545,-0.186555 0.707501,-0.306229 0.168955,-0.119678 0.28863,-0.256955 0.359028,-0.411833 0.140797,-0.323827 0.09152,-0.791973 -0.147836,-1.40444 -0.239352,-0.612458 -0.366068,-0.996126 -0.380148,-1.151003 -0.01407,-0.225272 0.01409,-0.506864 0.08448,-0.844775 0.0704,-0.337911 0.140795,-0.637103 0.211194,-0.897575 0.0704,-0.260471 0.102076,-0.517423 0.09504,-0.770855 -0.007,-0.253435 -0.08096,-0.443509 -0.221752,-0.570225 -0.197115,-0.168955 -0.598384,-0.267511 -1.203805,-0.29567 -0.605424,-0.02816 -1.027812,-0.112639 -1.267163,-0.253435 -0.422389,-0.253432 -0.718061,-0.499825 -0.887015,-0.73918 -0.168955,-0.239353 -0.253432,-0.598382 -0.253432,-1.077085 -0.295673,1.027808 -0.0704,1.774027 0.67582,2.238654 0.450545,0.281592 1.034848,0.387189 1.752908,0.31679 0.478705,-0.04224 0.781417,0.02816 0.908135,0.211194 0.183035,0.211194 0.147836,0.612462 -0.105599,1.203805 -0.02816,0.08448 -0.08447,0.211192 -0.168954,0.380146 -0.08448,0.168957 -0.144316,0.295675 -0.179517,0.380155 -0.0352,0.08447 -0.06688,0.20415 -0.09503,0.359028 -0.02816,0.154877 -0.0352,0.309752 -0.02111,0.464625 0,0.211196 0.119677,0.556145 0.359031,1.034849 0.239352,0.478708 0.337908,0.816619 0.29567,1.013734 -0.04224,0.239351 -0.30271,0.422385 -0.781417,0.549102 -0.281592,0.08448 -0.876455,0.214717 -1.784588,0.390713 -0.908134,0.175991 -1.608595,0.320305 -2.10138,0.43294 -0.337909,0.08448 -0.858854,0.239357 -1.562833,0.464634 -0.703979,0.225271 -1.284763,0.387184 -1.742351,0.485739 -0.457587,0.09856 -0.848295,0.126718 -1.172127,0.08448 -0.605421,-0.08447 -1.059488,-0.281587 -1.362199,-0.591337 -0.302711,-0.309751 -0.464626,-0.647663 -0.485746,-1.013735 -0.02112,-0.366069 0.03168,-0.777895 0.158397,-1.235481 0.126715,-0.457589 0.260471,-0.823659 0.401267,-1.098211 0.140797,-0.274551 0.281592,-0.531502 0.422387,-0.770854 1.703631,-2.675124 2.893357,-4.378755 3.569178,-5.110893 0.957411,-1.041891 1.752908,-1.323483 2.38649,-0.844777 0.154876,0.126715 0.260473,0.02112 0.31679,-0.316791 0.04224,-0.225273 0.05632,-0.492786 0.04224,-0.802537 -0.01407,-0.408308 -0.08447,-0.774378 -0.211194,-1.098207 -0.126716,-0.323831 -0.295672,-0.654703 -0.506868,-0.992614 -0.211193,-0.337909 -0.366069,-0.633579 -0.464626,-0.887012 -0.112636,-0.295673 -0.29919,-0.802537 -0.559662,-1.520595 -0.260473,-0.71806 -0.468147,-1.267165 -0.623023,-1.647315 -0.154875,-0.380148 -0.366068,-0.809575 -0.63358,-1.28828 -0.267513,-0.478708 -0.542065,-0.858857 -0.823657,-1.140448 -1.548755,-2.013381 -2.42169,-3.386142 -2.618805,-4.11828 0.168956,-1.576914 0.281593,-3.759251 0.337911,-6.54701 0.02816,-1.267164 -0.140794,-2.333693 -0.506865,-3.199587 -1.037077,-1.769801 -2.607531,-2.639131 -4.435073,-2.650485 -1.546334,-0.02165 -2.884176,0.425306 -4.11828,1.161567 -1.892949,1.525457 -2.336397,3.65943 -2.441405,5.681116 0.002,1.770907 -0.254835,2.844077 -0.747621,4.519549 -1.147154,3.238481 -3.691857,5.235154 -4.910257,8.046485 -0.832156,1.975086 -1.346952,3.807957 -1.362201,5.818392 0.04224,0.499827 0.126715,0.890534 0.253431,1.172125 0.126717,0.281593 0.267513,0.436469 0.422389,0.46463 0.140797,0.02816 0.306233,0.16191 0.496307,0.401266 0.190076,0.239353 0.38015,0.489265 0.570222,0.749738 0.190075,0.260473 0.475186,0.496305 0.855335,0.707499 0.380151,0.211195 0.809578,0.309753 1.288284,0.295672 0.253432,-0.01407 0.475185,-0.04927 0.66526,-0.105598 0.190074,-0.05632 0.348469,-0.151354 0.475187,-0.28511 0.126716,-0.133756 0.221753,-0.242872 0.285109,-0.32735 0.06336,-0.08448 0.144318,-0.228794 0.242876,-0.432949 0.09856,-0.204153 0.161913,-0.341429 0.190073,-0.411826 0.309752,-0.520946 0.598383,-0.73214 0.865895,-0.633582 0.267513,0.09856 0.464627,0.443506 0.591343,1.034848 0.126716,0.591345 0.07744,1.274206 -0.147837,2.048582 -0.28159,0.985568 -0.288626,2.358327 -0.02111,4.118279 0.140796,0.915175 0.01408,1.622676 -0.380148,2.122504 -0.394229,0.499824 -0.908134,0.732138 -1.541717,0.696941 -0.633579,-0.03521 -1.231962,-0.285124 -1.795147,-0.749742 -0.830695,-0.689899 -1.460758,-1.158045 -1.890186,-1.40444 -0.429427,-0.246394 -1.158046,-0.545585 -2.185856,-0.897573 -0.746218,-0.253433 -1.288282,-0.510386 -1.626191,-0.770861 -0.33791,-0.26047 -0.468146,-0.503343 -0.390709,-0.728619 0.07744,-0.225272 0.253433,-0.425905 0.527985,-0.601901 0.274553,-0.175996 0.637101,-0.34143 1.087647,-0.496304 0.464627,-0.154877 0.813098,-0.492788 1.045411,-1.013731 0.232314,-0.520945 0.337911,-1.03133 0.316791,-1.531156 -0.02113,-0.499826 -0.130239,-0.834216 -0.327351,-1.00317 -0.01408,0.436467 -0.07039,0.834215 -0.168957,1.193244 -0.09856,0.35903 -0.200633,0.644141 -0.30623,0.855335 -0.105597,0.211194 -0.249913,0.411827 -0.432948,0.601903 -0.183035,0.190075 -0.330871,0.32383 -0.443506,0.401268 -0.112636,0.07744 -0.263991,0.168956 -0.454067,0.274555 -0.190075,0.105598 -0.306232,0.172475 -0.348471,0.200631 z"
     id="path4"
     style="fill:#424242;fill-opacity:1;stroke:none"
     sodipodi:nodetypes="cscscccccccccccccsscscsccccsscccsscsscsccccscscsscccccscccsccscccscccssccscscsccccscscccccscccccccssscsccccccccsscccscccscccccccscscsscssccssccccccccscscscccsscccccccscccsccccccccssccscsccccsscsscscscscscsccsccsscscsccccccsccsccscsccssssccccccscsssccccccccccscsssccscscssccsccscssscssccsssscc" /></svg>