<?xml version="1.0" encoding="UTF-8" standalone="no"?>
<!-- Generator: Adobe Illustrator 15.0.0, SVG Export Plug-In . SVG Version: 6.00 Build 0)  -->

<svg
   xmlns:dc="http://purl.org/dc/elements/1.1/"
   xmlns:cc="http://creativecommons.org/ns#"
   xmlns:rdf="http://www.w3.org/1999/02/22-rdf-syntax-ns#"
   xmlns:svg="http://www.w3.org/2000/svg"
   xmlns="http://www.w3.org/2000/svg"
   xmlns:sodipodi="http://sodipodi.sourceforge.net/DTD/sodipodi-0.dtd"
   xmlns:inkscape="http://www.inkscape.org/namespaces/inkscape"
   version="1.1"
   id="Layer_1"
   x="0px"
   y="0px"
   width="90px"
   height="109px"
   viewBox="-1 -1 92 111"
   enable-background="new 0 0 90 109"
   xml:space="preserve"
   inkscape:version="0.48.5 r10040"
   sodipodi:docname="linux.svg"><metadata
     id="metadata11"><rdf:RDF><cc:Work
         rdf:about=""><dc:format>image/svg+xml</dc:format><dc:type
           rdf:resource="http://purl.org/dc/dcmitype/StillImage" /></cc:Work></rdf:RDF></metadata><defs
     id="defs9" /><sodipodi:namedview
     pagecolor="#ffffff"
     bordercolor="#666666"
     borderopacity="1"
     objecttolerance="10"
     gridtolerance="10"
     guidetolerance="10"
     inkscape:pageopacity="0"
     inkscape:pageshadow="2"
     inkscape:window-width="1680"
     inkscape:window-height="1011"
     id="namedview7"
     showgrid="false"
     inkscape:snap-bbox="false"
     inkscape:zoom="97.982944"
     inkscape:cx="42.38707"
     inkscape:cy="46.875624"
     inkscape:window-x="0"
     inkscape:window-y="20"
     inkscape:window-maximized="1"
     inkscape:current-layer="Layer_1" /><g
     id="g3"><path
       d="m 71.574,41.851 c 0,-4.685 0.074,-10.553 -0.033,-15.237 C 71.494,24.596 71.273,22.538 70.795,20.58 67.374,6.581 53.823,-2.125 39.594,0.45 26.998,2.729 17.621,13.968 17.621,26.786 l 0,13.865 0,1.17 c -0.475,0 -0.794,-10e-4 -1.116,0 l -11.482,0 C 2.25,41.821 0,44.07 0,46.844 l 0,56.875 c 0,2.773 2.25,5.023 5.023,5.023 l 79.451,0 c 2.775,0 5.024,-2.25 5.024,-5.023 l 0,-56.875 c 0,-2.774 -2.249,-5.023 -5.024,-5.023 z m -9.795,-8.747 c -1.562,4.611 -4.52,8.305 -7.61,11.912 -2.386,2.783 -5.19,5.125 -8.176,7.247 -0.144,0.103 -0.298,0.188 -0.685,0.427 1.781,-3.076 3.217,-5.998 3.633,-9.404 -4.234,1.002 -8.227,0.564 -12.093,-1.14 -6.862,-3.023 -10.963,-9.618 -10.263,-17.063 0.573,-6.127 3.94,-10.543 9.321,-13.395 8.667,-4.593 19.734,-1.655 24.689,6.516 2.887,4.758 2.932,9.741 1.184,14.9"
       id="path5"
       style="fill:none;stroke:#c4d2df;stroke-opacity:1"
       inkscape:connector-curvature="0"
       sodipodi:nodetypes="ccccscccssssssscccccccccccc" /></g><path
     inkscape:connector-curvature="0"
     d="m 40.293566,63.50859 c 0.200373,0.01821 0.341546,0.11384 0.423518,0.286901 0.08197,0.173051 0.159386,0.259576 0.232251,0.259576 0.09108,0.01821 0.136617,-0.02733 0.136617,-0.136617 0,-0.218592 -0.17305,-0.355212 -0.519151,-0.40986 z m -2.377167,0.382534 c 0.07286,0.01821 0.177606,-0.04099 0.314226,-0.177604 0.136617,-0.13662 0.296005,-0.177606 0.478163,-0.122958 -0.437179,-0.200373 -0.728632,-0.182157 -0.87436,0.05465 -0.05465,0.109295 -0.02732,0.191266 0.08197,0.245912 z M 24.145236,85.367583 c 0,-0.327886 0.500935,-0.710419 1.502804,-1.147598 -0.07286,-0.273237 -0.141171,-0.523705 -0.204929,-0.751402 -0.06375,-0.227698 -0.109292,-0.464504 -0.136617,-0.710418 -0.02732,-0.245915 -0.05464,-0.441735 -0.08197,-0.58746 -0.02732,-0.145725 -0.03187,-0.350654 -0.01366,-0.614785 0.01821,-0.264131 0.02731,-0.441735 0.02731,-0.532813 0,-0.09108 0.03188,-0.291452 0.09563,-0.601122 0.06375,-0.30967 0.100184,-0.496382 0.109293,-0.560135 0.0091,-0.06375 0.05465,-0.291452 0.13662,-0.683097 0.08197,-0.391639 0.132064,-0.632998 0.150283,-0.724076 0.182157,-0.874361 0.610227,-1.812475 1.284212,-2.814344 0.673987,-1.001871 1.329758,-1.684966 1.967312,-2.049284 -0.437181,0.364318 -0.956334,1.120275 -1.557457,2.267872 -1.584775,2.950964 -2.076602,5.482964 -1.475479,7.595999 0.200373,0.728635 0.655769,1.111168 1.366187,1.147599 0.56469,0.07286 0.915345,-0.09564 1.051965,-0.505492 0.136619,-0.409855 0.209482,-1.170365 0.218588,-2.281531 0.0091,-1.111166 0.113847,-2.085712 0.314222,-2.923639 0.163942,-0.710419 0.341548,-1.338865 0.532817,-1.885338 0.191265,-0.546476 0.368868,-0.960887 0.532809,-1.243232 0.163943,-0.282345 0.305117,-0.505488 0.423522,-0.669431 0.118401,-0.163941 0.236802,-0.30056 0.355205,-0.409855 0.546211,-0.857571 0.731659,-2.097517 1.051965,-3.00561 0.30967,-0.746849 0.578354,-1.256893 0.806052,-1.530132 0.227697,-0.273237 0.441733,-0.573797 0.642106,-0.901681 0.200375,-0.327887 0.336994,-0.692205 0.409858,-1.092952 0.07286,-0.382531 0.01821,-0.869805 -0.163946,-1.46182 -0.182156,-0.592013 -0.223141,-1.042854 -0.122955,-1.352524 0.100187,-0.30967 0.505489,-0.537368 1.215907,-0.683094 0.273237,-0.05465 0.678539,-0.218589 1.215906,-0.491826 0.537366,-0.273239 0.860696,-0.418965 0.969991,-0.43718 0.145728,-0.01821 0.245916,-0.255013 0.300563,-0.710418 0.0799,-1.159716 -0.375071,-2.171516 -1.202245,-2.13125 -1.500916,0.198056 -1.579662,1.204429 -1.502807,2.404488 0.200375,0.346101 0.218592,0.58746 0.05465,0.724077 -0.163941,0.136619 -0.437179,0.141173 -0.819713,0.01366 -0.236807,-0.07286 -0.35521,-0.400745 -0.35521,-0.983652 l 0,-1.010981 c 0.09108,-0.546474 0.214039,-1.00187 0.368872,-1.366187 0.154834,-0.364315 0.3461,-0.642106 0.573797,-0.833373 0.227698,-0.191267 0.441735,-0.327885 0.64211,-0.409855 0.200373,-0.08197 0.446286,-0.150282 0.737739,-0.204929 1.949096,0.145725 2.7597,1.366186 2.431813,3.661383 0,0.273237 0.0091,0.409855 0.02731,0.409855 0.163943,-0.163942 0.432627,-0.259576 0.806052,-0.286901 0.373423,-0.02732 0.673984,-0.02277 0.901682,0.01366 0.227697,0.03643 0.36887,-0.0091 0.423518,-0.136617 -0.01821,-1.038303 0.12752,-1.858015 0.43718,-2.459138 0.309669,-0.601123 0.719526,-0.910792 1.229569,-0.929006 0.491826,-0.01821 0.869804,0.23226 1.133935,0.751401 0.264129,0.519151 0.414408,1.061071 0.450839,1.625762 0.01821,0.273239 -0.01367,0.610233 -0.09563,1.010981 -0.08197,0.400748 -0.200375,0.742294 -0.355209,1.024639 -0.154836,0.282345 -0.296008,0.405301 -0.423517,0.368868 -0.182159,-0.05465 -0.327886,-0.182157 -0.43718,-0.38253 -0.07287,-0.163942 -0.0091,-0.236806 0.191263,-0.218592 0.127511,0 0.268684,-0.132064 0.423521,-0.396193 0.154834,-0.264128 0.241359,-0.569242 0.259576,-0.915343 0.01821,-0.400749 -0.06377,-0.737742 -0.245917,-1.010981 -0.182157,-0.273237 -0.491825,-0.400747 -0.929006,-0.382531 -0.309668,0 -0.555581,0.191266 -0.73774,0.573798 -0.182159,0.382531 -0.268684,0.73774 -0.259575,1.065627 0.0091,0.327884 0.02277,0.528258 0.04098,0.601122 0.400749,0.273237 0.683094,0.537366 0.847035,0.792389 0.145728,0.218589 0.396197,0.432625 0.751406,0.642106 0.355209,0.209481 0.54192,0.32333 0.560135,0.341546 0.236806,0.255023 0.377978,0.500937 0.423517,0.737743 0.04554,0.236804 -0.02277,0.400746 -0.204926,0.491826 -0.255023,0.145726 -0.48272,0.323331 -0.683092,0.532814 -0.200375,0.209481 -0.346102,0.382532 -0.43718,0.519151 -0.09108,0.136617 -0.259578,0.25502 -0.505489,0.355209 -0.245915,0.100187 -0.569246,0.159388 -0.969994,0.177604 -0.856143,0.03643 -1.785151,-0.100193 -2.787022,-0.409858 -0.03643,-0.01821 -0.245909,-0.08196 -0.628448,-0.191263 -0.382531,-0.109297 -0.696754,-0.204931 -0.942668,-0.2869 -0.245912,-0.08197 -0.514595,-0.200376 -0.806048,-0.35521 -0.291453,-0.154833 -0.48272,-0.314222 -0.573801,-0.478167 -0.163942,-0.255021 -0.346099,-0.327884 -0.546472,-0.218589 -0.09108,0.05465 -0.150282,0.132064 -0.177605,0.232251 -0.02732,0.100189 3e-6,0.209485 0.08197,0.327888 0.08197,0.118403 0.23225,0.204928 0.45084,0.259576 0.364317,0.109295 0.878915,0.305114 1.543795,0.587459 0.664876,0.282345 1.079285,0.45995 1.243227,0.532813 0.801496,0.346101 1.43905,0.555583 1.912663,0.628444 0.455395,0.09108 1.17492,0.07287 2.158575,-0.05464 0.182159,-0.03643 0.26413,-0.01821 0.245913,0.05464 -0.01821,0.07286 -0.17304,0.245914 -0.464501,0.519151 -0.455396,0.418965 -1.065627,0.61934 -1.830692,0.601123 -0.309669,-0.01821 -0.637554,-0.08196 -0.983655,-0.191268 -0.346101,-0.109294 -0.673986,-0.236804 -0.983653,-0.38253 -0.30967,-0.145727 -0.614786,-0.305117 -0.915348,-0.478168 -0.300561,-0.17305 -0.573798,-0.327884 -0.81971,-0.464501 -0.245914,-0.136619 -0.469059,-0.245914 -0.669434,-0.327883 -0.200373,-0.08197 -0.359761,-0.104743 -0.478164,-0.06831 -0.118403,0.03643 -0.19582,0.136621 -0.232251,0.300563 0,0.03643 0.0091,0.07741 0.02731,0.122957 0.01821,0.04554 0.05464,0.09108 0.109296,0.136618 0.05465,0.04554 0.109294,0.08653 0.163942,0.122959 0.05465,0.03643 0.132064,0.08197 0.232251,0.136617 0.100189,0.05465 0.182161,0.09563 0.245917,0.122958 0.06375,0.02732 0.154831,0.07286 0.273234,0.136617 0.118403,0.06375 0.204929,0.104739 0.259576,0.122958 0.510045,0.255021 1.12483,0.655769 1.844353,1.202245 0.719527,0.546473 1.325203,0.938113 1.817029,1.174919 0.491827,0.236806 0.938115,0.245909 1.338866,0.02731 0.382531,-0.200375 0.95633,-0.865253 1.721395,-1.994633 0.400747,-0.56469 0.628445,-0.765064 0.683092,-0.601122 0.01821,0.05465 0.02731,0.145726 0.02731,0.273238 0,0.455395 0.13662,0.969992 0.409859,1.543791 0.273237,0.573798 0.541919,1.079287 0.806048,1.516466 0.732523,1.943936 1.204453,4.166896 1.967308,5.765308 0.719526,1.530131 1.152152,2.814347 1.297878,3.852649 0.03643,0.327884 0.05009,0.95633 0.04098,1.885337 -0.0091,0.929006 0.04099,1.466373 0.150279,1.612101 0.145728,0.437179 0.409858,0.464502 0.792389,0.08197 0.582907,-0.56469 0.910793,-1.420834 0.983657,-2.568432 0.03643,-0.510043 -5e-6,-1.020087 -0.109296,-1.530132 -0.07286,-0.346101 -0.06376,-0.510043 0.02731,-0.491826 l 0.109292,0.136621 c 0.655771,1.184027 0.564692,2.695941 -0.273238,4.53574 -0.09108,0.218589 -0.318775,0.473611 -0.683092,0.765064 -0.364316,0.291453 -0.582906,0.473612 -0.655769,0.546476 -0.364317,0.418962 -1.31154,1.243228 -2.841669,2.472797 -1.530129,1.229569 -2.377165,1.926324 -2.541109,2.090267 -0.291453,0.273239 -0.450841,0.619339 -0.478164,1.038302 -0.02732,0.418964 0.10019,0.810603 0.382531,1.174916 0.282347,0.364319 0.696758,0.573804 1.243231,0.628455 -0.145725,0.273239 -0.409855,0.678539 -0.792389,1.2159 -0.382531,0.537367 -0.637553,1.029194 -0.765064,1.475481 -0.127511,0.446287 -0.191267,1.088397 -0.191267,1.926332 -0.837927,-0.437181 -0.901683,-1.275113 -0.191267,-2.513794 0.07286,-0.145725 0.168498,-0.291451 0.286901,-0.437176 0.118403,-0.145725 0.204928,-0.255019 0.259575,-0.327882 0.05465,-0.07286 0.07286,-0.127511 0.05465,-0.163945 -0.05465,-0.09108 -0.17305,-0.177604 -0.355209,-0.259572 -0.182158,-0.08197 -0.364317,-0.0592 -0.546476,0.06833 -0.837927,0.947225 -2.349839,1.27511 -4.535738,0.983654 -2.422706,-0.273233 -4.034807,-1.065619 -4.836303,-2.377158 -0.418965,-0.692203 -0.728633,-0.965442 -0.929006,-0.819717 -0.218592,0.109297 -0.309673,0.582909 -0.273242,1.420838 0.01821,0.455393 0.227689,1.293319 0.628448,2.513778 0.163941,0.418964 0.218588,0.760513 0.163941,1.024646 -0.05465,0.264128 -0.273236,0.4053 -0.655768,0.423517 -0.05465,-0.346101 -0.186712,-1.04741 -0.396196,-2.103927 -0.209481,-1.056517 -0.332437,-1.876228 -0.368868,-2.459135 -0.03643,-0.382535 0.02277,-1.051969 0.177605,-2.0083 0.154833,-0.95633 0.223142,-1.839797 0.204925,-2.650401 C 30.711971,88.09541 30.50249,87.453302 30.101735,86.97969 29.828498,86.651803 29.363994,86.48786 28.708223,86.48786 28.690016,85.813875 28.375794,85.331158 27.765555,85.039707 27.155326,84.748254 26.495002,84.65262 25.784584,84.752806 25.074165,84.852992 24.52769,85.05792 24.145159,85.36759 z M 41.304544,62.770852 c -0.135125,-0.573364 0.02121,-1.010164 0.382532,-1.229569 0.163944,-0.03643 0.245916,0.02732 0.245916,0.191266 -0.03643,0.09108 -0.08197,0.145725 -0.13662,0.163942 -0.182159,0 -0.245915,0.136618 -0.191268,0.409855 0.05465,0.364317 -0.01822,0.546476 -0.218588,0.546476 -0.05465,0 -0.08197,-0.02732 -0.08197,-0.08197 z m -6.585023,-0.43718 c 0,-0.200375 0.04554,-0.37798 0.136622,-0.532814 0.09108,-0.154834 0.191264,-0.268683 0.300558,-0.341547 0.109295,-0.07286 0.191267,-0.100187 0.245914,-0.08197 0.255023,0.01821 0.318778,0.08196 0.191266,0.191268 -0.455309,0.205044 -0.465943,0.612328 -0.601121,0.901675 -0.142201,0.0763 -0.169963,-0.08498 -0.273239,-0.136612 z M 17.806127,92.608371 c -0.364315,0.218593 -0.64666,0.441737 -0.847035,0.669431 -0.200373,0.227699 -0.309667,0.44629 -0.327884,0.655772 -0.01821,0.209482 0.0046,0.414411 0.06831,0.614788 0.06375,0.200371 0.204926,0.400744 0.423517,0.601121 0.218589,0.200371 0.432626,0.377974 0.64211,0.532811 0.209481,0.154831 0.482719,0.323326 0.819714,0.505485 0.336992,0.182165 0.623891,0.332446 0.860698,0.450843 0.236803,0.118403 0.528255,0.259575 0.874356,0.423517 0.346101,0.163943 0.592015,0.282348 0.737743,0.355216 0.692199,0.346096 1.470925,0.85614 2.33618,1.530132 0.865249,0.673982 1.552895,1.256883 2.062938,1.748713 0.30967,0.29145 0.929009,0.46905 1.858016,0.5328 0.929008,0.0637 1.739612,-0.0683 2.431813,-0.39619 0.327884,-0.16393 0.596568,-0.37796 0.806052,-0.64209 0.209481,-0.264131 0.359762,-0.496385 0.450842,-0.696762 0.09108,-0.200371 0.291452,-0.377975 0.601119,-0.532812 0.30967,-0.154837 0.737742,-0.241364 1.284215,-0.259581 0.801497,-0.01822 1.985526,-0.02733 3.552087,-0.02733 0.346101,0 0.865252,0.01367 1.557453,0.041 0.692201,0.02733 1.220461,0.05011 1.584778,0.06834 0.801496,0.01822 1.525575,0.15484 2.172238,0.40986 0.64666,0.255022 1.133933,0.528257 1.461819,0.819705 0.327885,0.29146 0.724079,0.55104 1.188583,0.77873 0.464503,0.22769 0.951776,0.33243 1.461819,0.31421 0.528259,-0.0182 1.539238,-0.30054 3.032936,-0.84703 1.493697,-0.546473 2.823453,-0.938112 3.989267,-1.174917 0.346101,-0.07286 0.810603,-0.159389 1.393507,-0.259574 0.582907,-0.100191 1.038303,-0.182162 1.36619,-0.245913 0.327884,-0.06376 0.687646,-0.150287 1.079286,-0.259581 0.39164,-0.109297 0.696756,-0.24136 0.915348,-0.396191 0.218589,-0.154837 0.373422,-0.332443 0.464501,-0.53282 0.182159,-0.418959 0.118403,-1.024635 -0.191267,-1.817029 -0.309667,-0.792383 -0.473609,-1.288763 -0.491826,-1.48914 -0.01821,-0.291451 0.01823,-0.655767 0.109296,-1.092948 0.09108,-0.437181 0.182157,-0.824268 0.273238,-1.16126 0.09108,-0.336992 0.132063,-0.66943 0.122955,-0.997314 -0.0091,-0.327887 -0.104739,-0.573801 -0.286897,-0.737743 -0.255023,-0.218589 -0.774175,-0.346099 -1.557454,-0.38253 -0.783282,-0.03643 -1.329757,-0.145729 -1.639424,-0.327888 -0.546476,-0.327884 -0.929009,-0.646661 -1.147598,-0.956332 -0.218589,-0.309669 -0.327884,-0.774172 -0.327884,-1.393507 -0.382534,1.329753 -0.09108,2.295192 0.87436,2.896315 0.582904,0.364317 1.33886,0.500936 2.267868,0.409855 0.619337,-0.05465 1.010978,0.03643 1.174923,0.273238 0.236806,0.273237 0.191266,0.792388 -0.136621,1.557453 -0.03643,0.109294 -0.10929,0.273235 -0.218589,0.491823 -0.109295,0.218593 -0.186713,0.382538 -0.232254,0.491835 -0.04554,0.109291 -0.08653,0.264125 -0.122955,0.464502 -0.03643,0.200376 -0.04554,0.40075 -0.02731,0.601121 0,0.273239 0.154835,0.719526 0.464505,1.338861 0.309668,0.619341 0.437178,1.056522 0.382531,1.311544 -0.05465,0.309667 -0.391639,0.546472 -1.010978,0.710415 -0.364317,0.109297 -1.133936,0.277795 -2.308855,0.505494 -1.174922,0.227693 -2.08116,0.414403 -2.718713,0.560128 -0.437179,0.109297 -1.111164,0.309674 -2.021955,0.601131 -0.910791,0.291451 -1.662195,0.50093 -2.25421,0.628438 -0.592015,0.127514 -1.097504,0.163944 -1.516469,0.109294 -0.783279,-0.109291 -1.370739,-0.364311 -1.762379,-0.765058 -0.39164,-0.400748 -0.601122,-0.83793 -0.628447,-1.311545 -0.02732,-0.47361 0.04099,-1.006421 0.20493,-1.598434 0.163941,-0.592017 0.336991,-1.06563 0.51915,-1.420838 0.182159,-0.355207 0.364317,-0.687645 0.546473,-0.997312 2.204116,-3.461009 3.743354,-5.665125 4.617714,-6.612346 1.238675,-1.347973 2.267869,-1.71229 3.087582,-1.092952 0.200375,0.163941 0.336993,0.02732 0.409855,-0.409856 0.05465,-0.291453 0.07286,-0.637554 0.05465,-1.038302 -0.01821,-0.52826 -0.109286,-1.001871 -0.273238,-1.420833 -0.163942,-0.418965 -0.382533,-0.847039 -0.655772,-1.28422 -0.273237,-0.437178 -0.473611,-0.819709 -0.601122,-1.147594 -0.145726,-0.382534 -0.387085,-1.038303 -0.724077,-1.967308 -0.336993,-0.929008 -0.605677,-1.639426 -0.806052,-2.131255 -0.200373,-0.491826 -0.473609,-1.047408 -0.81971,-1.666745 -0.346101,-0.61934 -0.70131,-1.111168 -1.065627,-1.475483 -2.003741,-2.604863 -3.133122,-4.380906 -3.388144,-5.328128 0.218591,-2.040173 0.364318,-4.863626 0.43718,-8.470359 0.03643,-1.639425 -0.182156,-3.019274 -0.655769,-4.139546 -1.341744,-2.289725 -3.373559,-3.414442 -5.737987,-3.429132 -2.000609,-0.02801 -3.731476,0.550251 -5.328128,1.502807 -2.449051,1.973598 -3.022773,4.734479 -3.158629,7.350086 0.0026,2.291156 -0.3297,3.679597 -0.967254,5.84728 -1.484159,4.189866 -4.776433,6.773113 -6.352768,10.410343 -1.076623,2.555317 -1.742654,4.92664 -1.762382,7.527691 0.05465,0.646663 0.163941,1.152151 0.327883,1.516466 0.163943,0.364318 0.346101,0.564693 0.546476,0.601126 0.182159,0.03643 0.396196,0.209476 0.64211,0.519148 0.245915,0.309669 0.491828,0.633 0.737739,0.969993 0.245914,0.336993 0.614784,0.642107 1.106611,0.915344 0.491829,0.273239 1.047412,0.400751 1.666749,0.382534 0.327884,-0.01821 0.614783,-0.06375 0.860698,-0.136621 0.245912,-0.07286 0.45084,-0.195817 0.614784,-0.368868 0.163943,-0.17305 0.286899,-0.314222 0.368868,-0.423517 0.08197,-0.109295 0.186714,-0.296008 0.314226,-0.560138 0.127509,-0.264129 0.209479,-0.441733 0.245912,-0.532811 0.400749,-0.673987 0.774173,-0.947225 1.120274,-0.819713 0.346101,0.127511 0.601122,0.573798 0.765064,1.338861 0.163942,0.765067 0.100186,1.648536 -0.191267,2.650405 -0.364315,1.275103 -0.373418,3.051145 -0.02731,5.328126 0.182159,1.184031 0.01822,2.099378 -0.491826,2.746043 -0.510043,0.646661 -1.174921,0.947222 -1.994634,0.901685 -0.81971,-0.04555 -1.593882,-0.368886 -2.322517,-0.969997 -1.074733,-0.892574 -1.889892,-1.49825 -2.445476,-1.817029 -0.555582,-0.318779 -1.498251,-0.705865 -2.828006,-1.161258 -0.965438,-0.327885 -1.666747,-0.660325 -2.103926,-0.997321 -0.437179,-0.33699 -0.605675,-0.651213 -0.505489,-0.942669 0.100187,-0.291451 0.327885,-0.551026 0.683094,-0.778725 0.355209,-0.227699 0.824265,-0.441734 1.40717,-0.642105 0.601123,-0.200377 1.051966,-0.637557 1.352527,-1.311541 0.300562,-0.673985 0.437181,-1.334308 0.409856,-1.980971 -0.02733,-0.646663 -0.168499,-1.079288 -0.423518,-1.297877 -0.01821,0.56469 -0.09107,1.079287 -0.218592,1.54379 -0.127509,0.464504 -0.259574,0.833374 -0.396193,1.106611 -0.136619,0.273237 -0.323332,0.532812 -0.560138,0.778727 -0.236806,0.245914 -0.428072,0.418964 -0.573797,0.519151 -0.145725,0.100187 -0.341545,0.218591 -0.58746,0.355212 -0.245915,0.13662 -0.396196,0.223144 -0.450843,0.259572 z"
     id="path4"
     style="fill:#c4d2df;fill-opacity:1;stroke:none"
     sodipodi:nodetypes="cscscccccccccccccsscscsccccsscsscccsscsscsccccscscsscccccscccsccscccscccssccscscsccccscscccccscccccccssscsccccccccsscccsscccscccccccscscsscssccssccccccccscscscccsscccccccscccsccccccccssccscsccccsscsscscscscscsccsccsscscsccccccsccsccscsccssssccccccscsssccccccccccscsssccscscssccsccscssscssccsssscc" /></svg>