<?xml version="1.0" encoding="UTF-8" standalone="no"?>
<!-- Generator: Adobe Illustrator 15.0.0, SVG Export Plug-In . SVG Version: 6.00 Build 0)  -->

<svg
   xmlns:dc="http://purl.org/dc/elements/1.1/"
   xmlns:cc="http://creativecommons.org/ns#"
   xmlns:rdf="http://www.w3.org/1999/02/22-rdf-syntax-ns#"
   xmlns:svg="http://www.w3.org/2000/svg"
   xmlns="http://www.w3.org/2000/svg"
   xmlns:sodipodi="http://sodipodi.sourceforge.net/DTD/sodipodi-0.dtd"
   xmlns:inkscape="http://www.inkscape.org/namespaces/inkscape"
   version="1.1"
   id="Layer_1"
   x="0px"
   y="0px"
   width="90px"
   height="109px"
   viewBox="-1 -1 92 111"
   enable-background="new 0 0 90 109"
   xml:space="preserve"
   inkscape:version="0.48.5 r10040"
   sodipodi:docname="mac.svg"><metadata
     id="metadata11"><rdf:RDF><cc:Work
         rdf:about=""><dc:format>image/svg+xml</dc:format><dc:type
           rdf:resource="http://purl.org/dc/dcmitype/StillImage" /></cc:Work></rdf:RDF></metadata><defs
     id="defs9" /><sodipodi:namedview
     pagecolor="#ffffff"
     bordercolor="#666666"
     borderopacity="1"
     objecttolerance="10"
     gridtolerance="10"
     guidetolerance="10"
     inkscape:pageopacity="0"
     inkscape:pageshadow="2"
     inkscape:window-width="1680"
     inkscape:window-height="1011"
     id="namedview7"
     showgrid="false"
     inkscape:snap-bbox="false"
     inkscape:zoom="6.1239339"
     inkscape:cx="19.253339"
     inkscape:cy="34.100672"
     inkscape:window-x="0"
     inkscape:window-y="20"
     inkscape:window-maximized="1"
     inkscape:current-layer="Layer_1" /><g
     id="g3"><path
       d="m 71.574,41.851 c 0,-4.685 0.074,-10.553 -0.033,-15.237 C 71.494,24.596 71.273,22.538 70.795,20.58 67.374,6.581 53.823,-2.125 39.594,0.45 26.998,2.729 17.621,13.968 17.621,26.786 l 0,13.865 0,1.17 c -0.475,0 -0.794,-10e-4 -1.116,0 l -11.482,0 C 2.25,41.821 0,44.07 0,46.844 l 0,56.875 c 0,2.773 2.25,5.023 5.023,5.023 l 79.451,0 c 2.775,0 5.024,-2.25 5.024,-5.023 l 0,-56.875 c 0,-2.774 -2.249,-5.023 -5.024,-5.023 z m -9.795,-8.747 c -1.562,4.611 -4.52,8.305 -7.61,11.912 -2.386,2.783 -5.19,5.125 -8.176,7.247 -0.144,0.103 -0.298,0.188 -0.685,0.427 1.781,-3.076 3.217,-5.998 3.633,-9.404 -4.234,1.002 -8.227,0.564 -12.093,-1.14 -6.862,-3.023 -10.963,-9.618 -10.263,-17.063 0.573,-6.127 3.94,-10.543 9.321,-13.395 8.667,-4.593 19.734,-1.655 24.689,6.516 2.887,4.758 2.932,9.741 1.184,14.9"
       id="path5"
       style="fill:none;stroke:#c4d2df;stroke-opacity:1"
       inkscape:connector-curvature="0"
       sodipodi:nodetypes="ccccscccssssssscccccccccccc" /></g><path
     inkscape:connector-curvature="0"
     d="m 64.210681,85.829042 q -1.110577,3.559538 -3.502588,7.119076 -3.673442,5.581358 -7.318411,5.581358 -1.39534,0 -3.986683,-0.911243 -2.448962,-0.911242 -4.299922,-0.911242 -1.737055,0 -4.043636,0.939718 -2.306581,0.968194 -3.758872,0.968194 -4.3284,0 -8.57137,-7.375362 -4.186017,-7.432315 -4.186017,-14.323584 0,-6.492597 3.217822,-10.650138 3.189347,-4.100589 8.087273,-4.100589 2.050294,0 5.040307,0.854291 2.961536,0.854291 3.92973,0.854291 1.281434,0 4.072111,-0.968195 2.904583,-0.968194 4.926401,-0.968194 3.388682,0 6.065455,1.850957 1.480766,1.02515 2.961536,2.847631 -2.249629,1.907913 -3.246298,3.360206 -1.850962,2.676772 -1.850962,5.894594 0,3.531062 1.964865,6.350217 1.964867,2.819156 4.499259,3.588014 z M 53.503588,52.426334 q 0,1.737053 -0.825813,3.872778 -0.854289,2.13572 -2.648297,3.929729 -1.53772,1.537722 -3.075441,2.050297 -1.053623,0.31324 -2.961536,0.484095 0.08543,-4.242969 2.221153,-7.318412 2.107245,-3.046963 7.119076,-4.214493 0.02848,0.08543 0.07119,0.31324 0.04272,0.227812 0.07119,0.313239 0,0.113904 0.01424,0.284764 0.01424,0.170855 0.01424,0.284763 z"
     id="path4"
     style="fill:#c4d2df;fill-opacity:1" /></svg>