<?xml version="1.0" encoding="UTF-8" standalone="no"?>
<!-- Generator: Adobe Illustrator 15.0.0, SVG Export Plug-In . SVG Version: 6.00 Build 0)  -->

<svg
   xmlns:dc="http://purl.org/dc/elements/1.1/"
   xmlns:cc="http://creativecommons.org/ns#"
   xmlns:rdf="http://www.w3.org/1999/02/22-rdf-syntax-ns#"
   xmlns:svg="http://www.w3.org/2000/svg"
   xmlns="http://www.w3.org/2000/svg"
   xmlns:sodipodi="http://sodipodi.sourceforge.net/DTD/sodipodi-0.dtd"
   xmlns:inkscape="http://www.inkscape.org/namespaces/inkscape"
   version="1.1"
   id="Layer_1"
   x="0px"
   y="0px"
   width="90px"
   height="109px"
   viewBox="-1 -1 92 111"
   enable-background="new 0 0 90 109"
   xml:space="preserve"
   inkscape:version="0.48.5 r10040"
   sodipodi:docname="mac.svg"><metadata
     id="metadata11"><rdf:RDF><cc:Work
         rdf:about=""><dc:format>image/svg+xml</dc:format><dc:type
           rdf:resource="http://purl.org/dc/dcmitype/StillImage" /></cc:Work></rdf:RDF></metadata><defs
     id="defs9" /><sodipodi:namedview
     pagecolor="#ffffff"
     bordercolor="#666666"
     borderopacity="1"
     objecttolerance="10"
     gridtolerance="10"
     guidetolerance="10"
     inkscape:pageopacity="0"
     inkscape:pageshadow="2"
     inkscape:window-width="1680"
     inkscape:window-height="1011"
     id="namedview7"
     showgrid="false"
     inkscape:snap-bbox="false"
     inkscape:zoom="6.1239339"
     inkscape:cx="-15.480763"
     inkscape:cy="40.118298"
     inkscape:window-x="0"
     inkscape:window-y="20"
     inkscape:window-maximized="1"
     inkscape:current-layer="Layer_1" /><g
     id="g3"><path
       d="m 71.574,41.851 c 0,-4.685 0.074,-10.553 -0.033,-15.237 C 71.494,24.596 71.273,22.538 70.795,20.58 67.374,6.581 53.823,-2.125 39.594,0.45 26.998,2.729 17.621,13.968 17.621,26.786 l 0,13.865 0,1.17 c -0.475,0 -0.794,-10e-4 -1.116,0 l -11.482,0 C 2.25,41.821 0,44.07 0,46.844 l 0,56.875 c 0,2.773 2.25,5.023 5.023,5.023 l 79.451,0 c 2.775,0 5.024,-2.25 5.024,-5.023 l 0,-56.875 c 0,-2.774 -2.249,-5.023 -5.024,-5.023 z m -9.795,-8.747 c -1.562,4.611 -4.52,8.305 -7.61,11.912 -2.386,2.783 -5.19,5.125 -8.176,7.247 -0.144,0.103 -0.298,0.188 -0.685,0.427 1.781,-3.076 3.217,-5.998 3.633,-9.404 -4.234,1.002 -8.227,0.564 -12.093,-1.14 -6.862,-3.023 -10.963,-9.618 -10.263,-17.063 0.573,-6.127 3.94,-10.543 9.321,-13.395 8.667,-4.593 19.734,-1.655 24.689,6.516 2.887,4.758 2.932,9.741 1.184,14.9"
       id="path5"
       style="fill:none;stroke:#c4d2df;stroke-opacity:1"
       inkscape:connector-curvature="0"
       sodipodi:nodetypes="ccccscccssssssscccccccccccc" /></g><path
     inkscape:connector-curvature="0"
     d="m 58.201472,82.850441 c -0.565913,1.813821 -1.458313,3.627643 -2.677202,5.441464 -1.871863,2.844073 -3.736471,4.266109 -5.593825,4.266109 -0.711019,0 -1.726759,-0.23217 -3.04722,-0.696509 -1.247909,-0.464338 -2.343457,-0.696507 -3.286644,-0.696507 -0.885145,0 -1.915395,0.239424 -3.090752,0.718273 -1.175356,0.493359 -2.133053,0.740039 -2.873092,0.740039 -2.205607,0 -4.389449,-1.879119 -6.551524,-5.637356 -2.133054,-3.787258 -3.199581,-7.436667 -3.199581,-10.948227 0,-3.308409 0.819847,-6.021886 2.459541,-8.140429 1.625185,-2.089523 3.685686,-3.134284 6.181505,-3.134284 1.044761,0 2.328946,0.217659 3.852557,0.652977 1.509099,0.435318 2.510329,0.652977 3.003688,0.652977 0.652975,0 1.690481,-0.24668 3.112516,-0.74004 1.480079,-0.493359 2.735243,-0.740038 3.765493,-0.740038 1.726759,0 3.272135,0.471593 4.636129,1.414778 0.754549,0.522382 1.509098,1.247911 2.263649,2.176586 -1.146335,0.972209 -1.973438,1.828333 -2.481307,2.568372 -0.943188,1.363993 -1.414782,2.865837 -1.414782,4.505531 0,1.799311 0.500615,3.41724 1.501844,4.853787 1.001231,1.436547 2.147566,2.350713 3.439007,2.742497 z M 50.253573,56.079756 c 0,0.885144 -0.210403,1.871862 -0.63121,2.960156 -0.435317,1.088291 -1.110058,2.08952 -2.024225,3.003688 -0.783571,0.783571 -1.567141,1.305952 -2.350712,1.567143 -0.536891,0.159616 -1.291441,0.282956 -2.263649,0.370018 0.04353,-2.162075 0.609446,-4.026684 1.697737,-5.593826 1.073781,-1.55263 2.887603,-2.626412 5.441464,-3.221346 0.01451,0.04353 0.03265,0.123341 0.05441,0.239425 0.02177,0.116085 0.0399,0.195893 0.05441,0.239424 0,0.05804 0.0036,0.130593 0.01088,0.217659 0.0073,0.08706 0.01088,0.159615 0.01088,0.217659 z"
     id="path4"
     style="fill:none;stroke:#c4d2df;stroke-opacity:1"
     sodipodi:nodetypes="ccscscscscscscscccsscccsccccccscc" /></svg>