<?xml version="1.0" encoding="UTF-8" standalone="no"?>
<!-- Generator: Adobe Illustrator 15.0.0, SVG Export Plug-In . SVG Version: 6.00 Build 0)  -->

<svg
   xmlns:dc="http://purl.org/dc/elements/1.1/"
   xmlns:cc="http://creativecommons.org/ns#"
   xmlns:rdf="http://www.w3.org/1999/02/22-rdf-syntax-ns#"
   xmlns:svg="http://www.w3.org/2000/svg"
   xmlns="http://www.w3.org/2000/svg"
   xmlns:sodipodi="http://sodipodi.sourceforge.net/DTD/sodipodi-0.dtd"
   xmlns:inkscape="http://www.inkscape.org/namespaces/inkscape"
   version="1.1"
   id="Layer_1"
   x="0px"
   y="0px"
   width="90px"
   height="109px"
   viewBox="-1 -1 92 111"
   enable-background="new 0 0 90 109"
   xml:space="preserve"
   inkscape:version="0.48.5 r10040"
   sodipodi:docname="mac.svg"><metadata
     id="metadata11"><rdf:RDF><cc:Work
         rdf:about=""><dc:format>image/svg+xml</dc:format><dc:type
           rdf:resource="http://purl.org/dc/dcmitype/StillImage" /></cc:Work></rdf:RDF></metadata><defs
     id="defs9" /><sodipodi:namedview
     pagecolor="#ffffff"
     bordercolor="#666666"
     borderopacity="1"
     objecttolerance="10"
     gridtolerance="10"
     guidetolerance="10"
     inkscape:pageopacity="0"
     inkscape:pageshadow="2"
     inkscape:window-width="1680"
     inkscape:window-height="1011"
     id="namedview7"
     showgrid="false"
     inkscape:snap-bbox="false"
     inkscape:zoom="4.3302752"
     inkscape:cx="118.80534"
     inkscape:cy="43.894013"
     inkscape:window-x="0"
     inkscape:window-y="20"
     inkscape:window-maximized="1"
     inkscape:current-layer="Layer_1" /><g
     id="g3"><path
       d="M71.574,41.851c0-4.685,0.074-10.553-0.033-15.237c-0.047-2.018-0.268-4.076-0.746-6.034   C67.374,6.581,53.823-2.125,39.594,0.45C26.998,2.729,17.621,13.968,17.621,26.786v13.865v1.17c-0.475,0-0.794-0.001-1.116,0H5.023   C2.25,41.821,0,44.07,0,46.844v56.875c0,2.773,2.25,5.023,5.023,5.023h79.451c2.775,0,5.024-2.25,5.024-5.023V46.844   c0-2.774-2.249-5.023-5.024-5.023L71.574,41.851z M52.107,95.118H37.332c-2.322,0-4.203-1.914-4.203-4.274   c0-0.063,0.007-0.127,0.009-0.19c-0.005,0-0.006-1.021-0.008-2.041c-0.001-1.129,0.511-4.289,2.061-6.574   c1.641-2.418,3.855-3.99,6.257-4.697c-3.166-1.291-5.396-4.398-5.396-8.025c0-4.789,3.88-8.668,8.667-8.668   c4.789,0,8.667,3.879,8.667,8.668c0,3.719-2.344,6.891-5.637,8.12c2.332,0.753,4.537,2.313,6.273,4.707   c1.621,2.235,2.285,5.343,2.285,6.47v2.043c-0.006,0.062,0,0.125,0,0.189C56.308,93.204,54.427,95.118,52.107,95.118    M61.779,33.104c-1.562,4.611-4.52,8.305-7.61,11.912c-2.386,2.783-5.19,5.125-8.176,7.247c-0.144,0.103-0.298,0.188-0.685,0.427   c1.781-3.076,3.217-5.998,3.633-9.404c-4.234,1.002-8.227,0.564-12.093-1.14c-6.862-3.023-10.963-9.618-10.263-17.063   c0.573-6.127,3.94-10.543,9.321-13.395c8.667-4.593,19.734-1.655,24.689,6.516C63.482,22.962,63.527,27.945,61.779,33.104"
       id="path5"
       style="opacity:1;fill:none;fill-opacity:0;stroke:#c4d2df;stroke-opacity:1" /></g><path
     style="fill:none;stroke:#000000;stroke-width:1px;stroke-linecap:butt;stroke-linejoin:miter;stroke-opacity:1"
     d="m 34.177966,86.599576 c -0.516296,-1.548887 -0.244139,-0.950143 -0.692796,-1.847457 -0.07698,-0.153955 -0.135454,-0.318647 -0.230933,-0.461865 -0.06039,-0.09058 -0.204529,-0.12532 -0.230932,-0.230932 -0.05601,-0.224037 0.03796,-0.465006 0,-0.692797 -0.33786,-2.027163 -0.08495,0.353002 -0.461864,-1.154661 -0.03734,-0.149358 0.03019,-0.310899 0,-0.461864 -0.04774,-0.238697 -0.183193,-0.4541 -0.230933,-0.692797 -0.03019,-0.150965 0,-0.307909 0,-0.461864 0,-0.30791 0,-0.615819 0,-0.923729 0,-0.153955 0.03734,-0.312506 0,-0.461864 -0.368633,-1.474535 -0.230932,1.029126 -0.230932,-1.385593 0,-0.384887 -0.0425,-0.772129 0,-1.154661 0.03505,-0.315445 0.178755,-0.610662 0.230932,-0.923729 0.02344,-0.140622 0.0053,-1.353562 0,-1.385594 -0.04002,-0.240111 -0.190913,-0.452684 -0.230932,-0.692796 -0.03796,-0.22779 0,-0.461865 0,-0.692797 0,-0.230932 0,-0.461864 0,-0.692796 0,-0.769774 0,-1.539548 0,-2.309322 0,-0.692797 0,-1.385594 0,-2.07839 0,-0.230932 0,-0.461865 0,-0.692797 0,-0.230932 -0.03796,-0.465006 0,-0.692796 0.04002,-0.240112 0.183193,-0.4541 0.230932,-0.692797 0.03019,-0.150965 0,-0.30791 0,-0.461864 0.07698,-0.230933 0.171894,-0.456641 0.230933,-0.692797 0.141307,-0.56523 -0.471196,0.129463 0.230932,-0.923729 0.0427,-0.06405 0.176501,0.05443 0.230932,0 0.901267,-0.901267 -0.05345,-0.124022 0.230932,-0.692796 0.04868,-0.09737 0.153955,-0.153955 0.230933,-0.230933 0.07698,-0.07698 0.153954,-0.153955 0.230932,-0.230932 0.307909,-0.30791 0.615819,-0.615819 0.923729,-0.923729 0.384887,-0.384887 0.769774,-0.769774 1.154661,-1.154661 0.153954,-0.153955 0.287684,-0.331229 0.461864,-0.461864 0.444073,-0.333055 0.94152,-0.590674 1.385593,-0.923729 0.08709,-0.06532 0.143842,-0.165615 0.230932,-0.230932 0.222037,-0.166528 0.466949,-0.300544 0.692797,-0.461865 0.313195,-0.223711 0.589553,-0.501839 0.923729,-0.692796 0.211351,-0.120772 0.475071,-0.12207 0.692796,-0.230932 0.09737,-0.04868 0.143843,-0.165615 0.230933,-0.230933 0.222036,-0.166527 0.444552,-0.337742 0.692796,-0.461864 0.217725,-0.108862 0.466783,-0.140527 0.692797,-0.230932 0.159815,-0.06393 0.302049,-0.167006 0.461864,-0.230932 0.226014,-0.09041 0.466783,-0.140527 0.692797,-0.230933 0.159815,-0.06393 0.302049,-0.167006 0.461864,-0.230932 0.226014,-0.0904 0.461865,-0.153955 0.692797,-0.230932 0.230932,-0.07698 0.4541,-0.183193 0.692796,-0.230932 0.150966,-0.03019 0.3109,0.03019 0.461865,0 0.238697,-0.04774 0.452685,-0.190914 0.692796,-0.230932 0.227791,-0.03796 0.466349,0.04529 0.692797,0 0.168784,-0.03376 0.29308,-0.197176 0.461865,-0.230933 0.452895,-0.09058 0.94743,0.146055 1.385593,0 0.07303,-0.02434 0,-0.153954 0,-0.230932 0.230932,0 0.473715,-0.07303 0.692796,0 0.07303,0.02434 -0.07303,0.20659 0,0.230932 0.219082,0.07303 0.466349,-0.04529 0.692797,0 0.549521,0.109905 1.069466,0.340296 1.616525,0.461865 1.387948,0.308433 -0.763569,-0.53636 1.154661,0.230932 0.52788,0.211152 0.612483,0.36749 1.154661,0.692797 0.147598,0.08856 0.324163,0.127656 0.461865,0.230932 0.17418,0.130635 0.287684,0.331229 0.461864,0.461864 0.275403,0.206552 0.680305,0.218441 0.923729,0.461865 0.196255,0.196254 0.26561,0.496542 0.461864,0.692796 0.121712,0.121712 0.324163,0.127656 0.461865,0.230932 0.17418,0.130635 0.307909,0.30791 0.461864,0.461865 0.153955,0.153955 0.30791,0.307909 0.461865,0.461864 0.153954,0.153955 0.307909,0.30791 0.461864,0.461865 0.07698,0.07698 0.182248,0.133562 0.230932,0.230932 0.03443,0.06885 -0.0427,0.166883 0,0.230932 0.120772,0.181158 0.33123,0.287684 0.461865,0.461864 0.103276,0.137702 0.153954,0.30791 0.230932,0.461865 0.07698,0.153955 0.153955,0.307909 0.230932,0.461864 0.07698,0.153955 0.176501,0.298571 0.230932,0.461865 0.02434,0.07303 -0.03442,0.162081 0,0.230932 0.124123,0.248245 0.319068,0.454803 0.461865,0.692797 0.08856,0.147597 0.127656,0.324163 0.230932,0.461864 0.130635,0.17418 0.331229,0.287684 0.461864,0.461864 0.206552,0.275403 0.284748,0.628534 0.461865,0.923729 0.325307,0.542178 0.481645,0.626782 0.692796,1.154661 0.09041,0.226014 0.105692,0.484062 0.230933,0.692797 0.112018,0.186697 0.331229,0.287684 0.461864,0.461864 0.103276,0.137702 0.142374,0.314267 0.230932,0.461865 0.325628,0.542713 0.686208,1.022724 0.923729,1.616525 0.92985,2.324626 -0.180312,-0.490314 0.230932,1.154661 0.04175,0.166987 0.176501,0.298571 0.230932,0.461864 0.02434,0.07303 -0.02434,0.157905 0,0.230933 0.05443,0.163293 0.176501,0.29857 0.230933,0.461864 0.04868,0.146054 0,0.30791 0,0.461864 0,0.538842 0,1.077684 0,1.616526 0,0.159464 0.03511,0.853517 0,0.923729 -0.04868,0.09737 -0.196507,0.127656 -0.230933,0.230932 -0.08092,0.242756 0.05919,1.148819 0,1.385593 -0.0264,0.105612 -0.204529,0.12532 -0.230932,0.230932 -0.05601,0.224037 0.04529,0.466349 0,0.692797 -0.03376,0.168784 -0.189185,0.294877 -0.230932,0.461864 -0.03734,0.149358 0.03734,0.312507 0,0.461865 -0.04175,0.166987 -0.189185,0.294877 -0.230932,0.461864 -0.07468,0.298716 0.07468,0.625013 0,0.923729 -0.04175,0.166987 -0.189186,0.294877 -0.230932,0.461864 -0.03734,0.149358 0.03734,0.312507 0,0.461865 -0.04175,0.166987 -0.153955,0.307909 -0.230933,0.461864 -0.07698,0.230932 -0.183192,0.4541 -0.230932,0.692797 -0.03019,0.150965 0.03734,0.312506 0,0.461864 -0.08349,0.333975 -0.394351,0.586161 -0.461864,0.923729 -0.04529,0.226448 0.07303,0.473715 0,0.692797 -0.02434,0.07303 -0.196507,-0.06885 -0.230932,0 -0.06885,0.137701 0.03734,0.312506 0,0.461864 -0.03745,0.149792 -0.594686,1.238427 -0.692797,1.385593 -0.06039,0.09058 -0.153955,0.153955 -0.230932,0.230932 -0.230932,0.230933 -0.431527,0.496845 -0.692797,0.692797 -0.222037,0.166528 -0.47076,0.295337 -0.692796,0.461864 -0.17418,0.130635 -0.267126,0.364495 -0.461865,0.461865 -0.217725,0.108862 -0.475072,0.12207 -0.692797,0.230932 -0.09737,0.04869 -0.140353,0.170546 -0.230932,0.230932 -0.143218,0.09548 -0.318646,0.135454 -0.461864,0.230932 -0.09058,0.06039 -0.133563,0.182248 -0.230932,0.230933 -0.217725,0.108862 -0.466784,0.140527 -0.692797,0.230932 -0.159816,0.06393 -0.30791,0.153955 -0.461864,0.230932 -0.153955,0.07698 -0.318647,0.135454 -0.461865,0.230932 -0.09058,0.06039 -0.140353,0.170546 -0.230932,0.230932 -0.143218,0.09548 -0.30791,0.153955 -0.461864,0.230933 -0.153955,0.07698 -0.302049,0.167006 -0.461865,0.230932 -0.226013,0.0904 -0.466783,0.140527 -0.692796,0.230932 -0.473121,0.189248 -0.902535,0.531777 -1.385594,0.692797 -0.07303,0.02434 -0.162081,-0.03443 -0.230932,0 -0.09737,0.04869 -0.133562,0.182247 -0.230932,0.230932 -0.217725,0.108862 -0.466783,0.140527 -0.692797,0.230932 -0.159815,0.06393 -0.302048,0.167006 -0.461864,0.230932 -0.226013,0.09041 -0.466783,0.140527 -0.692797,0.230933 -0.472003,0.188801 -0.930721,0.46536 -1.385593,0.692796 -0.153955,0.07698 -0.294877,0.189185 -0.461864,0.230932 -0.149358,0.03734 -0.312507,-0.03734 -0.461865,0 -0.166987,0.04175 -0.294877,0.189186 -0.461864,0.230933 -0.149358,0.03734 -0.30791,0 -0.461864,0 -0.153955,0.07698 -0.298571,0.176501 -0.461865,0.230932 -0.07303,0.02434 -0.15545,-0.0151 -0.230932,0 -0.311223,0.06224 -0.613901,0.162081 -0.923729,0.230932 -0.383162,0.08515 -0.777254,0.123102 -1.154661,0.230932 -0.165504,0.04729 -0.298571,0.176501 -0.461864,0.230932 -0.138547,0.04618 -0.970387,0 -1.154661,0 -0.153955,0 -0.30791,0 -0.461865,0 -0.230932,0 -0.468759,0.05601 -0.692796,0 -0.105612,-0.0264 -0.127657,-0.196506 -0.230933,-0.230932 -0.146054,-0.04869 -0.310899,0.03019 -0.461864,0 -0.238697,-0.04774 -0.461864,-0.153955 -0.692797,-0.230932 -0.230932,-0.07698 -0.466783,-0.140527 -0.692796,-0.230932 -0.159816,-0.06393 -0.294877,-0.189186 -0.461865,-0.230932 -0.149358,-0.03734 -0.31581,0.04868 -0.461864,0 -0.103276,-0.03443 -0.127656,-0.196507 -0.230932,-0.230933 -0.146055,-0.04868 -0.312507,0.03734 -0.461865,0 -0.166987,-0.04175 -0.294877,-0.189185 -0.461864,-0.230932 -0.149358,-0.03734 -0.324163,0.06885 -0.461864,0 -0.06885,-0.03442 0.05443,-0.176501 0,-0.230932 -0.108863,-0.108863 -0.31581,0.04868 -0.461865,0 -0.163294,-0.05443 -0.340152,-0.10922 -0.461864,-0.230932 -0.05443,-0.05443 0.05443,-0.176501 0,-0.230932 -0.05443,-0.05443 -0.176501,0.05443 -0.230932,0 -0.108863,-0.108863 0.108862,-0.353002 0,-0.461865 -0.05443,-0.05443 -0.176501,0.05443 -0.230933,0 -0.05557,-0.05557 0.05557,-0.868159 0,-0.923729 -0.05443,-0.05443 -0.176501,0.05443 -0.230932,0 -0.115466,-0.115466 0.115466,-0.57733 0,-0.692796 -0.05443,-0.05443 -0.176501,0.05443 -0.230932,0 -0.108863,-0.108863 0.108862,-0.353002 0,-0.461865 -0.05443,-0.05443 -0.176501,0.05443 -0.230932,0 -0.108863,-0.108862 0.108862,-0.353002 0,-0.461864 -0.05443,-0.05443 -0.176501,0.05443 -0.230932,0 -0.108863,-0.108863 0.06885,-0.324163 0,-0.461865 -0.04868,-0.09737 -0.182248,-0.133562 -0.230933,-0.230932 -0.03442,-0.06885 0.0151,-0.155449 0,-0.230932 -0.06224,-0.311222 -0.230932,-1.241115 -0.230932,-0.923729 0,0.39251 0.615819,1.077684 0.230932,1.154661 -0.384887,0.07698 -0.153954,-0.769774 -0.230932,-1.154661 z"
     id="path2986"
     inkscape:connector-curvature="0"
     transform="matrix(1.0222222,0,0,1.0222222,-1,-1.2111111)" /><path
     style="fill:none;stroke:#000000;stroke-width:1px;stroke-linecap:butt;stroke-linejoin:miter;stroke-opacity:1"
     d="m 39.258475,73.205508 c -0.252501,0.579434 -0.230933,1.037479 -0.230933,1.616526 0,0.07698 0.03443,0.162081 0,0.230932 -0.04868,0.09737 -0.182247,0.133563 -0.230932,0.230932 -0.07152,0.143043 0.06833,0.8554 0,0.923729 -0.05443,0.05443 -0.176501,-0.05443 -0.230932,0 -0.108862,0.108863 0.06885,0.324163 0,0.461865 -0.04868,0.09737 -0.182247,0.133562 -0.230932,0.230932 -0.03443,0.06885 0.02434,0.157905 0,0.230932 -0.05443,0.163294 -0.176501,0.298571 -0.230932,0.461864 -0.04343,0.130292 0,0.54105 0,0.692797 0,0.07698 0,0.153955 0,0.230932 0,0.07698 -0.05443,0.176501 0,0.230932 0.05443,0.05443 0.153954,0 0.230932,0 0,0.07698 -0.05443,0.176501 0,0.230933 0.05443,0.05443 0.176501,-0.05443 0.230932,0 0.05443,0.05443 -0.03442,0.162081 0,0.230932 0.09737,0.194739 0.364495,0.267125 0.461864,0.461864 0.03443,0.06885 -0.05443,0.176501 0,0.230932 0.05443,0.05443 0.162082,-0.03442 0.230933,0 0.09737,0.04869 0.133562,0.182248 0.230932,0.230933 0.06885,0.03442 0.176501,-0.05443 0.230932,0 0.05443,0.05443 -0.06885,0.196506 0,0.230932 0.137701,0.06885 0.312506,-0.03734 0.461864,0 0.333975,0.08349 0.597142,0.353002 0.923729,0.461864 0.219082,0.07303 0.46876,-0.05601 0.692797,0 0.166987,0.04175 0.294877,0.189186 0.461864,0.230932 0.149358,0.03734 0.3109,-0.03019 0.461865,0 0.238696,0.04774 0.45664,0.171894 0.692796,0.230933 0.461865,0.115466 0,-0.230933 0.692797,0 0.85609,0.285363 -0.281495,0.230932 0.461864,0.230932 0.153955,0 0.30791,0 0.461865,0 0.07698,0 0.176501,-0.05443 0.230932,0 0.05443,0.05443 -0.05443,0.176501 0,0.230932 0.108862,0.108862 0.461864,-0.153955 0.461864,0 0,0.07698 -0.153955,0 -0.230932,0"
     id="path2988"
     inkscape:connector-curvature="0"
     transform="matrix(1.0222222,0,0,1.0222222,-1,-1.2111111)" /><path
     style="fill:none;stroke:#000000;stroke-width:1px;stroke-linecap:butt;stroke-linejoin:miter;stroke-opacity:1"
     d="m 36.949153,60.273305 c -0.571937,0.9835 -0.461865,0.9355 -0.461865,1.847458 0,0.07698 0,0.153954 0,0.230932 0,0.07698 -0.03442,0.162081 0,0.230932 0.04868,0.09737 0.153955,0.153955 0.230932,0.230932 0.07698,0.07698 0.133563,0.182248 0.230933,0.230933 0.06885,0.03442 0.176501,-0.05443 0.230932,0 0.05443,0.05443 -0.05443,0.1765 0,0.230932 0.901267,0.901267 0.124022,-0.05345 0.692796,0.230932 0.09737,0.04869 0.133563,0.182247 0.230933,0.230932 0.137701,0.06885 0.324163,-0.06885 0.461864,0 0.09737,0.04868 0.133563,0.182248 0.230932,0.230932 0.217936,0.572661 0.62263,0.130566 0.923729,0.230933 0.163294,0.05443 0.298571,0.1765 0.461864,0.230932 0.130292,0.04343 0.54105,0 0.692797,0 0.07698,0 0.176501,0.05443 0.230932,0 0.05443,-0.05443 -0.05443,-0.176501 0,-0.230932 0.115466,-0.115467 0.577331,0.115466 0.692797,0 0.05443,-0.05443 -0.05443,-0.176501 0,-0.230933 0.05443,-0.05443 0.162081,0.03443 0.230932,0 0.09737,-0.04868 0.133563,-0.182247 0.230932,-0.230932 0.137702,-0.06885 0.31581,0.04868 0.461865,0 1.672738,-0.557579 -0.36409,0.06658 0.692796,-0.461864 0.06885,-0.03443 0.157905,0.02434 0.230932,0 0.163294,-0.05443 0.298571,-0.176501 0.461865,-0.230932 0.246809,-0.08227 0.959405,0.09763 1.154661,0 0.06885,-0.03443 -0.07303,-0.20659 0,-0.230933 0.292109,-0.09737 0.615819,0 0.923729,0 0.769774,0 1.539548,0 2.309322,0 0.538842,0 1.077683,0 1.616525,0 0.153955,0 0.30791,0 0.461865,0 0.07698,0 0.162081,-0.03442 0.230932,0 0.09737,0.04868 0.127656,0.196507 0.230932,0.230933 0.292109,0.09737 0.625013,-0.07468 0.923729,0 0.166987,0.04175 0.307909,0.153954 0.461864,0.230932 0.230932,0 0.465007,-0.03796 0.692797,0 0.469864,-0.08021 0.748175,0.380567 1.154661,0.461864 0.226447,0.04529 0.466349,-0.04529 0.692796,0 0.337569,0.06751 0.597142,0.353002 0.923729,0.461865 0.301099,0.100366 0.612507,0.168687 0.923729,0.230932 0.07548,0.0151 0.162082,-0.03443 0.230932,0 0.765906,0.765905 -0.217725,-0.108863 0.461865,0.230932 0.09737,0.04868 0.133562,0.182247 0.230932,0.230932 0.06885,0.03442 0.157905,-0.02434 0.230932,0 0.163294,0.05443 0.298571,0.176501 0.461864,0.230932 0.146055,0.04868 0.324164,-0.06885 0.461865,0 0.09737,0.04868 0.133563,0.182248 0.230932,0.230933 0.06885,0.03442 0.157905,-0.02434 0.230932,0 0.163294,0.05443 0.298571,0.1765 0.461865,0.230932 0.07303,0.02434 0.162081,-0.03443 0.230932,0 0.09737,0.04869 0.133563,0.182247 0.230932,0.230932 0.136255,0.06813 0.533954,-0.05295 0.692797,0 0.163293,0.05443 0.29857,0.176501 0.461864,0.230932 0.07303,0.02434 0.162082,-0.03442 0.230932,0 0.09737,0.04868 0.133563,0.182248 0.230933,0.230932 0.06885,0.03443 0.153954,0 0.230932,0 0.07698,0 0.153955,0 0.230932,0"
     id="path2992"
     inkscape:connector-curvature="0"
     transform="matrix(1.0222222,0,0,1.0222222,-1,-1.2111111)" /><path
     style="fill:none;stroke:#000000;stroke-width:1px;stroke-linecap:butt;stroke-linejoin:miter;stroke-opacity:1"
     d="m 56.116525,90.987288 c 0.268408,0.49934 1.020458,0.327661 1.385594,0.692797 0.121712,0.121712 0.10922,0.340152 0.230932,0.461864 0.851849,0.85185 0.09318,-0.553021 0.923729,0.692797 0.0427,0.06405 -0.0427,0.166883 0,0.230932 0.23826,0.35739 0.665915,0.579977 0.923729,0.923729 0.166527,0.222037 0.295336,0.47076 0.461864,0.692796 0.130635,0.17418 0.341092,0.280707 0.461864,0.461865 0.09548,0.143218 0.135454,0.318646 0.230933,0.461864 0.120772,0.181158 0.341092,0.280706 0.461864,0.461865 0.09548,0.143218 0.135453,0.318646 0.230932,0.461864 0.06039,0.09058 0.165615,0.143842 0.230932,0.230932 0.333055,0.444074 0.576966,0.952139 0.923729,1.385593 0.136012,0.170015 0.33123,0.287685 0.461865,0.461865 0.103276,0.137701 0.127656,0.324163 0.230932,0.461864 0.130635,0.17418 0.331229,0.287685 0.461864,0.461865 0.206552,0.275402 0.255313,0.64833 0.461865,0.92373 0.130635,0.17418 0.331229,0.28768 0.461864,0.46186 0.103276,0.1377 0.127656,0.32417 0.230932,0.46187 0.195953,0.26127 0.511639,0.42106 0.692797,0.69279 0.09548,0.14322 0.135453,0.31865 0.230932,0.46187 0.213018,0.31952 0.248847,0.14234 0.461864,0.46186 0.09548,0.14322 0.135454,0.31865 0.230933,0.46187 0.64953,0.97429 -0.396321,-1.25451 0.692796,0.92373 0.03443,0.0688 -0.03442,0.16208 0,0.23093 0.04868,0.0974 0.170546,0.14035 0.230932,0.23093 0.09548,0.14322 0.135454,0.31865 0.230933,0.46186 0.140147,0.21023 0.590454,0.48812 0.692796,0.6928 0.03443,0.0689 0,0.15396 0,0.23093"
     id="path2994"
     inkscape:connector-curvature="0"
     transform="matrix(1.0222222,0,0,1.0222222,-1,-1.2111111)" /><path
     style="fill:none;stroke:#000000;stroke-width:1px;stroke-linecap:butt;stroke-linejoin:miter;stroke-opacity:1"
     d="m 35.332627,93.29661 c -1.097909,0.823432 -0.651572,0.420641 -1.385593,1.154661 -0.07698,0.07698 -0.140353,0.170546 -0.230932,0.230932 -0.143218,0.09548 -0.324163,0.127657 -0.461865,0.230933 -0.17418,0.130635 -0.275166,0.349845 -0.461864,0.461864 -0.208734,0.125241 -0.475072,0.12207 -0.692797,0.230932 -0.09737,0.04869 -0.140353,0.170546 -0.230932,0.230932 -0.143218,0.09548 -0.318646,0.135454 -0.461864,0.230933 -0.09058,0.06039 -0.140353,0.170546 -0.230933,0.230932 -0.143218,0.09548 -0.318646,0.135453 -0.461864,0.230932 -0.09058,0.06039 -0.133563,0.182247 -0.230932,0.230932 -0.217725,0.108863 -0.475072,0.12207 -0.692797,0.230932 -0.248244,0.124123 -0.444552,0.337742 -0.692796,0.461865 -0.370773,0.185386 -0.773643,0.298571 -1.154661,0.461864 -0.316419,0.135608 -0.597142,0.353002 -0.923729,0.461865 -0.220373,0.07346 -0.89892,-0.06394 -1.154661,0 -0.236156,0.05904 -0.452685,0.190913 -0.692797,0.230932 -0.22779,0.03796 -0.461864,0 -0.692796,0 -0.538842,0 -1.077684,0 -1.616526,0 -0.307909,0 -0.620009,0.05062 -0.923729,0 -0.169784,-0.0283 -0.302048,-0.167006 -0.461864,-0.230932 -0.226014,-0.09041 -0.452685,-0.190914 -0.692797,-0.230933 -0.22779,-0.03796 -0.473715,0.07303 -0.692796,0 -0.263304,-0.08777 -0.454803,-0.319068 -0.692797,-0.461864 -0.295195,-0.177117 -0.648326,-0.255312 -0.923729,-0.461864 -0.17418,-0.130635 -0.291849,-0.325853 -0.461864,-0.461865 -0.216727,-0.173381 -0.47607,-0.288483 -0.692797,-0.461864 -0.170014,-0.136012 -0.307909,-0.30791 -0.461864,-0.461865 -0.384887,-0.384887 -0.769774,-0.769774 -1.154661,-1.154661 -0.384887,-0.384887 -0.828074,-0.719211 -1.154661,-1.154661 -0.04619,-0.06158 0.03443,-0.162081 0,-0.230932 -1.089117,-2.178234 -0.04327,0.05057 -0.692797,-0.923729 -0.09548,-0.143218 -0.142374,-0.314267 -0.230932,-0.461864 -0.142796,-0.237994 -0.337742,-0.444552 -0.461864,-0.692797 -0.697388,-1.394775 0.03329,-0.09777 -0.230933,-1.154661 -0.08636,-0.345439 -0.310982,-0.372595 -0.230932,-0.692796 0.837197,-2.511589 -0.121712,0.608559 0.230932,-1.154661 0.04774,-0.238697 0.183193,-0.4541 0.230933,-0.692797 0.03019,-0.150965 -0.03734,-0.312506 0,-0.461864 0.04175,-0.166988 0.167006,-0.302049 0.230932,-0.461865 0.180811,-0.452027 0.281053,-0.933566 0.461864,-1.385593 0.127853,-0.319631 0.30791,-0.615819 0.461865,-0.923729 0.153954,-0.307909 0.307909,-0.615819 0.461864,-0.923729 0.07698,-0.153954 0.127656,-0.324163 0.230932,-0.461864 0.130635,-0.17418 0.33123,-0.287684 0.461865,-0.461864 0.103276,-0.137702 0.153954,-0.30791 0.230932,-0.461865 0.07698,-0.153955 0.153955,-0.307909 0.230932,-0.461864 0.07698,-0.153955 0.176501,-0.298571 0.230932,-0.461865 0.02434,-0.07303 -0.05443,-0.176501 0,-0.230932 0.121712,-0.121712 0.340153,-0.10922 0.461865,-0.230932 0.0148,-0.0148 0.433187,-0.880713 0.461864,-0.923729 0.06039,-0.09058 0.182247,-0.133562 0.230932,-0.230932 0.375548,-0.751096 0.0583,-0.549314 0.461865,-1.154661 0.06039,-0.09058 0.196507,-0.127656 0.230932,-0.230932 0.04868,-0.146055 -0.04868,-0.31581 0,-0.461865 0.03442,-0.103276 0.170546,-0.140353 0.230932,-0.230932 0.09548,-0.143218 0.135454,-0.318646 0.230932,-0.461864 0.06039,-0.09058 0.182248,-0.133563 0.230932,-0.230932 0.03443,-0.06885 -0.03442,-0.162082 0,-0.230933 0.04869,-0.09737 0.182248,-0.133562 0.230933,-0.230932 0.03443,-0.06885 -0.07698,-0.230932 0,-0.230932 0.07698,0 -0.07698,0.230932 0,0.230932 0.480542,0 0.09292,-0.323852 0.230932,-0.461864 0.05443,-0.05443 0.176501,0.05443 0.230932,0 0.05443,-0.05443 0.07698,-0.230933 0,-0.230933 -0.108862,0 -0.339795,0.230933 -0.230932,0.230933 0.196233,0 0.823864,-0.493067 0.923729,-0.692797 0.03443,-0.06885 -0.03443,-0.162081 0,-0.230932 0.528443,-1.056886 -0.09571,0.979941 0.461864,-0.692797 0.04868,-0.146054 -0.108862,-0.353002 0,-0.461864 0.05443,-0.05443 0.196507,0.06885 0.230932,0 0.103276,-0.206552 0,-0.461865 0,-0.692797 0,-0.153955 0.04868,-0.31581 0,-0.461864 -0.557579,-1.672738 0.06658,0.364089 -0.461864,-0.692797 -0.03442,-0.06885 0.05443,-0.176501 0,-0.230932 -0.03257,-0.03257 -0.645426,-0.02369 -0.692797,0 -0.06132,0.03066 -0.662139,0.631482 -0.692796,0.692797 -0.03443,0.06885 0.05443,0.176501 0,0.230932 -0.05443,0.05443 -0.162082,-0.03442 -0.230933,0 -0.09737,0.04869 -0.182247,0.133562 -0.230932,0.230932 -0.03442,0.06885 0.05443,0.176501 0,0.230932 -0.05443,0.05443 -0.176501,0.05443 -0.230932,0 -0.05443,-0.05443 0.02434,-0.157905 0,-0.230932 -0.05443,-0.163294 -0.153955,-0.30791 -0.230932,-0.461864 -0.07698,-0.153955 -0.135454,-0.318647 -0.230932,-0.461865 -0.06039,-0.09058 -0.196507,-0.127656 -0.230933,-0.230932 -0.04868,-0.146054 0.06885,-0.324163 0,-0.461864 -0.03443,-0.06885 -0.196506,0.06885 -0.230932,0 -0.06885,-0.137702 0.04868,-0.31581 0,-0.461865 -0.03443,-0.103276 -0.153955,-0.153955 -0.230932,-0.230932 -0.264221,-0.264221 -0.273371,-0.322056 -0.692797,-0.461864 -0.09096,-0.03032 -1.111492,-0.02159 -1.154661,0 -0.09737,0.04868 -0.133562,0.182247 -0.230932,0.230932 -0.06885,0.03442 -0.176501,-0.05443 -0.230932,0 -0.05443,0.05443 0.05443,0.176501 0,0.230932 -0.05443,0.05443 -0.162081,-0.03442 -0.230932,0 -0.288,0.144 -0.173865,0.317864 -0.461865,0.461864 -0.06885,0.03443 -0.153954,0 -0.230932,0 -0.07698,0 -0.162081,0.03443 -0.230932,0 -0.09737,-0.04868 -0.133563,-0.182247 -0.230932,-0.230932 -0.06885,-0.03442 -0.162082,0.03443 -0.230932,0 -0.19474,-0.09737 -0.280707,-0.341092 -0.461865,-0.461864 -0.166301,-0.110868 -0.586696,-0.337033 -0.692796,-0.230932 -0.05443,0.05443 0.05443,0.176501 0,0.230932 -0.05443,0.05443 -0.166884,-0.0427 -0.230933,0 -0.70706,0.471374 -0.266872,0.355829 -0.692796,0.923729 -0.130635,0.17418 -0.33123,0.287684 -0.461865,0.461864 -0.103276,0.137701 -0.153954,0.30791 -0.230932,0.461864 -0.153955,0.230933 -0.288483,0.47607 -0.4618642,0.692797 -0.1360118,0.170015 -0.3410924,0.280706 -0.4618645,0.461864 -0.042699,0.06405 0.054431,0.176501 0,0.230933 -0.039527,0.03953 -0.8026046,-0.03028 -0.9237288,0 -2.3332493,0.583312 0.1667764,-0.08339 -0.9237288,0.461864 -0.068851,0.03443 -0.1765009,-0.05443 -0.2309322,0 -0.1217119,0.121712 -0.1354535,0.318646 -0.2309322,0.461864 -0.1207721,0.181159 -0.3644948,0.267126 -0.4618644,0.461865 -0.034425,0.06885 0.034425,0.162081 0,0.230932 -0.048685,0.09737 -0.1965069,0.127656 -0.2309322,0.230932 -0.048685,0.146055 0.037339,0.312507 0,0.461865 -0.041747,0.166987 -0.176501,0.29857 -0.2309322,0.461864 -0.048685,0.146054 0.1088625,0.353002 0,0.461865 -0.054431,0.05443 -0.176501,-0.05443 -0.2309322,0 -0.054431,0.05443 0,0.153954 0,0.230932 0,0.07698 -0.024342,0.157905 0,0.230932 0.054431,0.163294 0.176501,0.298571 0.2309322,0.461864 0.024342,0.07303 -0.024342,0.157905 0,0.230933 0.054431,0.163293 0.176501,0.29857 0.2309322,0.461864 0.06928,0.207839 -0.06928,0.484958 0,0.692797 0.034425,0.103276 0.1822474,0.133562 0.2309322,0.230932 0.034425,0.06885 0,0.153955 0,0.230932 0,0.232561 -0.04257,1.257884 0,1.385593 0.034425,0.103276 0.2045292,0.12532 0.2309322,0.230932 0.056009,0.224038 0,0.461865 0,0.692797 0,0.153955 0,0.30791 0,0.461864 0,0.538842 0,1.077684 0,1.616526 0,0.153955 0.048685,0.31581 0,0.461864 -0.034425,0.103276 -0.1822474,0.133563 -0.2309322,0.230932 -0.033047,0.06609 0,1.031294 0,1.154661 0,0.384887 0,0.769774 0,1.154661 0,0.230933 -0.073027,0.473716 0,0.692797 0.034425,0.103276 0.1822474,0.133563 0.2309322,0.230932 0.05138,0.10276 -0.035208,0.818104 0,0.923729 0.034425,0.103276 0.1822474,0.133563 0.2309322,0.230932 0.034425,0.06885 0,0.153955 0,0.230932 0,0.188785 -0.039015,1.499482 0,1.616526 0.034425,0.103276 0.2045292,0.12532 0.2309322,0.230932 0.056009,0.224037 -0.056009,0.46876 0,0.692797 0.026403,0.105612 0.1965069,0.127656 0.2309322,0.230932 0,1.051269 -0.1088625,0.01321 0.2309322,0.692797 0.034425,0.06885 -0.01867,0.156253 0,0.230932 0.059039,0.236156 0.1831929,0.4541 0.2309322,0.692796 0.030193,0.150965 -0.048685,0.31581 0,0.461865 0.034425,0.103276 0.1822474,0.133562 0.2309322,0.230932 0.068851,0.137701 -0.057177,0.318921 0,0.461864 0.1278525,0.319632 0.3340119,0.604098 0.4618644,0.923729 0.028589,0.07147 -0.034425,0.162082 0,0.230932 0.09737,0.19474 0.3644949,0.267126 0.4618644,0.461865 0.034425,0.06885 -0.034425,0.162081 0,0.230932 0.09737,0.194739 0.3644949,0.267125 0.4618644,0.461864 0.034425,0.06885 -0.024342,0.157905 0,0.230933 0.5575795,1.672738 -0.066579,-0.36409 0.4618645,0.692796 0.03443,0.06885 -0.03442,0.162082 0,0.230932 0.09737,0.19474 0.341092,0.280707 0.461864,0.461865 0.09548,0.143218 0.135454,0.318646 0.230933,0.461864 0.06039,0.09058 0.182247,0.133563 0.230932,0.230932 0.03442,0.06885 -0.0427,0.166884 0,0.230933 0.27735,0.416025 0.484784,0.380777 0.692796,0.6928 0.23077,0.34615 0.231096,0.57757 0.461865,0.92373 0.120772,0.18115 0.341092,0.2807 0.461864,0.46186 0.09548,0.14322 0.135454,0.31865 0.230932,0.46186 0.06039,0.0906 0.170547,0.14036 0.230933,0.23094 0.09548,0.14321 0.135453,0.31864 0.230932,0.46186 0.120772,0.18116 0.364495,0.26713 0.461864,0.46186 0.03443,0.0689 0,0.15396 0,0.23094 0.07698,0.23093 0.09591,0.49025 0.230932,0.69279 0.0427,0.0641 0.20659,-0.073 0.230933,0 0.07303,0.21909 -0.05601,0.46876 0,0.6928 0.0264,0.10561 0.170546,0.14035 0.230932,0.23093 0.09548,0.14322 0.189185,0.29488 0.230932,0.46187 0,1.53181 -0.108862,-0.32659 0.230932,0.69279 0.04869,0.14606 0,0.30791 0,0.46187 0,0.077 -0.03443,0.16208 0,0.23093 0.04869,0.0974 0.230932,0.12207 0.230932,0.23093 0,0.077 -0.153954,0 -0.230932,0"
     id="path2996"
     inkscape:connector-curvature="0"
     transform="matrix(1.0222222,0,0,1.0222222,-1,-1.2111111)" /><path
     style="fill:none;stroke:#000000;stroke-width:1px;stroke-linecap:butt;stroke-linejoin:miter;stroke-opacity:1"
     d="m 34.639831,71.127119 c -0.985311,0.738983 -0.923729,0.307909 -0.923729,0.923728 0,0.07698 0.05443,0.176501 0,0.230933 -0.05443,0.05443 -0.176501,-0.05443 -0.230932,0 -0.02309,0.02309 -0.02309,0.669703 0,0.692796 0.05443,0.05443 0.1765,-0.05443 0.230932,0 0.108862,0.108863 -0.108863,0.353002 0,0.461865 0.05443,0.05443 0.176501,-0.05443 0.230932,0 0.05443,0.05443 -0.03442,0.162081 0,0.230932 0.255302,0.510604 0.143326,0.07166 0.461864,0.230932 0.09737,0.04869 0.133563,0.182247 0.230933,0.230932 0.06885,0.03443 0.153954,0 0.230932,0 0.07698,0 0.162081,0.03443 0.230932,0 0.09737,-0.04869 0.133563,-0.182247 0.230932,-0.230932 0.06885,-0.03442 0.176501,0.05443 0.230932,0 0.05443,-0.05443 -0.05443,-0.176501 0,-0.230932 0.05443,-0.05443 0.162082,0.03442 0.230933,0 0.194739,-0.09737 0.267125,-0.364495 0.461864,-0.461865 0.06885,-0.03442 0.176501,0.05443 0.230932,0 0.05443,-0.05443 -0.05443,-0.176501 0,-0.230932 0.05443,-0.05443 0.176501,0.05443 0.230932,0 0.05443,-0.05443 -0.05443,-0.176501 0,-0.230932 0.05443,-0.05443 0.176501,0.05443 0.230933,0 0.05443,-0.05443 -0.05443,-0.176501 0,-0.230932 0.05443,-0.05443 0.176501,0.05443 0.230932,0 0.05443,-0.05443 0.05443,-0.176501 0,-0.230932 -0.05443,-0.05443 -0.176501,0.05443 -0.230932,0 -0.108863,-0.108863 0.06885,-0.324163 0,-0.461865 -0.480543,-0.961084 0.01594,0.246875 -0.461865,-0.230932 -0.05443,-0.05443 0.05443,-0.176501 0,-0.230932 -0.05443,-0.05443 -0.176501,0.05443 -0.230932,0 -0.05443,-0.05443 0.06885,-0.196507 0,-0.230932 -0.137701,-0.06885 -0.324163,0.06885 -0.461864,0 -0.06885,-0.03443 0.07698,-0.230933 0,-0.230933 -0.39251,0 -0.769774,0.153955 -1.154661,0.230933 z"
     id="path3002"
     inkscape:connector-curvature="0"
     transform="matrix(1.0222222,0,0,1.0222222,-1,-1.2111111)" /><path
     style="fill:none;stroke:#000000;stroke-width:1px;stroke-linecap:butt;stroke-linejoin:miter;stroke-opacity:1"
     d="m 45.03178,72.974576 c -0.30791,0.30791 -0.61582,0.615819 -0.923729,0.923729 -0.07698,0.07698 -0.182248,0.133563 -0.230932,0.230932 -0.03036,0.06072 0,0.80297 0,0.923729 0,0.104002 -0.03514,0.622516 0,0.692797 0.176845,0.35369 0.411525,0.180593 0.692796,0.461864 0.05443,0.05443 -0.05443,0.176501 0,0.230932 0.05443,0.05443 0.153955,0 0.230932,0 0.153955,0 0.324164,0.06885 0.461865,0 0.06885,-0.03442 -0.05443,-0.176501 0,-0.230932 0.108862,-0.108862 0.31581,0.04868 0.461864,0 0.163294,-0.05443 0.298571,-0.176501 0.461865,-0.230932 0.07303,-0.02434 0.176501,0.05443 0.230932,0 0.05443,-0.05443 -0.05443,-0.176501 0,-0.230932 0.477807,-0.477807 -0.01868,0.730152 0.461864,-0.230933 0.03443,-0.06885 -0.03443,-0.162081 0,-0.230932 0.04868,-0.09737 0.182248,-0.133562 0.230933,-0.230932 0.03443,-0.06885 -0.05443,-0.176501 0,-0.230932 0.05443,-0.05443 0.162081,0.03442 0.230932,0 0.09737,-0.04869 0.182247,-0.133563 0.230932,-0.230932 0.02369,-0.04737 0.03257,-0.66023 0,-0.692797 -0.05443,-0.05443 -0.176501,0.05443 -0.230932,0 -0.108863,-0.108862 0.108862,-0.353002 0,-0.461864 -0.108863,-0.108863 -0.324163,0.06885 -0.461865,0 -0.09737,-0.04869 -0.133562,-0.182248 -0.230932,-0.230933 -0.06885,-0.03442 -0.162081,0.03443 -0.230932,0 -1.006177,-0.503088 1.656616,-0.230932 -1.385593,-0.230932 z"
     id="path3004"
     inkscape:connector-curvature="0"
     transform="matrix(1.0222222,0,0,1.0222222,-1,-1.2111111)" /><path
     style="fill:none;stroke:#000000;stroke-width:1px;stroke-linecap:butt;stroke-linejoin:miter;stroke-opacity:1"
     d="m 43.415254,74.360169 c -0.648629,0.03037 -1.060367,-0.50741 -1.616525,-0.692796 -0.07303,-0.02434 -0.157905,0.02434 -0.230932,0 -1.433421,-0.477807 0.767508,0.01868 -1.154661,-0.461865 -0.09481,-0.0237 -0.433872,0.02799 -0.461865,0 -0.05443,-0.05443 0.05443,-0.176501 0,-0.230932 -0.05443,-0.05443 -0.153955,0 -0.230932,0 -0.30791,0 -0.615819,0 -0.923729,0 -0.307909,0 -0.615819,0 -0.923729,0 -0.07698,0 -0.307909,0 -0.230932,0 0.230932,0 0.923729,0 0.692797,0 -1.000706,0 -0.923729,0.30791 -0.923729,-0.230932"
     id="path3006"
     inkscape:connector-curvature="0"
     transform="matrix(1.0222222,0,0,1.0222222,-1,-1.2111111)" /><path
     style="fill:none;stroke:#000000;stroke-width:1px;stroke-linecap:butt;stroke-linejoin:miter;stroke-opacity:1"
     d="m 37.411017,86.137712 c 0.272943,0.761371 0.782294,0.10681 1.154661,0.230932 0.163294,0.05443 0.298571,0.176501 0.461864,0.230932 0.146055,0.04869 0.31581,-0.04869 0.461865,0 0.163294,0.05443 0.29857,0.176501 0.461864,0.230932 0.07303,0.02434 0.153955,0 0.230932,0 0.153955,0 0.30791,0 0.461865,0 0.538842,0 1.077683,0 1.616525,0 0.30791,0 0.615819,0 0.923729,0 0.07698,0 0.30791,0 0.230932,0 -0.365857,0 -0.899348,0.06885 0,-0.230932 0.07303,-0.02434 0.162082,0.03443 0.230932,0 0.09737,-0.04869 0.133563,-0.182247 0.230933,-0.230932 0.06885,-0.03442 0.176501,0.05443 0.230932,0 0.05443,-0.05443 -0.03443,-0.162081 0,-0.230932 0.480542,-0.961085 -0.01594,0.246875 0.461864,-0.230932 0.05443,-0.05443 -0.03442,-0.162082 0,-0.230933 0.04868,-0.09737 0.182248,-0.133562 0.230932,-0.230932 0.03443,-0.06885 -0.07698,-0.230932 0,-0.230932 0.07698,0 0.07698,0.230932 0,0.230932 -0.108862,0 -0.182247,-0.133562 -0.230932,-0.230932 -0.03442,-0.06885 0.05443,-0.176501 0,-0.230932 -0.108862,-0.108863 -0.31581,0.04868 -0.461864,0 -0.163294,-0.05443 -0.294877,-0.189186 -0.461865,-0.230932 -0.149358,-0.03734 -0.307909,0 -0.461864,0 -0.153955,0 -0.30791,0 -0.461864,0 -0.384887,0 -0.769774,0 -1.154661,0 -0.07698,0 -0.176501,-0.05443 -0.230933,0 -0.05443,0.05443 0.05443,0.176501 0,0.230932 -0.0012,0.0012 -0.685076,-0.0019 -0.692796,0 -0.166988,0.04175 -0.298571,0.176501 -0.461865,0.230932 -0.146054,0.04869 -0.31581,-0.04868 -0.461864,0 -0.163294,0.05443 -0.298571,0.176501 -0.461864,0.230932 -0.07303,0.02434 -0.153955,0 -0.230933,0 -0.538841,0.230932 -1.077683,0.461865 -1.616525,0.692797 z"
     id="path3008"
     inkscape:connector-curvature="0"
     transform="matrix(1.0222222,0,0,1.0222222,-1,-1.2111111)" /><text
     xml:space="preserve"
     style="font-size:40.88888931px;font-style:normal;font-weight:normal;line-height:125%;letter-spacing:0px;word-spacing:0px;fill:#000000;fill-opacity:1;stroke:none;font-family:Sans"
     x="54.475044"
     y="58.985214"
     id="text3010"
     sodipodi:linespacing="125%"><tspan
       sodipodi:role="line"
       id="tspan3012"
       x="54.475044"
       y="58.985214"
       style="font-size:10.22222233px">it just </tspan><tspan
       sodipodi:role="line"
       x="54.475044"
       y="71.762993"
       id="tspan3014"
       style="font-size:10.22222233px">works</tspan></text>
<path
     style="fill:none;stroke:#000000;stroke-width:1px;stroke-linecap:butt;stroke-linejoin:miter;stroke-opacity:1"
     d="m 3.2330509,56.347457 c 0,1.154661 0,2.309322 0,3.463983 0,0.159464 -0.035106,0.853517 0,0.923729 0.048685,0.09737 0.1822474,0.133563 0.2309322,0.230932 0.034425,0.06885 0,0.153955 0,0.230933 0,0.230932 -0.04529,0.466349 0,0.692796 0.033757,0.168784 0.1765009,0.298571 0.2309322,0.461865 0.024342,0.07303 -0.01867,0.156253 0,0.230932 0.059039,0.236156 0.1909135,0.452685 0.2309322,0.692796 0.037965,0.227791 -0.037965,0.465007 0,0.692797 0.3378605,2.027163 0.084949,-0.353002 0.4618644,1.154661 0.037339,0.149358 0,0.30791 0,0.461864 0.076977,0.153955 0.176501,0.298571 0.2309322,0.461865 0.06928,0.207839 -0.06928,0.484958 0,0.692796 0.034425,0.103277 0.1965069,0.127657 0.2309322,0.230933 0.048685,0.146054 -0.037339,0.312506 0,0.461864 0.041747,0.166988 0.1891854,0.294877 0.2309322,0.461865 0.03734,0.149358 -0.037339,0.312506 0,0.461864 0.041747,0.166987 0.1891854,0.294877 0.2309322,0.461864 0.037339,0.149358 -0.03734,0.312507 0,0.461865 0.041747,0.166987 0.1891854,0.294877 0.2309322,0.461864 0.037339,0.149358 0,0.30791 0,0.461865 0.076977,0.153954 0.176501,0.29857 0.2309322,0.461864 0.04244,0.127319 -0.049373,0.874356 0,0.923729 0.022274,0.02227 0.3684252,-0.01869 0.4618644,0 0.3112226,0.06224 0.6106613,0.178754 0.9237289,0.230932 0.15186,0.02531 0.3079096,0 0.4618644,0 0.3079096,0 0.6158192,0 0.9237288,0 1.2316384,0 2.4632764,0 3.6949154,0 0.384887,0 0.769774,0 1.154661,0 0.153955,0 0.310899,0.03019 0.461864,0 0.238697,-0.04774 0.456641,-0.171893 0.692797,-0.230932 0.07468,-0.01867 0.153955,0 0.230932,0 0.384887,0 0.777248,0.07548 1.154661,0 0.168784,-0.03376 0.294877,-0.189186 0.461865,-0.230932 0.340381,-0.0851 1.013926,0.06194 1.385593,0 0.313067,-0.05218 0.612506,-0.168688 0.923729,-0.230933 0.226447,-0.04529 0.461864,0 0.692796,0 0.128897,0 1.048949,0.03524 1.154661,0 0.103276,-0.03442 0.127656,-0.196506 0.230932,-0.230932 0.137326,-0.04578 1.112815,0 1.385594,0 0.07698,0 0.153954,0 0.230932,0 0.07698,0 0.176501,0.05443 0.230932,0 0.05443,-0.05443 -0.05443,-0.176501 0,-0.230932 0.05443,-0.05443 0.153955,0 0.230932,0 0.07698,0 0.153955,0 0.230932,0 0.384888,0 0.769775,0 1.154662,0 0.07698,0 0.157905,0.02434 0.230932,0 0.163293,-0.05443 0.29857,-0.176501 0.461864,-0.230932 0.185877,-0.06196 0.776158,0.07379 0.923729,0 0.09737,-0.04868 0.133563,-0.182248 0.230932,-0.230932 0.184746,-0.09237 0.508051,0.09237 0.692797,0 0.09737,-0.04868 0.133562,-0.182248 0.230932,-0.230933 0.137701,-0.06885 0.324163,0.06885 0.461864,0 0.09737,-0.04868 0.133563,-0.182247 0.230933,-0.230932 0.137701,-0.06885 0.324163,0.06885 0.461864,0 0.09737,-0.04868 0.133563,-0.182247 0.230932,-0.230932 0.184746,-0.09237 0.508051,0.09237 0.692797,0 0.09737,-0.04869 0.133562,-0.182247 0.230932,-0.230932 0.06885,-0.03443 0.176501,0.05443 0.230932,0 0.05443,-0.05443 -0.05443,-0.176501 0,-0.230932 0.108863,-0.108863 0.31581,0.04868 0.461865,0 0.163293,-0.05443 0.29857,-0.176501 0.461864,-0.230933 0.146054,-0.04868 0.353002,0.108863 0.461864,0 0.05443,-0.05443 -0.05443,-0.176501 0,-0.230932 0.05443,-0.05443 0.162082,0.03442 0.230933,0 0.09737,-0.04869 0.153954,-0.153955 0.230932,-0.230932 0.07698,-0.07698 0.182247,-0.133563 0.230932,-0.230932 0.03442,-0.06885 -0.05443,-0.176501 0,-0.230932 0.05443,-0.05443 0.176501,0.05443 0.230932,0 0.05443,-0.05443 -0.03442,-0.162082 0,-0.230933 0.04868,-0.09737 0.153955,-0.153954 0.230932,-0.230932 0,-0.153955 -0.03734,-0.312506 0,-0.461864 0.08349,-0.333975 0.353002,-0.597142 0.461865,-0.923729 0.02434,-0.07303 0,-0.153955 0,-0.230932 0,-0.230933 -0.05601,-0.46876 0,-0.692797 0.0264,-0.105612 0.204529,-0.12532 0.230932,-0.230932 0.03263,-0.130517 -0.05972,-0.975492 0,-1.154661 0.05443,-0.163294 0.176501,-0.298571 0.230932,-0.461865 0.02434,-0.07303 0,-0.153954 0,-0.230932 0,-0.230932 -0.04529,-0.466349 0,-0.692796 0.03376,-0.168785 0.176501,-0.298571 0.230933,-0.461865 0.02434,-0.07303 0,-0.153955 0,-0.230932 0,-0.148606 -0.03907,-1.460243 0,-1.616525 0.04175,-0.166988 0.189185,-0.294877 0.230932,-0.461865 0.03734,-0.149358 0,-0.307909 0,-0.461864 0,-0.30791 0,-0.615819 0,-0.923729 0,-0.30791 -0.06039,-0.621799 0,-0.923729 0.04774,-0.238697 0.190913,-0.452685 0.230932,-0.692797 0.03796,-0.22779 0,-0.461864 0,-0.692796 0,-0.230932 0.03796,-0.465007 0,-0.692797 C 33.676083,54.952684 33.525188,54.740112 33.48517,54.5 c -0.08858,-0.531511 0.0762,-1.0831 0,-1.616526 -0.03443,-0.240977 -0.171894,-0.456641 -0.230932,-0.692796 -0.01867,-0.07468 0,-0.153955 0,-0.230933 0,-0.230932 0.03266,-0.464185 0,-0.692796 -0.04489,-0.314196 -0.168688,-0.612507 -0.230933,-0.923729 -0.0151,-0.07548 0.02434,-0.157905 0,-0.230932 -0.05443,-0.163294 -0.167006,-0.302049 -0.230932,-0.461865 -0.187774,-0.469435 -0.191076,-0.748478 -0.461864,-1.154661 -0.19603,-0.294044 -0.381192,-0.274901 -0.692797,-0.461864 -0.237994,-0.142796 -0.454803,-0.319068 -0.692797,-0.461865 -0.147597,-0.08856 -0.314267,-0.142373 -0.461864,-0.230932 -0.237994,-0.142796 -0.444552,-0.337742 -0.692797,-0.461864 -0.217725,-0.108863 -0.461864,-0.153955 -0.692796,-0.230932 -0.460141,-0.153381 -1.152572,-0.403871 -1.616526,-0.461865 -0.305532,-0.03819 -0.618913,0.04355 -0.923728,0 -0.240978,-0.03442 -0.45182,-0.196507 -0.692797,-0.230932 -0.304815,-0.04355 -0.615819,0 -0.923729,0 -0.307909,0 -0.615819,0 -0.923729,0 -0.153954,0 -0.310004,0.02531 -0.461864,0 -0.313068,-0.05218 -0.608794,-0.191565 -0.923729,-0.230932 -0.611064,-0.07638 -1.235405,0.06801 -1.847458,0 -0.390108,-0.04335 -0.764552,-0.187587 -1.154661,-0.230932 -0.612052,-0.06801 -1.236393,0.07638 -1.847457,0 -0.314935,-0.03937 -0.610661,-0.178755 -0.923729,-0.230933 -0.07464,-0.01244 -0.781234,-0.0285 -0.923729,0 -0.311222,0.06224 -0.612506,0.168688 -0.923729,0.230933 -0.30193,0.06039 -0.620008,-0.05062 -0.923728,0 -0.469864,-0.08021 -0.748176,0.380567 -1.154662,0.461864 -0.230932,0 -0.461864,0 -0.692796,0 0,0.07698 0.07303,0.20659 0,0.230932 -0.624804,0.208268 -0.665219,-0.25851 -1.154661,0.230932 -0.05443,0.05443 0.05443,0.176501 0,0.230933 -0.05443,0.05443 -0.176501,-0.05443 -0.230932,0 -0.05443,0.05443 0.05443,0.176501 0,0.230932 -0.05443,0.05443 -0.176501,-0.05443 -0.230933,0 -0.05443,0.05443 0,0.153955 0,0.230932 -0.153954,0.153955 -0.280706,0.341092 -0.461864,0.461864 -0.06405,0.0427 -0.1620815,-0.03442 -0.2309322,0 -0.09737,0.04868 -0.1539548,0.153955 -0.2309322,0.230933 -0.263491,0.263491 -0.8671911,0.939058 -1.154661,1.154661 -0.1377014,0.103276 -0.3186464,0.135453 -0.4618644,0.230932 -0.090579,0.06039 -0.1335627,0.182247 -0.2309322,0.230932 -0.068851,0.03442 -0.1620816,-0.03442 -0.2309322,0 -0.1400144,0.07001 -0.8248264,0.849552 -0.9237289,0.923729 -0.1377013,0.103276 -0.3186463,0.135453 -0.4618644,0.230932 -0.1811581,0.120772 -0.2807063,0.341092 -0.4618644,0.461865 -0.143218,0.09548 -0.3186463,0.135453 -0.4618644,0.230932 -0.090579,0.06039 -0.1403531,0.170546 -0.2309322,0.230932 -0.1432181,0.09548 -0.324163,0.127656 -0.4618644,0.230932 -0.17418,0.130635 -0.3079096,0.30791 -0.4618644,0.461865 -0.076977,0.07698 -0.1335626,0.182247 -0.2309322,0.230932 -0.068851,0.03442 -0.176501,-0.05443 -0.2309322,0 -0.054431,0.05443 0.034425,0.162081 0,0.230932 -0.048685,0.09737 -0.1822474,0.133563 -0.2309322,0.230932 -0.092373,0.184746 0.092373,0.508051 0,0.692797 -0.048685,0.09737 -0.1822474,0.133562 -0.2309322,0.230932 -0.03514,0.07028 0,0.588795 0,0.692797 0,0.615819 0,1.231638 0,1.847457 z"
     id="path2997"
     inkscape:connector-curvature="0"
     transform="matrix(1.0222222,0,0,1.0222222,-1,-1.2111111)" /><path
     style="fill:none;stroke:#000000;stroke-width:1px;stroke-linecap:butt;stroke-linejoin:miter;stroke-opacity:1"
     d="m 8.0826272,54.038135 c -0.076977,0.30791 -0.130566,0.62263 -0.2309322,0.923729 -0.054431,0.163294 -0.1891854,0.294877 -0.2309322,0.461864 -0.056009,0.224038 0,0.461865 0,0.692797 0,0.461864 0,0.923729 0,1.385593 0,0.153955 0.048685,0.31581 0,0.461865 -0.054431,0.163293 -0.176501,0.29857 -0.2309322,0.461864 -0.024342,0.07303 0,0.153955 0,0.230932 0,0.208154 0.04845,1.009313 0,1.154661 -0.054431,0.163294 -0.176501,0.298571 -0.2309322,0.461865 -0.023649,0.07095 -0.00638,1.36009 0,1.385593 0.041747,0.166987 0.1765009,0.298571 0.2309322,0.461864 0.024342,0.07303 -0.034425,0.162082 0,0.230933 0.048685,0.09737 0.1822474,0.133562 0.2309322,0.230932 0.034425,0.06885 -0.034425,0.162081 0,0.230932 0.048685,0.09737 0.1539548,0.153955 0.2309322,0.230932 0.1539548,0.153955 0.3410923,0.280706 0.4618644,0.461865 0.042699,0.06405 -0.054431,0.176501 0,0.230932 0.054431,0.05443 0.1620815,-0.03443 0.2309322,0 0.09737,0.04868 0.1403531,0.170546 0.2309322,0.230932 0.043016,0.02868 0.9089308,0.447066 0.9237288,0.461864 0.054431,0.05443 -0.054431,0.176501 0,0.230933 0.054431,0.05443 0.1620815,-0.03443 0.2309322,0 0.097369,0.04868 0.1539552,0.153954 0.2309322,0.230932 0.230932,0 0.473715,-0.07303 0.692797,0 0.07303,0.02434 -0.05443,0.176501 0,0.230932 0.05443,0.05443 0.153954,0 0.230932,0 0.07698,0 0.153955,0 0.230932,0 0.230932,0 0.461864,0 0.692797,0 0.615819,0 1.231638,0 1.847457,0 0.230933,0 0.464186,0.03266 0.692797,0 0.314196,-0.04489 0.609533,-0.186047 0.923729,-0.230932 0.228611,-0.03266 0.461864,0 0.692796,0 0.461865,0 0.923729,0 1.385594,0 0.230932,0 0.463276,0.0255 0.692796,0 0.465372,-0.05171 0.920222,-0.179224 1.385593,-0.230932 0.22952,-0.0255 0.461865,0 0.692797,0 0.615819,0 1.231638,0 1.847458,0 0.153954,0 0.310899,0.03019 0.461864,0 0.238697,-0.04774 0.4541,-0.183193 0.692797,-0.230933 0.30193,-0.06039 0.615819,0 0.923729,0 0.07698,0 0.157905,0.02434 0.230932,0 0.163293,-0.05443 0.302049,-0.167006 0.461864,-0.230932 0.226014,-0.09041 0.456641,-0.171893 0.692797,-0.230932 0.09481,-0.0237 0.433871,0.02799 0.461864,0 0.05443,-0.05443 -0.03442,-0.162081 0,-0.230932 0.04777,-0.09555 0.594913,-0.627541 0.692797,-0.692797 0.143218,-0.09548 0.340152,-0.10922 0.461864,-0.230932 0.121712,-0.121712 0.153955,-0.30791 0.230932,-0.461864 0.153955,-0.07698 0.340153,-0.109221 0.461865,-0.230933 0.05443,-0.05443 -0.02434,-0.157905 0,-0.230932 0.05443,-0.163294 0.153955,-0.307909 0.230932,-0.461864 0.07698,-0.153955 0.176501,-0.298571 0.230932,-0.461865 0.08695,-0.260865 -0.160012,-0.480036 -0.230932,-0.692796 -0.02434,-0.07303 0.02434,-0.157905 0,-0.230932 -0.108862,-0.326588 -0.353002,-0.597142 -0.461864,-0.923729 -0.04868,-0.146055 0.06885,-0.324163 0,-0.461865 -0.04868,-0.09737 -0.182248,-0.133562 -0.230933,-0.230932 -0.06885,-0.137701 0.06885,-0.324163 0,-0.461864 -0.04868,-0.09737 -0.182247,-0.133563 -0.230932,-0.230933 -0.06885,-0.137701 0.06885,-0.324163 0,-0.461864 -0.04868,-0.09737 -0.182247,-0.133563 -0.230932,-0.230932 -0.03443,-0.06885 0,-0.153955 0,-0.230932 -0.07698,-0.230933 -0.12207,-0.475072 -0.230932,-0.692797 -0.04869,-0.09737 -0.170546,-0.140353 -0.230932,-0.230932 -0.09548,-0.143218 -0.153955,-0.30791 -0.230933,-0.461865 -0.07698,-0.153954 -0.176501,-0.29857 -0.230932,-0.461864 -0.02434,-0.07303 0.03443,-0.162081 0,-0.230932 -0.09737,-0.194739 -0.341092,-0.280706 -0.461864,-0.461865 -0.09548,-0.143218 -0.135454,-0.318646 -0.230932,-0.461864 -0.132848,-0.199271 -0.512419,-0.512419 -0.692797,-0.692797 -0.153955,-0.153954 -0.30791,-0.307909 -0.461864,-0.461864 -0.153955,-0.153955 -0.287685,-0.331229 -0.461865,-0.461864 -0.284088,-0.213067 -1.303056,-0.630103 -1.616525,-0.692797 -0.150965,-0.03019 -0.312507,0.03734 -0.461865,0 -0.166987,-0.04175 -0.294877,-0.189185 -0.461864,-0.230932 -0.149358,-0.03734 -0.30791,0 -0.461865,0 -0.384887,0 -0.769774,0 -1.154661,0 -0.25463,0 -1.219636,-0.04149 -1.385593,0 -0.105612,0.0264 -0.127656,0.196507 -0.230932,0.230932 -0.191263,0.06375 -1.007801,-0.07343 -1.154661,0 -0.09737,0.04868 -0.12532,0.204529 -0.230932,0.230932 -0.224037,0.05601 -0.46876,-0.05601 -0.692797,0 -0.105612,0.0264 -0.133562,0.182248 -0.230932,0.230932 -0.137701,0.06885 -0.31581,-0.04868 -0.461864,0 -0.163294,0.05443 -0.298571,0.176501 -0.461865,0.230933 -0.146054,0.04868 -0.324163,-0.06885 -0.461864,0 -1.056886,0.528443 0.979941,-0.09571 -0.692797,0.461864 -0.146054,0.04869 -0.312506,-0.03734 -0.461864,0 -0.230933,0.07698 -0.461865,0.153955 -0.692797,0.230932 -0.07698,0.07698 -0.127656,0.196507 -0.230932,0.230932 -1.051269,0 -0.01321,-0.108862 -0.692797,0.230933 -0.137701,0.06885 -0.324163,-0.06885 -0.461864,0 -0.09737,0.04868 -0.133563,0.182247 -0.230932,0.230932 -0.145146,0.07257 -0.778583,-0.07257 -0.9237292,0 -0.068851,0.03442 0.054431,0.176501 0,0.230932 -0.054431,0.05443 -0.1765009,0.05443 -0.2309322,0 -0.2394852,-0.239485 0.5559484,-0.521736 -0.4618644,-0.230932 -0.3985863,0.113882 -0.769774,0.307909 -1.154661,0.461864 z"
     id="path2999"
     inkscape:connector-curvature="0"
     transform="matrix(1.0222222,0,0,1.0222222,-1,-1.2111111)" /></svg>