<?xml version="1.0" encoding="UTF-8" standalone="no"?>
<!-- Generator: Adobe Illustrator 15.0.0, SVG Export Plug-In . SVG Version: 6.00 Build 0)  -->

<svg
   xmlns:dc="http://purl.org/dc/elements/1.1/"
   xmlns:cc="http://creativecommons.org/ns#"
   xmlns:rdf="http://www.w3.org/1999/02/22-rdf-syntax-ns#"
   xmlns:svg="http://www.w3.org/2000/svg"
   xmlns="http://www.w3.org/2000/svg"
   xmlns:sodipodi="http://sodipodi.sourceforge.net/DTD/sodipodi-0.dtd"
   xmlns:inkscape="http://www.inkscape.org/namespaces/inkscape"
   version="1.1"
   id="Layer_1"
   x="0px"
   y="0px"
   width="90px"
   height="109px"
   viewBox="-1 -1 92 111"
   enable-background="new 0 0 90 109"
   xml:space="preserve"
   inkscape:version="0.48.5 r10040"
   sodipodi:docname="unknown.svg"><metadata
     id="metadata11"><rdf:RDF><cc:Work
         rdf:about=""><dc:format>image/svg+xml</dc:format><dc:type
           rdf:resource="http://purl.org/dc/dcmitype/StillImage" /></cc:Work></rdf:RDF></metadata><defs
     id="defs9" /><sodipodi:namedview
     pagecolor="#ffffff"
     bordercolor="#666666"
     borderopacity="1"
     objecttolerance="10"
     gridtolerance="10"
     guidetolerance="10"
     inkscape:pageopacity="0"
     inkscape:pageshadow="2"
     inkscape:window-width="1278"
     inkscape:window-height="595"
     id="namedview7"
     showgrid="false"
     inkscape:snap-bbox="false"
     inkscape:zoom="2.1651376"
     inkscape:cx="-11.973612"
     inkscape:cy="54.5"
     inkscape:window-x="0"
     inkscape:window-y="24"
     inkscape:window-maximized="0"
     inkscape:current-layer="Layer_1" /><g
     id="g3"><path
       d="M71.574,41.851c0-4.685,0.074-10.553-0.033-15.237c-0.047-2.018-0.268-4.076-0.746-6.034   C67.374,6.581,53.823-2.125,39.594,0.45C26.998,2.729,17.621,13.968,17.621,26.786v13.865v1.17c-0.475,0-0.794-0.001-1.116,0H5.023   C2.25,41.821,0,44.07,0,46.844v56.875c0,2.773,2.25,5.023,5.023,5.023h79.451c2.775,0,5.024-2.25,5.024-5.023V46.844   c0-2.774-2.249-5.023-5.024-5.023L71.574,41.851z M52.107,95.118H37.332c-2.322,0-4.203-1.914-4.203-4.274   c0-0.063,0.007-0.127,0.009-0.19c-0.005,0-0.006-1.021-0.008-2.041c-0.001-1.129,0.511-4.289,2.061-6.574   c1.641-2.418,3.855-3.99,6.257-4.697c-3.166-1.291-5.396-4.398-5.396-8.025c0-4.789,3.88-8.668,8.667-8.668   c4.789,0,8.667,3.879,8.667,8.668c0,3.719-2.344,6.891-5.637,8.12c2.332,0.753,4.537,2.313,6.273,4.707   c1.621,2.235,2.285,5.343,2.285,6.47v2.043c-0.006,0.062,0,0.125,0,0.189C56.308,93.204,54.427,95.118,52.107,95.118    M61.779,33.104c-1.562,4.611-4.52,8.305-7.61,11.912c-2.386,2.783-5.19,5.125-8.176,7.247c-0.144,0.103-0.298,0.188-0.685,0.427   c1.781-3.076,3.217-5.998,3.633-9.404c-4.234,1.002-8.227,0.564-12.093-1.14c-6.862-3.023-10.963-9.618-10.263-17.063   c0.573-6.127,3.94-10.543,9.321-13.395c8.667-4.593,19.734-1.655,24.689,6.516C63.482,22.962,63.527,27.945,61.779,33.104"
       id="path5"
       style="opacity:1;fill:none;fill-opacity:0;stroke:#c4d2df;stroke-opacity:1" /></g><path
     style="fill:none;stroke:#000000;stroke-width:1px;stroke-linecap:butt;stroke-linejoin:miter;stroke-opacity:1"
     d="m 22.631356,58.65678 c 0.615819,-0.61582 1.178414,-1.289921 1.847458,-1.847458 0.264462,-0.220386 0.615819,-0.30791 0.923728,-0.461864 1.359179,-0.67959 0.597142,-0.353002 2.309322,-0.923729 0.461865,-0.153955 0.923729,-0.30791 1.385594,-0.461865 0.461864,-0.153954 0.905369,-0.381827 1.385593,-0.461864 0.45558,-0.07593 0.923729,0 1.385593,0 0.615819,0 1.231638,0 1.847458,0 0.461864,0 0.92837,-0.06532 1.385593,0 0.628392,0.08977 1.217587,0.383131 1.847458,0.461864 0.611063,0.07638 1.237827,-0.08709 1.847457,0 0.481955,0.06885 0.913282,0.343787 1.385593,0.461865 0.76158,0.190395 1.532194,0.350846 2.309322,0.461864 0.304815,0.04355 0.631621,-0.09737 0.923729,0 0.653175,0.217725 1.231639,0.615819 1.847458,0.923729 0.615819,0.30791 1.231638,0.615819 1.847457,0.923729 0.30791,0.153955 0.637293,0.270907 0.923729,0.461864 0.543475,0.362317 0.842119,1.023277 1.385594,1.385593 0.128098,0.0854 0.353001,-0.108862 0.461864,0 0.108862,0.108863 -0.06885,0.324164 0,0.461865 0.496489,0.992979 1.350968,1.778208 1.847458,2.771186 0.217725,0.43545 0.307909,0.923729 0.461864,1.385594 0.153955,0.461864 0.30791,0.923728 0.461864,1.385593 0.153955,0.461864 0.24414,0.950143 0.461865,1.385593 0.09737,0.194739 0.409058,0.25064 0.461864,0.461864 0.112019,0.448075 -0.112018,0.937519 0,1.385594 0.05281,0.211224 0.419165,0.248367 0.461865,0.461864 0.120772,0.60386 0,1.231638 0,1.847458 0,0.461864 0,0.923728 0,1.385593 0,0.769774 0,1.539548 0,2.309322 0,0.153955 0.03019,0.310899 0,0.461864 -0.124489,0.622445 -0.337376,1.225013 -0.461865,1.847458 -0.03019,0.150965 0.04868,0.31581 0,0.461864 -0.108862,0.326588 -0.307909,0.61582 -0.461864,0.923729 -0.153955,0.30791 -0.270907,0.637293 -0.461865,0.923729 -0.658775,0.988163 -3.557387,1.676203 -4.156779,1.847458 -0.148032,0.04229 -0.312507,-0.03734 -0.461865,0 -1.250154,-0.784972 -1.194282,0.706003 -1.847457,0.923728 -0.292109,0.09737 -0.61582,0 -0.923729,0 -0.153955,0 -0.324163,-0.06885 -0.461865,0 -0.194739,0.09737 -0.255312,0.393014 -0.461864,0.461865 -0.292109,0.09737 -0.625013,-0.07468 -0.923729,0 -0.333975,0.08349 -0.597141,0.353002 -0.923729,0.461864 -0.146054,0.04869 -0.31581,-0.04869 -0.461864,0 -0.326587,0.108863 -0.597141,0.353002 -0.923729,0.461865 -0.146054,0.04868 -0.324163,-0.06885 -0.461864,0 -0.389478,0.194739 -0.561413,0.682184 -0.923729,0.923728 -0.286436,0.190958 -0.637293,0.270907 -0.923729,0.461865 -0.181158,0.120772 -0.307909,0.307909 -0.461864,0.461864 -0.153955,0.153955 -0.341093,0.280707 -0.461865,0.461865 -0.190957,0.286436 -0.255312,0.648326 -0.461864,0.923728 -0.26127,0.34836 -0.615819,0.61582 -0.923729,0.923729 -0.153955,0.153955 -0.364495,0.267126 -0.461864,0.461865 -0.06885,0.137701 0.04868,0.31581 0,0.461864 -0.108863,0.326588 -0.334012,0.604098 -0.461865,0.923729 -0.18081,0.452027 -0.281053,0.933566 -0.461864,1.385593 -0.127853,0.319631 -0.353002,0.597141 -0.461864,0.923729 -0.04868,0.146054 0,0.30791 0,0.461864 0,1.729847 -0.206553,0.972489 0.461864,2.309322"
     id="path2986"
     inkscape:connector-curvature="0"
     transform="matrix(1.0222222,0,0,1.0222222,-1,-1.2111111)" /><path
     style="fill:none;stroke:#000000;stroke-width:1px;stroke-linecap:butt;stroke-linejoin:miter;stroke-opacity:1"
     d="m 36.949153,101.61017 c 0.236029,2.78791 -1.754231,-0.0932 -2.309322,0.46186 -0.108863,0.10887 0.06885,0.32417 0,0.46187 -0.600085,1.20017 -0.765278,-0.47535 -1.385594,1.38559 -0.04868,0.14606 -0.108862,0.353 0,0.46187 0.217725,0.21772 0.706004,-0.21773 0.923729,0 0.108863,0.10886 -0.108862,0.353 0,0.46186 0.108863,0.10886 0.30791,0 0.461865,0 0.303494,0 1.12501,0.0869 1.385593,0 0.326587,-0.10886 0.597141,-0.353 0.923729,-0.46186 0.146054,-0.0487 0.353001,0.10886 0.461864,0 0.108862,-0.10887 -0.108863,-0.35301 0,-0.46187 0.217725,-0.21772 1.038084,0.28589 0.923729,0 -0.333399,-0.83349 -2.155367,-1.84746 -1.385593,-2.30932 0.769774,-0.46186 2.155367,1.84746 1.385593,2.30932 -0.769774,0.46187 -0.923729,-1.53955 -1.385593,-2.30932 z"
     id="path2988"
     inkscape:connector-curvature="0"
     transform="matrix(1.0222222,0,0,1.0222222,-1,-1.2111111)" /></svg>