<?xml version="1.0" encoding="UTF-8" standalone="no"?>
<!-- Generator: Adobe Illustrator 15.0.0, SVG Export Plug-In . SVG Version: 6.00 Build 0)  -->

<svg
   xmlns:dc="http://purl.org/dc/elements/1.1/"
   xmlns:cc="http://creativecommons.org/ns#"
   xmlns:rdf="http://www.w3.org/1999/02/22-rdf-syntax-ns#"
   xmlns:svg="http://www.w3.org/2000/svg"
   xmlns="http://www.w3.org/2000/svg"
   xmlns:sodipodi="http://sodipodi.sourceforge.net/DTD/sodipodi-0.dtd"
   xmlns:inkscape="http://www.inkscape.org/namespaces/inkscape"
   version="1.1"
   id="Layer_1"
   x="0px"
   y="0px"
   width="90px"
   height="109px"
   viewBox="-1 -1 92 111"
   enable-background="new 0 0 90 109"
   xml:space="preserve"
   inkscape:version="0.48.5 r10040"
   sodipodi:docname="windows phone.svg"><metadata
     id="metadata11"><rdf:RDF><cc:Work
         rdf:about=""><dc:format>image/svg+xml</dc:format><dc:type
           rdf:resource="http://purl.org/dc/dcmitype/StillImage" /></cc:Work></rdf:RDF></metadata><defs
     id="defs9" /><sodipodi:namedview
     pagecolor="#ffffff"
     bordercolor="#666666"
     borderopacity="1"
     objecttolerance="10"
     gridtolerance="10"
     guidetolerance="10"
     inkscape:pageopacity="0"
     inkscape:pageshadow="2"
     inkscape:window-width="1278"
     inkscape:window-height="595"
     id="namedview7"
     showgrid="false"
     inkscape:snap-bbox="false"
     inkscape:zoom="2.1651376"
     inkscape:cx="-11.973612"
     inkscape:cy="54.5"
     inkscape:window-x="0"
     inkscape:window-y="24"
     inkscape:window-maximized="0"
     inkscape:current-layer="Layer_1" /><g
     id="g3"><path
       d="M71.574,41.851c0-4.685,0.074-10.553-0.033-15.237c-0.047-2.018-0.268-4.076-0.746-6.034   C67.374,6.581,53.823-2.125,39.594,0.45C26.998,2.729,17.621,13.968,17.621,26.786v13.865v1.17c-0.475,0-0.794-0.001-1.116,0H5.023   C2.25,41.821,0,44.07,0,46.844v56.875c0,2.773,2.25,5.023,5.023,5.023h79.451c2.775,0,5.024-2.25,5.024-5.023V46.844   c0-2.774-2.249-5.023-5.024-5.023L71.574,41.851z M52.107,95.118H37.332c-2.322,0-4.203-1.914-4.203-4.274   c0-0.063,0.007-0.127,0.009-0.19c-0.005,0-0.006-1.021-0.008-2.041c-0.001-1.129,0.511-4.289,2.061-6.574   c1.641-2.418,3.855-3.99,6.257-4.697c-3.166-1.291-5.396-4.398-5.396-8.025c0-4.789,3.88-8.668,8.667-8.668   c4.789,0,8.667,3.879,8.667,8.668c0,3.719-2.344,6.891-5.637,8.12c2.332,0.753,4.537,2.313,6.273,4.707   c1.621,2.235,2.285,5.343,2.285,6.47v2.043c-0.006,0.062,0,0.125,0,0.189C56.308,93.204,54.427,95.118,52.107,95.118    M61.779,33.104c-1.562,4.611-4.52,8.305-7.61,11.912c-2.386,2.783-5.19,5.125-8.176,7.247c-0.144,0.103-0.298,0.188-0.685,0.427   c1.781-3.076,3.217-5.998,3.633-9.404c-4.234,1.002-8.227,0.564-12.093-1.14c-6.862-3.023-10.963-9.618-10.263-17.063   c0.573-6.127,3.94-10.543,9.321-13.395c8.667-4.593,19.734-1.655,24.689,6.516C63.482,22.962,63.527,27.945,61.779,33.104"
       id="path5"
       style="opacity:1;fill:none;fill-opacity:0;stroke:#c4d2df;stroke-opacity:1" /></g><path
     style="fill:none;stroke:#000000;stroke-width:0.62000209px;stroke-linecap:butt;stroke-linejoin:miter;stroke-opacity:1"
     d="m 34.993296,55.190844 c -0.06435,0.707975 -0.08928,1.43898 -0.193039,2.123926 -0.02878,0.18997 -0.164263,0.234815 -0.19304,0.424785 -0.07307,0.482348 0.06608,1.967061 0,2.548711 -0.04935,0.434395 -0.153133,0.835289 -0.193039,1.274357 -0.06073,0.668193 0.07507,1.463133 0,2.123927 -0.03489,0.307163 -0.147539,0.549201 -0.193039,0.84957 -0.03727,0.246068 0,1.331029 0,1.699141 0,0.283191 -0.091,0.649325 0,0.849571 0.091,0.200246 0.257386,0 0.386078,0 0.06435,0 0.128693,0 0.19304,0 0.386078,0 0.772157,0 1.158236,0 0.193039,0 0.406458,-0.18997 0.579118,0 0.05755,0.06332 -0.06105,0.380009 0,0.424785 0.183133,0.134329 0.399885,-0.157761 0.579118,0 0.168982,0.148739 0.240479,0.609276 0.386078,0.849571 0.230213,0.379939 0.532722,0.498316 0.772158,0.84957 0.07572,0.111077 0.106709,0.361463 0.193039,0.424785 0.122089,0.08955 0.26399,-0.08955 0.386079,0 0.08633,0.06332 0.117323,0.31371 0.193039,0.424786 0.119718,0.175627 0.284338,0.200904 0.386079,0.424785 0.0455,0.100124 -0.02878,0.298139 0,0.424786 0.0407,0.179105 0.128693,0.28319 0.193039,0.424785 0.06435,0.141595 0.111647,0.335233 0.193039,0.424785 0.05755,0.06332 0.14754,-0.100122 0.19304,0 0.0455,0.100123 0,0.28319 0,0.424786 0.193039,0.283189 0.393514,0.543254 0.579118,0.849571 0.0728,0.120147 0.102039,0.424785 0.193039,0.424785 0.06224,0 0.278819,-0.731559 0.386079,-0.849571 0.05755,-0.06332 0.147539,0.100123 0.193039,0 0.101741,-0.223882 0.0913,-0.625689 0.193039,-0.849571 0.101741,-0.223881 0.284338,-0.200903 0.386079,-0.424785 0.01237,-0.02722 0.362107,-1.620015 0.386078,-1.699142 0.100956,-0.333228 0.304687,-0.491359 0.386079,-0.849569 0.091,-0.400492 0.10204,-0.873866 0.19304,-1.274357 0.0407,-0.179105 0.164262,-0.234815 0.193039,-0.424785 0.0407,-0.268658 -0.0407,-0.580913 0,-0.849571 0.02878,-0.18997 0.152343,-0.24568 0.19304,-0.424785 0.091,-0.400491 0.117468,-0.858619 0.193039,-1.274356 0.106873,-0.587942 0.316285,-1.084815 0.386078,-1.699141 0.03121,-0.274735 0,-0.56638 0,-0.849571 0,-0.141595 0.0455,-0.324662 0,-0.424785 -0.399405,-0.878896 0.01561,1.343069 -0.386078,-0.424786 -0.02878,-0.126646 0.02878,-0.298138 0,-0.424785 -0.169371,-0.745407 -0.691022,-0.821862 -0.965197,-1.274355 -0.145599,-0.240295 -0.230016,-0.64352 -0.386079,-0.849571 -0.174484,-0.230372 -0.397118,-0.22454 -0.579118,-0.424786 -0.08139,-0.08955 -0.111646,-0.335232 -0.193039,-0.424785 -0.115106,-0.126646 -0.270972,0.126646 -0.386078,0 -0.08139,-0.08955 -0.111648,-0.335233 -0.19304,-0.424785 -0.181999,-0.200246 -0.39019,-0.258491 -0.579118,-0.424786 -0.267184,-0.235176 -0.499159,-0.649325 -0.772157,-0.849571 -0.155378,-0.113969 -0.648801,0.135724 -0.772158,0 -0.08139,-0.08955 -0.106709,-0.361461 -0.193039,-0.424785 -0.87877,0 -0.01104,0.200246 -0.579118,-0.424784 -0.07654,-0.08421 -0.539654,0.08684 -0.579118,0 -0.0455,-0.100124 0.0455,-0.324663 0,-0.424786 -0.0455,-0.100123 -0.128693,0 -0.193039,0 -0.06435,0 -0.14754,-0.100123 -0.19304,0 -0.0455,0.100123 0.0455,0.324662 0,0.424786 -0.0062,0.01366 -0.532301,0 -0.579118,0 -0.450425,0 -0.90085,0 -1.351275,0 -0.450425,0 -0.903086,-0.09863 -1.351275,0 -0.202472,0.04455 -0.375637,0.424784 -0.579118,0.424784 -0.06435,0 -0.0455,-0.324662 0,-0.424784 0.0455,-0.100124 0.128693,0 0.193039,0"
     id="path2986"
     inkscape:connector-curvature="0" /><path
     style="fill:none;stroke:#000000;stroke-width:0.62000209px;stroke-linecap:butt;stroke-linejoin:miter;stroke-opacity:1"
     d="m 46.768695,60.288266 c 0,1.274357 0,2.548713 0,3.823069 0,0.28319 0.05755,0.596277 0,0.84957 -0.02878,0.126647 -0.164262,-0.126646 -0.193039,0 -0.08633,0.37994 0.08633,0.894417 0,1.274356 -0.0407,0.179105 -0.152343,0.24568 -0.193039,0.424786 -0.02878,0.126646 0.0455,0.324662 0,0.424785 -0.101741,0.223882 -0.284338,0.200903 -0.386079,0.424785 -0.101741,0.223881 -0.113227,0.58613 -0.193039,0.849571 -0.05048,0.166614 -0.152343,0.24568 -0.19304,0.424786 -0.02878,0.126646 0.0455,0.324662 0,0.424784 -0.0455,0.100124 -0.147539,-0.100122 -0.193039,0 -0.0455,0.100124 0.02878,0.298139 0,0.424785 -0.0407,0.179106 -0.128693,0.283191 -0.193039,0.424786 0,0.28319 0.0407,0.580913 0,0.849571 -0.02878,0.18997 -0.128693,0.28319 -0.19304,0.424785 -0.128692,0.283191 -0.276879,0.529178 -0.386078,0.849571 -0.08633,0.253293 -0.14754,0.549201 -0.19304,0.849571 -0.02035,0.134328 0.0455,0.324662 0,0.424785 -0.0455,0.100123 -0.147539,-0.100123 -0.193039,0 -0.01931,0.04248 -0.01931,1.231877 0,1.274355 0.01237,0.02722 0.7362,0.796821 0.772157,0.849571 0.07572,0.111076 0.10671,0.361462 0.19304,0.424786 0.122088,0.08955 0.257386,0 0.386078,0 0.19304,0 0.389828,-0.08331 0.579118,0 0.141089,0.06209 0.24499,0.362691 0.386079,0.424785 0.203847,0.08971 1.072103,0 1.351275,0 1.029543,0 2.059087,0 3.08863,0 0.386078,0 0.772157,0 1.158236,0 0.193039,0 0.386078,0 0.579117,0 0.06435,0 0.14754,0.100122 0.19304,0 0.0455,-0.100123 -0.02878,-0.298139 0,-0.424785 0.0407,-0.179106 0.164263,-0.234816 0.193039,-0.424786 0.0407,-0.268658 0,-0.56638 0,-0.849571 0,-0.141594 0.02035,-0.290456 0,-0.424785 -0.091,-0.600737 -0.257386,-1.132761 -0.386079,-1.699141 -0.06435,-0.28319 -0.128692,-0.566381 -0.193039,-0.849571 -0.06435,0 -0.147539,0.100123 -0.193039,0 -0.0455,-0.100122 0.02878,-0.298139 0,-0.424785 -0.0407,-0.179105 -0.142562,-0.258171 -0.193039,-0.424785 -0.07981,-0.263441 -0.0913,-0.625689 -0.19304,-0.849571 -0.0455,-0.100123 -0.147539,0.100123 -0.193039,0 -0.0455,-0.100123 0.02878,-0.298139 0,-0.424786 -0.08139,-0.35821 -0.304686,-0.491359 -0.386079,-0.849569 -0.02878,-0.126648 0.0455,-0.324663 0,-0.424786 -0.0455,-0.100123 -0.147539,0.100123 -0.193039,0 -0.091,-0.200246 0.091,-0.649325 0,-0.849571 -0.0455,-0.100123 -0.14754,0.100123 -0.193039,0 -0.101741,-0.223882 -0.0913,-0.625689 -0.19304,-0.84957 -0.101741,-0.223882 -0.26636,-0.249158 -0.386078,-0.424786 -0.07572,-0.111076 -0.111647,-0.335233 -0.19304,-0.424785 -0.05755,-0.06332 -0.147539,0.100123 -0.193039,0 -0.0455,-0.100123 0.0455,-0.324662 0,-0.424786 -0.101741,-0.223881 -0.284338,-0.200903 -0.386079,-0.424785 -0.10174,-0.223881 -0.113227,-0.58613 -0.193039,-0.84957 -0.100955,-0.333229 -0.304686,-0.49136 -0.386079,-0.849571 -0.02878,-0.126646 0.0455,-0.324663 0,-0.424785 -0.0455,-0.100123 -0.147539,0.100122 -0.193039,0 -0.0455,-0.100123 0.0455,-0.324663 0,-0.424785 -0.0455,-0.100123 -0.131995,0.04477 -0.193039,0 -1.398264,-1.025633 0.304347,0.122467 -0.579118,-0.849571 -0.05755,-0.06332 -0.128693,0 -0.19304,0 -0.06435,0 -0.128692,0 -0.193039,0"
     id="path2988"
     inkscape:connector-curvature="0" /><path
     style="fill:none;stroke:#000000;stroke-width:0.62000209px;stroke-linecap:butt;stroke-linejoin:miter;stroke-opacity:1"
     d="m 33.062903,74.306182 c -0.128693,0.707976 -0.257386,1.415951 -0.386079,2.123927 0,0.141595 0.02035,0.290456 0,0.424785 -0.0455,0.300369 -0.158142,0.542408 -0.193039,0.849571 -0.04108,0.361582 0.05541,1.880071 0,2.123926 -0.0407,0.179105 -0.152343,0.24568 -0.19304,0.424786 -0.02878,0.126646 0,0.28319 0,0.424785 0,0.141595 -0.0455,0.324662 0,0.424785 0.0455,0.100123 0.14754,-0.100123 0.19304,0 0.0455,0.100123 -0.0455,0.324662 0,0.424786 0.10174,0.223881 0.275544,0.222092 0.386078,0.424785 0.279632,0.512777 0.514772,1.132761 0.772158,1.699141 0.128693,0.28319 0.285123,0.516341 0.386078,0.849571 0.03569,0.117814 -0.02878,0.298139 0,0.424785 0.08139,0.35821 0.304687,0.491361 0.386079,0.849571 0.02878,0.126646 -0.0455,0.324662 0,0.424785 0.0455,0.100123 0.1395,-0.07854 0.193039,0 0.302866,0.444306 0.487923,1.198771 0.772158,1.699141 0.225696,0.770882 0.665035,0.778975 0.965196,1.274356 0.834952,1.83732 -0.05114,0.06658 0.772158,1.274356 0.07572,0.111076 0.111647,0.335233 0.193039,0.424786 0.05755,0.06332 0.135486,-0.06332 0.193039,0 0.477079,0.524908 -0.06663,0.424785 0.386079,0.424785 0.06435,0 0.128693,0 0.19304,0 0.06435,0 0.135486,0.06332 0.193039,0 0.08139,-0.08955 0.106709,-0.361463 0.193039,-0.424785 0.122089,-0.08955 0.270972,0.126646 0.386079,0 0.05755,-0.06332 -0.0455,-0.324663 0,-0.424786 0.0455,-0.100123 0.128693,0 0.193039,0 0.128693,-0.28319 0.276879,-0.529178 0.386079,-0.84957 0.172659,-0.506587 0.226454,-1.172261 0.386078,-1.699142 0.05048,-0.166614 0.170969,-0.230518 0.19304,-0.424785 0.04682,-0.412103 -0.04682,-0.862253 0,-1.274356 0.02207,-0.194267 0.152343,-0.24568 0.193039,-0.424785 0.02163,-0.09521 0,-1.5982 0,-1.699142 0,-0.379639 0.03076,-1.988558 0,-2.123926 -0.0407,-0.179105 -0.152343,-0.24568 -0.193039,-0.424785 -0.02878,-0.126647 0,-0.283191 0,-0.424786 0,-0.28319 0.0407,-0.580913 0,-0.84957 -0.02878,-0.18997 -0.152343,-0.245681 -0.19304,-0.424786 -0.02878,-0.126646 0.0455,-0.324662 0,-0.424785 -0.0455,-0.100123 -0.139499,0.07854 -0.193039,0 -0.227149,-0.333229 -0.351969,-0.941127 -0.579118,-1.274356 -0.119718,-0.175627 -0.266361,-0.249158 -0.386079,-0.424785 -0.175726,-0.257793 -0.408019,-1.086104 -0.579117,-1.274356 -0.05755,-0.06332 -0.135487,0.06332 -0.19304,0 -0.08139,-0.08955 -0.128693,-0.283191 -0.193039,-0.424785 -0.128693,-0.283191 -0.234646,-0.627418 -0.386079,-0.849571 -0.05354,-0.07854 -0.1395,0.07854 -0.193039,0 -0.151433,-0.222152 -0.223294,-0.670466 -0.386079,-0.849571 -0.115106,-0.126646 -0.26399,0.08955 -0.386079,0 -0.08633,-0.06332 -0.117323,-0.313708 -0.193039,-0.424786 -0.119718,-0.175626 -0.249579,-0.324661 -0.386078,-0.424784 -0.122089,-0.08955 -0.270973,0.126646 -0.386079,0 -0.08139,-0.08955 -0.10671,-0.361463 -0.19304,-0.424785 -0.579118,-0.424786 -0.193039,0.212392 -0.579118,0 -0.197406,-0.108599 -0.388592,-0.582006 -0.579118,-0.424786 -0.385784,0.318347 -0.643464,1.132761 -0.965196,1.699141 z"
     id="path2990"
     inkscape:connector-curvature="0" /><path
     style="fill:none;stroke:#000000;stroke-width:0.62000209px;stroke-linecap:butt;stroke-linejoin:miter;stroke-opacity:1"
     d="m 42.52183,79.403606 c 0,0.56638 -0.04231,1.140467 0,1.699141 0.02366,0.312309 0.158143,0.542408 0.193039,0.849571 0.03266,0.287471 0,2.700145 0,2.973497 0,0.07367 -0.02004,2.885276 0,2.973497 0.0407,0.179105 0.164263,0.234815 0.19304,0.424785 0.08139,0.537316 -0.08139,1.161827 0,1.699142 0.02878,0.18997 0.152343,0.24568 0.193039,0.424785 0.05755,0.253293 -0.05755,0.596277 0,0.849571 0.0407,0.179105 0.152343,0.245679 0.19304,0.424785 0.02878,0.126647 -0.0455,0.324662 0,0.424785 0.0455,0.100123 0.135486,-0.06332 0.193039,0 0.520961,0.573191 -0.0067,0.190399 0.193039,0.849571 0.33398,1.102391 0.344914,0.647586 0.772157,1.274356 0.07572,0.111076 0.111647,0.335233 0.19304,0.424785 0.181999,0.200246 0.397119,0.22454 0.579118,0.424786 0.207511,0.228314 0.363707,0.659965 0.579118,0.84957 0.119488,0.105174 0.261228,-0.06868 0.386078,0 0.139587,0.07679 0.24958,0.324663 0.386079,0.424783 0.251693,0.18462 0.517058,0.2644 0.772157,0.42479 0.195653,0.12301 0.377682,0.36146 0.579118,0.42478 0.254799,0.0801 0.517359,-0.0801 0.772158,0 1.921023,0.6039 -1.012891,0.42479 1.351275,0.42479 0.579118,0 1.158236,0 1.737354,0 0.257386,0 0.518274,0.0931 0.772157,0 1.462796,-0.53648 0.07865,-0.0865 0.772158,-0.84957 0.05755,-0.0633 0.147539,0.10012 0.193039,0 0.0455,-0.10013 0,-0.28319 0,-0.42479 0,-0.359643 0.03459,-1.470771 0,-1.699139 -0.02878,-0.18997 -0.152343,-0.24568 -0.193039,-0.424785 -0.03827,-0.168424 0.03946,-1.187514 0,-1.274356 -0.0455,-0.100123 -0.172692,0.134329 -0.19304,0 -0.06768,-0.446784 0.06371,-1.703346 0,-2.123926 -0.0455,-0.300369 -0.147539,-0.549203 -0.193039,-0.849571 -0.02035,-0.134329 0.02878,-0.298139 0,-0.424785 -0.0407,-0.179106 -0.164263,-0.234816 -0.19304,-0.424786 -0.0407,-0.268658 0.0407,-0.580913 0,-0.849571 -0.02878,-0.18997 -0.152342,-0.24568 -0.193039,-0.424785 -0.02878,-0.126646 0,-0.28319 0,-0.424785 -0.06435,-0.424786 -0.08835,-0.890402 -0.193039,-1.274356 -0.09364,-0.343419 -0.276879,-0.529178 -0.386079,-0.849571 -0.425297,-0.213918 -0.10204,-0.873864 -0.193039,-1.274356 -0.03454,-0.151993 -0.962183,-2.119505 -0.965197,-2.123926 -0.05354,-0.07854 -0.1395,0.07854 -0.193039,0 -0.151432,-0.222153 -0.257386,-0.566381 -0.386079,-0.849571 -0.06435,-0.141595 -0.106709,-0.361462 -0.193039,-0.424785 -0.122089,-0.08955 -0.26399,0.08955 -0.386079,0 -0.172659,-0.126646 -0.223293,-0.670466 -0.386078,-0.849571 -0.113897,-0.125315 -0.44634,0.09739 -0.579118,0 -0.17785,-0.130453 -0.361058,-0.584733 -0.579118,-0.424785 -0.1365,0.100123 -0.246492,0.347994 -0.386079,0.424785 -0.12485,0.06869 -0.257386,0 -0.386079,0 -0.386078,0 -0.772157,0 -1.158236,0 -0.128693,0 -0.26399,-0.08955 -0.386078,0 -0.1365,0.100123 -0.246492,0.347995 -0.386079,0.424786 -0.187276,0.103025 -0.386079,0 -0.579118,0 -0.04623,0 -1.019373,0.08731 -1.158236,0 -0.391304,-0.24602 -0.763424,-1.066768 -1.158236,-0.849571 -0.279174,0.153581 -0.128693,1.982331 -0.386079,1.699141 -0.257385,-0.28319 0.257386,-1.132761 0.386079,-1.699141 z"
     id="path2992"
     inkscape:connector-curvature="0" /><path
     style="fill:none;stroke:#000000;stroke-width:1px;stroke-linecap:butt;stroke-linejoin:miter;stroke-opacity:1"
     d="m 30.021186,52.190678 c -0.307909,0.615819 -0.668023,1.208195 -0.923728,1.847458 -0.05718,0.142943 0,0.307909 0,0.461864 0,0.30791 0.07468,0.625013 0,0.923729 -0.08349,0.333975 -0.394351,0.58616 -0.461865,0.923729 -0.09058,0.452895 0,0.923728 0,1.385593 0,0.769774 0,1.539548 0,2.309322 0,0.307909 0.06039,0.621798 0,0.923729 -0.09548,0.477393 -0.366385,0.908199 -0.461864,1.385593 -0.06039,0.30193 0,0.615819 0,0.923729 0,0.615819 0.07638,1.236394 0,1.847457 -0.07873,0.62987 -0.357509,1.221323 -0.461865,1.847458 -0.05062,0.30372 0,0.615819 0,0.923729 0,0.615819 0,1.231638 0,1.847457 0,0.30791 0.07468,0.625013 0,0.923729 -0.08349,0.333975 -0.37837,0.589754 -0.461864,0.923729 -0.07468,0.298716 0,0.615819 0,0.923729 0,0.923729 0,1.847457 0,2.771186 0,2.309322 0,4.618644 0,6.927966 0,0.120637 -0.0774,2.538984 0,2.771187 0.108862,0.326587 0.378371,0.589754 0.461864,0.923729 0.181124,0.724493 -0.181123,1.584829 0,2.309322 0.08349,0.333975 0.378371,0.589754 0.461865,0.923729 0.07468,0.298716 0,0.615819 0,0.923728 0.153955,0.30791 0.353002,0.597142 0.461864,0.923729 0.146055,0.438163 -0.09058,0.932698 0,1.385593 0.09548,0.477394 0.343787,0.913282 0.461865,1.385594 0.03734,0.149358 -0.04868,0.31581 0,0.461864 0.108862,0.326587 0.353002,0.597141 0.461864,0.923729 0.08488,0.254638 -0.09875,1.748711 0,1.847457 0.108863,0.108863 0.353002,-0.108862 0.461864,0 0.108863,0.108863 0,0.30791 0,0.461865 0,0.307909 0,0.615819 0,0.923729 0,1.04346 -0.06885,-0.206552 0.461865,1.385593 0.09737,0.292108 -0.217725,0.706008 0,0.923728 0.108862,0.10886 0.324163,-0.0688 0.461864,0 0.194739,0.0974 0.267126,0.3645 0.461865,0.46187 0.137701,0.0689 0.31581,-0.0487 0.461864,0 0.326588,0.10886 0.589754,0.37837 0.923729,0.46186 0.298716,0.0747 0.625013,-0.0747 0.923729,0 0.333975,0.0835 0.58616,0.39435 0.923729,0.46186 0.452895,0.0906 0.923728,0 1.385593,0 0.153955,0 0.312506,-0.0373 0.461864,0 0.472312,0.11808 0.923729,0.30791 1.385593,0.46187 0.61582,0 1.237828,-0.0871 1.847458,0 0.481955,0.0688 0.905369,0.38183 1.385593,0.46186 0.45558,0.0759 0.932698,-0.0906 1.385593,0 0.337569,0.0675 0.586161,0.39435 0.923729,0.46187 0.452896,0.0906 0.930013,-0.0759 1.385593,0 0.480224,0.08 0.9082,0.36638 1.385594,0.46186 0.452895,0.0906 0.94743,-0.14605 1.385593,0 0.326587,0.10886 0.589754,0.37837 0.923729,0.46187 0.360334,0.0901 2.232111,0 2.771186,0 1.077684,0 2.155367,0 3.233051,0 0.615819,0 1.240017,0.10124 1.847458,0 0.626135,-0.10436 1.225012,-0.33738 1.847457,-0.46187 0.150965,-0.0302 0.30791,0 0.461865,0 0.307909,-0.15395 0.597141,-0.353 0.923728,-0.46186 0.146055,-0.0487 0.353002,0.10886 0.461865,0 0.108862,-0.10887 -0.108863,-0.353 0,-0.46187 0.108862,-0.10886 0.353002,0.10887 0.461864,0 0.108863,-0.10886 -0.06885,-0.32416 0,-0.46186 0.09737,-0.19474 0.341093,-0.28071 0.461865,-0.46187 0.190957,-0.28643 0.307909,-0.61582 0.461864,-0.92372 0.153955,-0.30791 0.394351,-0.58617 0.461865,-0.92373 0.09058,-0.452899 -0.112019,-0.937523 0,-1.385597 0.05281,-0.211224 0.364494,-0.267125 0.461864,-0.461864 0.06885,-0.137702 0,-0.30791 0,-0.461865 0,-0.461864 -0.09058,-0.932698 0,-1.385593 0.06751,-0.337568 0.394351,-0.586161 0.461864,-0.923729 0.212418,-1.062087 -0.181144,-2.608048 0,-3.694915 0.08004,-0.480224 0.381827,-0.90537 0.461865,-1.385593 0.07593,-0.455581 0,-0.923729 0,-1.385593 0,-0.923729 0,-1.847458 0,-2.771187 0,-0.615819 -0.08709,-1.237828 0,-1.847458 0.06885,-0.481954 0.343786,-0.913281 0.461864,-1.385593 0.03734,-0.149358 0,-0.307909 0,-0.461864 0,-0.461865 0.05729,-0.927296 0,-1.385593 -0.09737,-0.778957 -0.375173,-1.529105 -0.461864,-2.309322 -0.20277,-1.824928 0.202769,-3.717446 0,-5.542373 -0.0701,-0.63089 -0.357509,-1.221323 -0.461865,-1.847458 -0.15186,-0.91116 0.114575,-1.854591 0,-2.771186 -0.07873,-0.629871 -0.357508,-1.221323 -0.461864,-1.847458 -0.15186,-0.911161 0.114574,-1.854591 0,-2.771186 -0.07873,-0.629871 -0.383131,-1.217588 -0.461864,-1.847458 -0.07638,-0.611064 0.08709,-1.237828 0,-1.847458 -0.06885,-0.481954 -0.366386,-0.908199 -0.461865,-1.385593 -0.150965,-0.754825 0.108863,-1.547285 0,-2.309322 -0.08977,-0.628392 -0.337375,-1.225013 -0.461864,-1.847458 -0.03019,-0.150965 0,-0.307909 0,-0.461864 0,-0.461864 0.112018,-0.937519 0,-1.385593 -0.05281,-0.211224 -0.364495,-0.267125 -0.461865,-0.461865 -0.217725,-0.43545 -0.343786,-0.913281 -0.461864,-1.385593 -0.03734,-0.149358 0.108862,-0.353002 0,-0.461864 -0.108863,-0.108863 -0.324163,0.06885 -0.461865,0 -0.194739,-0.09737 -0.267125,-0.364495 -0.461864,-0.461865 -0.137701,-0.06885 -0.333766,0.0854 -0.461864,0 -0.362317,-0.241544 -0.561413,-0.682184 -0.923729,-0.923728 -0.128098,-0.0854 -0.312506,0.03734 -0.461865,0 -0.472311,-0.118078 -0.923728,-0.30791 -1.385593,-0.461865 -0.923729,-0.307909 -1.847457,-0.615819 -2.771186,-0.923729 -0.461865,-0.153954 -0.90537,-0.381827 -1.385593,-0.461864 -0.455581,-0.07593 -0.930013,0.07593 -1.385594,0 -0.480223,-0.08004 -0.923728,-0.30791 -1.385593,-0.461865 -0.923729,-0.153954 -1.840444,-0.358448 -2.771186,-0.461864 -0.45904,-0.051 -0.932698,0.09058 -1.385594,0 -0.337568,-0.06751 -0.58616,-0.394351 -0.923728,-0.461864 -0.452896,-0.09058 -0.923729,0 -1.385594,0 -1.385593,0 -2.771186,0 -4.156779,0 -0.769774,0 -1.539548,0 -2.309322,0 -0.30791,0 -0.625013,-0.07468 -0.923729,0 -0.333975,0.08349 -0.615819,0.307909 -0.923729,0.461864 -0.30791,0.153955 -0.637293,0.270907 -0.923729,0.461864 -0.362316,0.241545 -0.53425,0.72899 -0.923729,0.923729 -0.137701,0.06885 -0.353001,-0.108862 -0.461864,0 -0.108862,0.108863 0.108863,0.353002 0,0.461865 -0.108862,0.108862 -0.353002,-0.108863 -0.461864,0 -0.108863,0.108862 0.06885,0.324163 0,0.461864 -0.09737,0.194739 -0.30791,0.30791 -0.461865,0.461865 -1.016956,1.016956 -0.419165,0.248367 -0.923729,2.771186 z"
     id="path2987"
     inkscape:connector-curvature="0"
     transform="matrix(1.0222222,0,0,1.0222222,-1,-1.2111111)" /></svg>