<?xml version="1.0" encoding="UTF-8" standalone="no"?>
<!-- Generator: Adobe Illustrator 15.0.0, SVG Export Plug-In . SVG Version: 6.00 Build 0)  -->

<svg
   xmlns:dc="http://purl.org/dc/elements/1.1/"
   xmlns:cc="http://creativecommons.org/ns#"
   xmlns:rdf="http://www.w3.org/1999/02/22-rdf-syntax-ns#"
   xmlns:svg="http://www.w3.org/2000/svg"
   xmlns="http://www.w3.org/2000/svg"
   xmlns:sodipodi="http://sodipodi.sourceforge.net/DTD/sodipodi-0.dtd"
   xmlns:inkscape="http://www.inkscape.org/namespaces/inkscape"
   version="1.1"
   id="Layer_1"
   x="0px"
   y="0px"
   width="90px"
   height="109px"
   viewBox="-1 -1 92 111"
   enable-background="new 0 0 90 109"
   xml:space="preserve"
   inkscape:version="0.48.5 r10040"
   sodipodi:docname="windows.svg"><metadata
     id="metadata11"><rdf:RDF><cc:Work
         rdf:about=""><dc:format>image/svg+xml</dc:format><dc:type
           rdf:resource="http://purl.org/dc/dcmitype/StillImage" /></cc:Work></rdf:RDF></metadata><defs
     id="defs9" /><sodipodi:namedview
     pagecolor="#ffffff"
     bordercolor="#666666"
     borderopacity="1"
     objecttolerance="10"
     gridtolerance="10"
     guidetolerance="10"
     inkscape:pageopacity="0"
     inkscape:pageshadow="2"
     inkscape:window-width="1278"
     inkscape:window-height="595"
     id="namedview7"
     showgrid="false"
     inkscape:snap-bbox="false"
     inkscape:zoom="2.1651376"
     inkscape:cx="-11.973612"
     inkscape:cy="54.5"
     inkscape:window-x="0"
     inkscape:window-y="24"
     inkscape:window-maximized="0"
     inkscape:current-layer="Layer_1" /><g
     id="g3"><path
       d="M71.574,41.851c0-4.685,0.074-10.553-0.033-15.237c-0.047-2.018-0.268-4.076-0.746-6.034   C67.374,6.581,53.823-2.125,39.594,0.45C26.998,2.729,17.621,13.968,17.621,26.786v13.865v1.17c-0.475,0-0.794-0.001-1.116,0H5.023   C2.25,41.821,0,44.07,0,46.844v56.875c0,2.773,2.25,5.023,5.023,5.023h79.451c2.775,0,5.024-2.25,5.024-5.023V46.844   c0-2.774-2.249-5.023-5.024-5.023L71.574,41.851z M52.107,95.118H37.332c-2.322,0-4.203-1.914-4.203-4.274   c0-0.063,0.007-0.127,0.009-0.19c-0.005,0-0.006-1.021-0.008-2.041c-0.001-1.129,0.511-4.289,2.061-6.574   c1.641-2.418,3.855-3.99,6.257-4.697c-3.166-1.291-5.396-4.398-5.396-8.025c0-4.789,3.88-8.668,8.667-8.668   c4.789,0,8.667,3.879,8.667,8.668c0,3.719-2.344,6.891-5.637,8.12c2.332,0.753,4.537,2.313,6.273,4.707   c1.621,2.235,2.285,5.343,2.285,6.47v2.043c-0.006,0.062,0,0.125,0,0.189C56.308,93.204,54.427,95.118,52.107,95.118    M61.779,33.104c-1.562,4.611-4.52,8.305-7.61,11.912c-2.386,2.783-5.19,5.125-8.176,7.247c-0.144,0.103-0.298,0.188-0.685,0.427   c1.781-3.076,3.217-5.998,3.633-9.404c-4.234,1.002-8.227,0.564-12.093-1.14c-6.862-3.023-10.963-9.618-10.263-17.063   c0.573-6.127,3.94-10.543,9.321-13.395c8.667-4.593,19.734-1.655,24.689,6.516C63.482,22.962,63.527,27.945,61.779,33.104"
       id="path5"
       style="opacity:1;fill:none;fill-opacity:0;stroke:#c4d2df;stroke-opacity:1" /></g><path
     style="fill:none;stroke:#000000;stroke-width:1px;stroke-linecap:butt;stroke-linejoin:miter;stroke-opacity:1"
     d="m 14.779661,54.038136 c -0.153955,0.769774 -0.21362,1.564588 -0.461864,2.309322 -0.06885,0.206552 -0.393014,0.255312 -0.461865,0.461864 -0.174817,0.524452 0.158106,2.138764 0,2.771186 -0.118078,0.472312 -0.366385,0.9082 -0.461864,1.385594 -0.145304,0.726519 0.179618,1.590848 0,2.309322 -0.08349,0.333975 -0.353002,0.597141 -0.461865,0.923729 -0.08918,0.267546 0,1.447213 0,1.847457 0,0.30791 -0.217725,0.706004 0,0.923729 0.217725,0.217725 0.61582,0 0.923729,0 0.153955,0 0.30791,0 0.461865,0 0.923728,0 1.847457,0 2.771186,0 0.461864,0 0.972489,-0.206552 1.385593,0 0.137702,0.06885 -0.146054,0.41318 0,0.461864 0.438163,0.146055 0.956763,-0.171532 1.385593,0 0.404306,0.161722 0.575369,0.662459 0.923729,0.923729 0.550806,0.413104 1.274586,0.541814 1.847458,0.923729 0.181158,0.120772 0.255312,0.393014 0.461864,0.461864 0.292109,0.09737 0.63162,-0.09737 0.923729,0 0.206552,0.06885 0.280706,0.341093 0.461865,0.461865 0.286436,0.190957 0.680304,0.21844 0.923728,0.461864 0.108863,0.108863 -0.06885,0.324163 0,0.461865 0.09737,0.194739 0.30791,0.307909 0.461865,0.461864 0.153955,0.153955 0.267125,0.364495 0.461864,0.461864 0.137702,0.06885 0.353002,-0.108862 0.461865,0 0.108862,0.108863 0,0.30791 0,0.461865 0.461864,0.307909 0.941519,0.590674 1.385593,0.923729 0.17418,0.130635 0.244139,0.461864 0.461864,0.461864 0.148925,0 0.667101,-0.795415 0.923729,-0.923729 0.137701,-0.06885 0.353002,0.108863 0.461864,0 0.243424,-0.243424 0.218441,-0.680305 0.461865,-0.923729 0.243424,-0.243423 0.680305,-0.21844 0.923729,-0.461864 0.0296,-0.0296 0.866374,-1.761425 0.923728,-1.847458 0.241545,-0.362316 0.72899,-0.53425 0.923729,-0.923728 0.217725,-0.43545 0.24414,-0.950144 0.461865,-1.385594 0.09737,-0.194739 0.393013,-0.255312 0.461864,-0.461864 0.09737,-0.292109 -0.09737,-0.63162 0,-0.923729 0.06885,-0.206552 0.364495,-0.267125 0.461865,-0.461864 0.217724,-0.43545 0.281053,-0.933567 0.461864,-1.385593 0.255705,-0.639263 0.756741,-1.179508 0.923729,-1.847458 0.07468,-0.298716 0,-0.615819 0,-0.923729 0,-0.153955 0.108862,-0.353002 0,-0.461864 -0.955614,-0.955614 0.03735,1.460304 -0.923729,-0.461865 -0.06885,-0.137701 0.06885,-0.324163 0,-0.461864 -0.405236,-0.810473 -1.653333,-0.893602 -2.309322,-1.385593 -0.34836,-0.26127 -0.550334,-0.699692 -0.923729,-0.923729 -0.417469,-0.250481 -0.950143,-0.24414 -1.385593,-0.461865 -0.194739,-0.09737 -0.267125,-0.364494 -0.461865,-0.461864 -0.275402,-0.137701 -0.648326,0.137701 -0.923728,0 -0.19474,-0.09737 -0.267126,-0.364495 -0.461865,-0.461864 -0.43545,-0.217725 -0.933566,-0.281054 -1.385593,-0.461865 -0.639263,-0.255705 -1.194283,-0.706004 -1.847458,-0.923729 -0.371754,-0.123918 -1.552316,0.147571 -1.847457,0 C 23.360346,54.864495 23.299772,54.568851 23.09322,54.5 c -2.102538,0 -0.02641,0.217725 -1.385593,-0.461864 -0.183125,-0.09156 -1.291171,0.09442 -1.385593,0 -0.108863,-0.108863 0.108862,-0.353002 0,-0.461865 -0.108863,-0.108862 -0.30791,0 -0.461865,0 -0.153954,0 -0.353001,-0.108862 -0.461864,0 -0.108862,0.108863 0.108863,0.353002 0,0.461865 -0.01485,0.01485 -1.273579,0 -1.385593,0 -1.077684,0 -2.155367,0 -3.233051,0 -1.077684,0 -2.160716,-0.107234 -3.233051,0 C 11.062178,54.086579 10.647865,54.5 10.161017,54.5 c -0.153955,0 -0.108863,-0.353002 0,-0.461864 0.108862,-0.108863 0.30791,0 0.461864,0"
     id="path2986"
     inkscape:connector-curvature="0"
     transform="matrix(1.0222222,0,0,1.0222222,-1,-1.2111111)" /><path
     style="fill:none;stroke:#000000;stroke-width:1px;stroke-linecap:butt;stroke-linejoin:miter;stroke-opacity:1"
     d="m 42.95339,59.580508 c 0,1.385594 0,2.771187 0,4.15678 0,0.30791 0.137701,0.648326 0,0.923729 -0.06885,0.137701 -0.393014,-0.137701 -0.461865,0 -0.206552,0.413104 0.206552,0.972489 0,1.385593 -0.09737,0.194739 -0.364494,0.267125 -0.461864,0.461865 -0.06885,0.137701 0.108863,0.353001 0,0.461864 -0.243424,0.243424 -0.680305,0.21844 -0.923729,0.461864 -0.243424,0.243424 -0.270907,0.637293 -0.461864,0.923729 -0.120772,0.181158 -0.364495,0.267125 -0.461865,0.461865 -0.06885,0.137701 0.108863,0.353002 0,0.461864 -0.108862,0.108863 -0.353002,-0.108862 -0.461864,0 -0.108863,0.108863 0.06885,0.324163 0,0.461864 -0.09737,0.19474 -0.30791,0.30791 -0.461864,0.461865 0,0.307909 0.09737,0.63162 0,0.923729 -0.06885,0.206552 -0.30791,0.307909 -0.461865,0.461864 -0.307909,0.30791 -0.662459,0.575369 -0.923729,0.923729 -0.206552,0.275403 -0.353002,0.597141 -0.461864,0.923729 -0.04868,0.146054 0.108862,0.353002 0,0.461864 -0.108863,0.108863 -0.353002,-0.108862 -0.461864,0 -0.04619,0.04619 -0.04619,1.339407 0,1.385593 0.0296,0.0296 1.761425,0.866374 1.847457,0.923729 0.181158,0.120772 0.255313,0.393014 0.461865,0.461865 0.292108,0.09737 0.615819,0 0.923728,0 0.461865,0 0.932698,-0.09058 1.385594,0 0.337568,0.06751 0.58616,0.39435 0.923728,0.461864 0.487724,0.09754 2.565106,0 3.233051,0 2.463277,0 4.926554,0 7.389831,0 0.923729,0 1.847457,0 2.771186,0 0.461865,0 0.923729,0 1.385593,0 0.153955,0 0.353002,0.108862 0.461865,0 0.108862,-0.108863 -0.06885,-0.324163 0,-0.461864 0.09737,-0.19474 0.393014,-0.255313 0.461864,-0.461865 0.09737,-0.292109 0,-0.615819 0,-0.923729 0,-0.153954 0.04868,-0.31581 0,-0.461864 -0.217725,-0.653175 -0.615819,-1.231639 -0.923729,-1.847458 -0.153954,-0.307909 -0.307909,-0.615819 -0.461864,-0.923729 -0.153955,0 -0.353002,0.108863 -0.461864,0 -0.108863,-0.108862 0.06885,-0.324163 0,-0.461864 -0.09737,-0.194739 -0.341093,-0.280706 -0.461865,-0.461864 -0.190957,-0.286437 -0.21844,-0.680305 -0.461864,-0.923729 -0.108863,-0.108863 -0.353002,0.108862 -0.461865,0 -0.108862,-0.108863 0.06885,-0.324163 0,-0.461865 -0.194739,-0.389478 -0.728989,-0.53425 -0.923728,-0.923728 -0.06885,-0.137702 0.108862,-0.353002 0,-0.461865 -0.108863,-0.108862 -0.353002,0.108863 -0.461865,0 -0.217725,-0.217725 0.217725,-0.706004 0,-0.923729 -0.108862,-0.108862 -0.353002,0.108863 -0.461864,0 -0.243424,-0.243424 -0.218441,-0.680305 -0.461865,-0.923728 -0.243424,-0.243424 -0.637292,-0.270907 -0.923728,-0.461865 -0.181159,-0.120772 -0.267126,-0.364495 -0.461865,-0.461864 -0.137701,-0.06885 -0.353002,0.108862 -0.461864,0 -0.108863,-0.108863 0.108862,-0.353002 0,-0.461865 -0.243424,-0.243424 -0.680305,-0.21844 -0.923729,-0.461864 -0.243424,-0.243424 -0.270907,-0.637293 -0.461864,-0.923729 -0.241545,-0.362316 -0.72899,-0.53425 -0.923729,-0.923729 -0.06885,-0.137701 0.108862,-0.353002 0,-0.461864 -0.108863,-0.108863 -0.353002,0.108862 -0.461865,0 -0.108862,-0.108863 0.108863,-0.353002 0,-0.461864 -0.108862,-0.108863 -0.31581,0.04868 -0.461864,0 -3.345476,-1.115159 0.728179,0.133157 -1.385593,-0.923729 -0.137702,-0.06885 -0.30791,0 -0.461865,0 -0.153955,0 -0.307909,0 -0.461864,0"
     id="path2988"
     inkscape:connector-curvature="0"
     transform="matrix(1.0222222,0,0,1.0222222,-1,-1.2111111)" /><path
     style="fill:none;stroke:#000000;stroke-width:1px;stroke-linecap:butt;stroke-linejoin:miter;stroke-opacity:1"
     d="m 10.161017,74.822034 c -0.3079097,0.769774 -0.6158193,1.539548 -0.9237289,2.309322 0,0.153955 0.048685,0.31581 0,0.461864 -0.1088624,0.326588 -0.3783707,0.589754 -0.4618644,0.923729 -0.098286,0.393145 0.1325706,2.044181 0,2.309322 -0.097369,0.194739 -0.3644948,0.267125 -0.4618644,0.461865 -0.068851,0.137701 0,0.307909 0,0.461864 0,0.153955 -0.1088625,0.353002 0,0.461864 0.1088625,0.108863 0.3530019,-0.108862 0.4618644,0 0.1088625,0.108863 -0.1088625,0.353002 0,0.461865 0.2434239,0.243424 0.6592661,0.241479 0.9237288,0.461864 0.6690435,0.557537 1.2316385,1.231639 1.8474575,1.847458 0.30791,0.307909 0.682185,0.561412 0.923729,0.923729 0.0854,0.128098 -0.06885,0.324163 0,0.461864 0.194739,0.389478 0.72899,0.534251 0.923729,0.923729 0.06885,0.137701 -0.108863,0.353002 0,0.461864 0.108862,0.108863 0.333766,-0.0854 0.461864,0 0.724633,0.483089 1.167399,1.303411 1.847458,1.847458 0.539998,0.838171 1.591159,0.846971 2.309322,1.385593 1.997698,1.997698 -0.122353,0.07239 1.847457,1.385593 0.181159,0.120772 0.267126,0.364495 0.461865,0.461865 0.137701,0.06885 0.324163,-0.06885 0.461864,0 1.141454,0.570727 -0.159425,0.461864 0.923729,0.461864 0.153955,0 0.30791,0 0.461865,0 0.153954,0 0.324163,0.06885 0.461864,0 0.194739,-0.09737 0.255312,-0.393014 0.461864,-0.461864 0.292109,-0.09737 0.648326,0.137701 0.923729,0 0.137702,-0.06885 -0.108862,-0.353002 0,-0.461865 0.108863,-0.108862 0.30791,0 0.461865,0 0.307909,-0.307909 0.662458,-0.575369 0.923728,-0.923728 0.413104,-0.550806 0.541814,-1.274586 0.923729,-1.847458 0.120772,-0.181158 0.409059,-0.25064 0.461865,-0.461864 0.112018,-0.448075 -0.112019,-0.937519 0,-1.385594 0.05281,-0.211224 0.364494,-0.267125 0.461864,-0.461864 0.05176,-0.103518 0,-1.737705 0,-1.847458 0,-0.412778 0.07359,-2.162138 0,-2.309322 -0.09737,-0.194739 -0.364495,-0.267125 -0.461864,-0.461864 -0.06885,-0.137702 0,-0.30791 0,-0.461865 0,-0.307909 0.09737,-0.63162 0,-0.923728 -0.06885,-0.206552 -0.364495,-0.267126 -0.461865,-0.461865 -0.06885,-0.137701 0.108863,-0.353002 0,-0.461864 -0.108862,-0.108863 -0.333766,0.0854 -0.461864,0 -0.543475,-0.362316 -0.842119,-1.023277 -1.385593,-1.385593 -0.286437,-0.190958 -0.637293,-0.270907 -0.923729,-0.461865 -0.420442,-0.280295 -0.976225,-1.180909 -1.385593,-1.385593 -0.137702,-0.06885 -0.324164,0.06885 -0.461865,0 -0.194739,-0.09737 -0.307909,-0.30791 -0.461864,-0.461864 -0.30791,-0.30791 -0.561413,-0.682185 -0.923729,-0.923729 -0.128098,-0.0854 -0.333766,0.0854 -0.461865,0 -0.362316,-0.241544 -0.53425,-0.72899 -0.923728,-0.923729 -0.275403,-0.137701 -0.63162,0.09737 -0.923729,0 -0.206552,-0.06885 -0.280706,-0.341092 -0.461865,-0.461865 -0.286436,-0.190957 -0.597141,-0.353001 -0.923728,-0.461864 -0.292109,-0.09737 -0.648326,0.137701 -0.923729,0 -0.194739,-0.09737 -0.255313,-0.393014 -0.461865,-0.461864 -1.385593,-0.461865 -0.461864,0.230932 -1.385593,0 -0.472312,-0.118078 -0.929743,-0.632808 -1.385593,-0.461865 -0.923026,0.346135 -1.539548,1.231639 -2.309322,1.847458 z"
     id="path2990"
     inkscape:connector-curvature="0"
     transform="matrix(1.0222222,0,0,1.0222222,-1,-1.2111111)" /><path
     style="fill:none;stroke:#000000;stroke-width:1px;stroke-linecap:butt;stroke-linejoin:miter;stroke-opacity:1"
     d="m 32.792373,80.364407 c 0,0.615819 -0.10124,1.240017 0,1.847457 0.0566,0.33957 0.378371,0.589754 0.461864,0.923729 0.07814,0.312565 0,2.935838 0,3.233051 0,0.0801 -0.04796,3.137129 0,3.233051 0.09737,0.194739 0.393014,0.255312 0.461865,0.461864 0.194739,0.584218 -0.194739,1.263241 0,1.847458 0.06885,0.206552 0.364495,0.267125 0.461864,0.461864 0.137701,0.275403 -0.137701,0.648326 0,0.923729 0.09737,0.194739 0.364495,0.267125 0.461865,0.461865 0.06885,0.137701 -0.108863,0.353001 0,0.461864 0.108862,0.108862 0.324163,-0.06885 0.461864,0 1.246448,0.623224 -0.01594,0.207018 0.461864,0.923729 0.799079,1.198618 0.825239,0.704113 1.847458,1.385593 0.181158,0.120772 0.267125,0.364495 0.461864,0.461864 0.43545,0.217725 0.950144,0.24414 1.385594,0.461865 0.496489,0.248244 0.870203,0.717573 1.385593,0.923729 0.285887,0.114354 0.625012,-0.07468 0.923729,0 0.333974,0.08349 0.597141,0.353002 0.923728,0.461864 0.602198,0.200733 1.23711,0.287479 1.847458,0.461864 0.468116,0.133748 0.903639,0.393014 1.385593,0.461865 0.60963,0.08709 1.237828,-0.08709 1.847458,0 4.596225,0.656608 -2.423435,0.461868 3.233051,0.461868 1.385593,0 2.771186,0 4.156779,0 0.61582,0 1.240018,0.10124 1.847458,0 3.499874,-0.583316 0.188178,-0.0941 1.847458,-0.923733 0.137701,-0.06885 0.353002,0.108863 0.461864,0 0.108863,-0.108862 0,-0.307909 0,-0.461864 0,-0.391038 0.08277,-1.599156 0,-1.847458 -0.06885,-0.206552 -0.364495,-0.267125 -0.461864,-0.461864 -0.09156,-0.183125 0.09442,-1.291171 0,-1.385593 -0.108863,-0.108863 -0.41318,0.146054 -0.461865,0 -0.161928,-0.485784 0.152431,-1.85203 0,-2.309322 -0.108862,-0.326588 -0.353002,-0.597142 -0.461864,-0.923729 -0.04869,-0.146054 0.06885,-0.324163 0,-0.461864 -0.09737,-0.19474 -0.393014,-0.255313 -0.461865,-0.461865 -0.09737,-0.292109 0.09737,-0.63162 0,-0.923729 -0.06885,-0.206552 -0.364494,-0.267125 -0.461864,-0.461864 -0.06885,-0.137701 0,-0.30791 0,-0.461864 -0.153955,-0.461865 -0.211383,-0.968125 -0.461864,-1.385594 -0.224038,-0.373395 -0.662459,-0.575369 -0.923729,-0.923729 -1.017563,-0.232591 -0.24414,-0.950143 -0.461865,-1.385593 -0.08263,-0.16526 -2.302111,-2.304515 -2.309322,-2.309322 -0.128098,-0.0854 -0.333766,0.0854 -0.461864,0 C 51.828362,82.894049 51.574859,82.519774 51.266949,82.211864 51.112994,82.05791 51.011637,81.818851 50.805085,81.75 c -0.292109,-0.09737 -0.63162,0.09737 -0.923729,0 -0.413104,-0.137701 -0.534251,-0.72899 -0.923729,-0.923729 -0.272509,-0.136254 -1.067908,0.105895 -1.385593,0 -0.425521,-0.14184 -0.863863,-0.635774 -1.385593,-0.461864 -0.326588,0.108862 -0.589754,0.37837 -0.923729,0.461864 -0.298716,0.07468 -0.615819,0 -0.923729,0 -0.923729,0 -1.847458,0 -2.771186,0 -0.30791,0 -0.631621,-0.09737 -0.923729,0 -0.326588,0.108863 -0.589754,0.378371 -0.923729,0.461865 -0.448074,0.112018 -0.923729,0 -1.385593,0 -0.110619,0 -2.438943,0.09493 -2.771187,0 -0.936231,-0.267495 -1.826563,-1.159885 -2.771186,-0.923729 -0.66795,0.166987 -0.30791,2.155367 -0.923729,1.847457 -0.615819,-0.307909 0.615819,-1.231638 0.923729,-1.847457 z"
     id="path2992"
     inkscape:connector-curvature="0"
     transform="matrix(1.0222222,0,0,1.0222222,-1,-1.2111111)" /></svg>